G04*
G04 #@! TF.GenerationSoftware,Altium Limited,Altium Designer,26.6.0 (10)*
G04*
G04 Layer_Physical_Order=1*
G04 Layer_Color=255*
G04 Board_Origin=0|0*
%FSLAX25Y25*%
%MOIN*%
G70*
G04*
G04 #@! TF.SameCoordinates,0E061EC5-0034-4C87-9B6E-AF0799176EB5*
G04*
G04*
G04 #@! TF.FilePolarity,Positive*
G04*
G01*
G75*
G04:AMPARAMS|DCode=17|XSize=21.65mil|YSize=21.65mil|CornerRadius=5.41mil|HoleSize=0mil|Usage=FLASHONLY|Rotation=315.000|XOffset=0mil|YOffset=0mil|HoleType=Round|Shape=RoundedRectangle|*
%AMROUNDEDRECTD17*
21,1,0.02165,0.01083,0,0,315.0*
21,1,0.01083,0.02165,0,0,315.0*
1,1,0.01083,0.00000,-0.00766*
1,1,0.01083,-0.00766,0.00000*
1,1,0.01083,0.00000,0.00766*
1,1,0.01083,0.00766,0.00000*
%
%ADD17ROUNDEDRECTD17*%
G04:AMPARAMS|DCode=18|XSize=57.09mil|YSize=53.15mil|CornerRadius=13.29mil|HoleSize=0mil|Usage=FLASHONLY|Rotation=45.000|XOffset=0mil|YOffset=0mil|HoleType=Round|Shape=RoundedRectangle|*
%AMROUNDEDRECTD18*
21,1,0.05709,0.02657,0,0,45.0*
21,1,0.03051,0.05315,0,0,45.0*
1,1,0.02657,0.02018,0.00139*
1,1,0.02657,-0.00139,-0.02018*
1,1,0.02657,-0.02018,-0.00139*
1,1,0.02657,0.00139,0.02018*
%
%ADD18ROUNDEDRECTD18*%
G04:AMPARAMS|DCode=19|XSize=27.56mil|YSize=114.17mil|CornerRadius=6.89mil|HoleSize=0mil|Usage=FLASHONLY|Rotation=180.000|XOffset=0mil|YOffset=0mil|HoleType=Round|Shape=RoundedRectangle|*
%AMROUNDEDRECTD19*
21,1,0.02756,0.10039,0,0,180.0*
21,1,0.01378,0.11417,0,0,180.0*
1,1,0.01378,-0.00689,0.05020*
1,1,0.01378,0.00689,0.05020*
1,1,0.01378,0.00689,-0.05020*
1,1,0.01378,-0.00689,-0.05020*
%
%ADD19ROUNDEDRECTD19*%
G04:AMPARAMS|DCode=20|XSize=23.62mil|YSize=8.66mil|CornerRadius=2.17mil|HoleSize=0mil|Usage=FLASHONLY|Rotation=225.000|XOffset=0mil|YOffset=0mil|HoleType=Round|Shape=RoundedRectangle|*
%AMROUNDEDRECTD20*
21,1,0.02362,0.00433,0,0,225.0*
21,1,0.01929,0.00866,0,0,225.0*
1,1,0.00433,-0.00835,-0.00529*
1,1,0.00433,0.00529,0.00835*
1,1,0.00433,0.00835,0.00529*
1,1,0.00433,-0.00529,-0.00835*
%
%ADD20ROUNDEDRECTD20*%
G04:AMPARAMS|DCode=21|XSize=43.31mil|YSize=74.8mil|CornerRadius=10.83mil|HoleSize=0mil|Usage=FLASHONLY|Rotation=90.000|XOffset=0mil|YOffset=0mil|HoleType=Round|Shape=RoundedRectangle|*
%AMROUNDEDRECTD21*
21,1,0.04331,0.05315,0,0,90.0*
21,1,0.02165,0.07480,0,0,90.0*
1,1,0.02165,0.02657,0.01083*
1,1,0.02165,0.02657,-0.01083*
1,1,0.02165,-0.02657,-0.01083*
1,1,0.02165,-0.02657,0.01083*
%
%ADD21ROUNDEDRECTD21*%
G04:AMPARAMS|DCode=22|XSize=27.56mil|YSize=114.17mil|CornerRadius=6.89mil|HoleSize=0mil|Usage=FLASHONLY|Rotation=90.000|XOffset=0mil|YOffset=0mil|HoleType=Round|Shape=RoundedRectangle|*
%AMROUNDEDRECTD22*
21,1,0.02756,0.10039,0,0,90.0*
21,1,0.01378,0.11417,0,0,90.0*
1,1,0.01378,0.05020,0.00689*
1,1,0.01378,0.05020,-0.00689*
1,1,0.01378,-0.05020,-0.00689*
1,1,0.01378,-0.05020,0.00689*
%
%ADD22ROUNDEDRECTD22*%
G04:AMPARAMS|DCode=23|XSize=23.62mil|YSize=8.66mil|CornerRadius=2.17mil|HoleSize=0mil|Usage=FLASHONLY|Rotation=315.000|XOffset=0mil|YOffset=0mil|HoleType=Round|Shape=RoundedRectangle|*
%AMROUNDEDRECTD23*
21,1,0.02362,0.00433,0,0,315.0*
21,1,0.01929,0.00866,0,0,315.0*
1,1,0.00433,0.00529,-0.00835*
1,1,0.00433,-0.00835,0.00529*
1,1,0.00433,-0.00529,0.00835*
1,1,0.00433,0.00835,-0.00529*
%
%ADD23ROUNDEDRECTD23*%
G04:AMPARAMS|DCode=24|XSize=74.8mil|YSize=64.96mil|CornerRadius=16.24mil|HoleSize=0mil|Usage=FLASHONLY|Rotation=0.000|XOffset=0mil|YOffset=0mil|HoleType=Round|Shape=RoundedRectangle|*
%AMROUNDEDRECTD24*
21,1,0.07480,0.03248,0,0,0.0*
21,1,0.04232,0.06496,0,0,0.0*
1,1,0.03248,0.02116,-0.01624*
1,1,0.03248,-0.02116,-0.01624*
1,1,0.03248,-0.02116,0.01624*
1,1,0.03248,0.02116,0.01624*
%
%ADD24ROUNDEDRECTD24*%
G04:AMPARAMS|DCode=25|XSize=62.99mil|YSize=47.24mil|CornerRadius=11.81mil|HoleSize=0mil|Usage=FLASHONLY|Rotation=90.000|XOffset=0mil|YOffset=0mil|HoleType=Round|Shape=RoundedRectangle|*
%AMROUNDEDRECTD25*
21,1,0.06299,0.02362,0,0,90.0*
21,1,0.03937,0.04724,0,0,90.0*
1,1,0.02362,0.01181,0.01968*
1,1,0.02362,0.01181,-0.01968*
1,1,0.02362,-0.01181,-0.01968*
1,1,0.02362,-0.01181,0.01968*
%
%ADD25ROUNDEDRECTD25*%
G04:AMPARAMS|DCode=26|XSize=21.65mil|YSize=16.54mil|CornerRadius=4.13mil|HoleSize=0mil|Usage=FLASHONLY|Rotation=315.000|XOffset=0mil|YOffset=0mil|HoleType=Round|Shape=RoundedRectangle|*
%AMROUNDEDRECTD26*
21,1,0.02165,0.00827,0,0,315.0*
21,1,0.01339,0.01654,0,0,315.0*
1,1,0.00827,0.00181,-0.00766*
1,1,0.00827,-0.00766,0.00181*
1,1,0.00827,-0.00181,0.00766*
1,1,0.00827,0.00766,-0.00181*
%
%ADD26ROUNDEDRECTD26*%
G04:AMPARAMS|DCode=27|XSize=21.65mil|YSize=16.54mil|CornerRadius=4.13mil|HoleSize=0mil|Usage=FLASHONLY|Rotation=90.000|XOffset=0mil|YOffset=0mil|HoleType=Round|Shape=RoundedRectangle|*
%AMROUNDEDRECTD27*
21,1,0.02165,0.00827,0,0,90.0*
21,1,0.01339,0.01654,0,0,90.0*
1,1,0.00827,0.00413,0.00669*
1,1,0.00827,0.00413,-0.00669*
1,1,0.00827,-0.00413,-0.00669*
1,1,0.00827,-0.00413,0.00669*
%
%ADD27ROUNDEDRECTD27*%
G04:AMPARAMS|DCode=28|XSize=21.65mil|YSize=16.54mil|CornerRadius=4.13mil|HoleSize=0mil|Usage=FLASHONLY|Rotation=45.000|XOffset=0mil|YOffset=0mil|HoleType=Round|Shape=RoundedRectangle|*
%AMROUNDEDRECTD28*
21,1,0.02165,0.00827,0,0,45.0*
21,1,0.01339,0.01654,0,0,45.0*
1,1,0.00827,0.00766,0.00181*
1,1,0.00827,-0.00181,-0.00766*
1,1,0.00827,-0.00766,-0.00181*
1,1,0.00827,0.00181,0.00766*
%
%ADD28ROUNDEDRECTD28*%
G04:AMPARAMS|DCode=29|XSize=57.09mil|YSize=53.15mil|CornerRadius=13.29mil|HoleSize=0mil|Usage=FLASHONLY|Rotation=135.000|XOffset=0mil|YOffset=0mil|HoleType=Round|Shape=RoundedRectangle|*
%AMROUNDEDRECTD29*
21,1,0.05709,0.02657,0,0,135.0*
21,1,0.03051,0.05315,0,0,135.0*
1,1,0.02657,-0.00139,0.02018*
1,1,0.02657,0.02018,-0.00139*
1,1,0.02657,0.00139,-0.02018*
1,1,0.02657,-0.02018,0.00139*
%
%ADD29ROUNDEDRECTD29*%
G04:AMPARAMS|DCode=30|XSize=39.37mil|YSize=31.5mil|CornerRadius=7.87mil|HoleSize=0mil|Usage=FLASHONLY|Rotation=315.000|XOffset=0mil|YOffset=0mil|HoleType=Round|Shape=RoundedRectangle|*
%AMROUNDEDRECTD30*
21,1,0.03937,0.01575,0,0,315.0*
21,1,0.02362,0.03150,0,0,315.0*
1,1,0.01575,0.00278,-0.01392*
1,1,0.01575,-0.01392,0.00278*
1,1,0.01575,-0.00278,0.01392*
1,1,0.01575,0.01392,-0.00278*
%
%ADD30ROUNDEDRECTD30*%
G04:AMPARAMS|DCode=31|XSize=22mil|YSize=13mil|CornerRadius=3.25mil|HoleSize=0mil|Usage=FLASHONLY|Rotation=270.000|XOffset=0mil|YOffset=0mil|HoleType=Round|Shape=RoundedRectangle|*
%AMROUNDEDRECTD31*
21,1,0.02200,0.00650,0,0,270.0*
21,1,0.01550,0.01300,0,0,270.0*
1,1,0.00650,-0.00325,-0.00775*
1,1,0.00650,-0.00325,0.00775*
1,1,0.00650,0.00325,0.00775*
1,1,0.00650,0.00325,-0.00775*
%
%ADD31ROUNDEDRECTD31*%
G04:AMPARAMS|DCode=32|XSize=39.37mil|YSize=31.5mil|CornerRadius=7.87mil|HoleSize=0mil|Usage=FLASHONLY|Rotation=0.000|XOffset=0mil|YOffset=0mil|HoleType=Round|Shape=RoundedRectangle|*
%AMROUNDEDRECTD32*
21,1,0.03937,0.01575,0,0,0.0*
21,1,0.02362,0.03150,0,0,0.0*
1,1,0.01575,0.01181,-0.00787*
1,1,0.01575,-0.01181,-0.00787*
1,1,0.01575,-0.01181,0.00787*
1,1,0.01575,0.01181,0.00787*
%
%ADD32ROUNDEDRECTD32*%
G04:AMPARAMS|DCode=33|XSize=39.37mil|YSize=31.5mil|CornerRadius=7.87mil|HoleSize=0mil|Usage=FLASHONLY|Rotation=270.000|XOffset=0mil|YOffset=0mil|HoleType=Round|Shape=RoundedRectangle|*
%AMROUNDEDRECTD33*
21,1,0.03937,0.01575,0,0,270.0*
21,1,0.02362,0.03150,0,0,270.0*
1,1,0.01575,-0.00787,-0.01181*
1,1,0.01575,-0.00787,0.01181*
1,1,0.01575,0.00787,0.01181*
1,1,0.01575,0.00787,-0.01181*
%
%ADD33ROUNDEDRECTD33*%
G04:AMPARAMS|DCode=34|XSize=37.4mil|YSize=31.5mil|CornerRadius=7.87mil|HoleSize=0mil|Usage=FLASHONLY|Rotation=180.000|XOffset=0mil|YOffset=0mil|HoleType=Round|Shape=RoundedRectangle|*
%AMROUNDEDRECTD34*
21,1,0.03740,0.01575,0,0,180.0*
21,1,0.02165,0.03150,0,0,180.0*
1,1,0.01575,-0.01083,0.00787*
1,1,0.01575,0.01083,0.00787*
1,1,0.01575,0.01083,-0.00787*
1,1,0.01575,-0.01083,-0.00787*
%
%ADD34ROUNDEDRECTD34*%
G04:AMPARAMS|DCode=35|XSize=43.31mil|YSize=74.8mil|CornerRadius=10.83mil|HoleSize=0mil|Usage=FLASHONLY|Rotation=180.000|XOffset=0mil|YOffset=0mil|HoleType=Round|Shape=RoundedRectangle|*
%AMROUNDEDRECTD35*
21,1,0.04331,0.05315,0,0,180.0*
21,1,0.02165,0.07480,0,0,180.0*
1,1,0.02165,-0.01083,0.02657*
1,1,0.02165,0.01083,0.02657*
1,1,0.02165,0.01083,-0.02657*
1,1,0.02165,-0.01083,-0.02657*
%
%ADD35ROUNDEDRECTD35*%
G04:AMPARAMS|DCode=36|XSize=39.37mil|YSize=37.4mil|CornerRadius=9.35mil|HoleSize=0mil|Usage=FLASHONLY|Rotation=135.000|XOffset=0mil|YOffset=0mil|HoleType=Round|Shape=RoundedRectangle|*
%AMROUNDEDRECTD36*
21,1,0.03937,0.01870,0,0,135.0*
21,1,0.02067,0.03740,0,0,135.0*
1,1,0.01870,-0.00070,0.01392*
1,1,0.01870,0.01392,-0.00070*
1,1,0.01870,0.00070,-0.01392*
1,1,0.01870,-0.01392,0.00070*
%
%ADD36ROUNDEDRECTD36*%
%ADD59P,0.23106X4X360.0*%
%ADD60C,0.00591*%
%ADD61C,0.01000*%
%ADD62C,0.01181*%
G04:AMPARAMS|DCode=63|XSize=60mil|YSize=60mil|CornerRadius=15mil|HoleSize=0mil|Usage=FLASHONLY|Rotation=0.000|XOffset=0mil|YOffset=0mil|HoleType=Round|Shape=RoundedRectangle|*
%AMROUNDEDRECTD63*
21,1,0.06000,0.03000,0,0,0.0*
21,1,0.03000,0.06000,0,0,0.0*
1,1,0.03000,0.01500,-0.01500*
1,1,0.03000,-0.01500,-0.01500*
1,1,0.03000,-0.01500,0.01500*
1,1,0.03000,0.01500,0.01500*
%
%ADD63ROUNDEDRECTD63*%
%ADD64C,0.10630*%
%ADD65C,0.06000*%
G04:AMPARAMS|DCode=66|XSize=157.48mil|YSize=157.48mil|CornerRadius=39.37mil|HoleSize=0mil|Usage=FLASHONLY|Rotation=0.000|XOffset=0mil|YOffset=0mil|HoleType=Round|Shape=RoundedRectangle|*
%AMROUNDEDRECTD66*
21,1,0.15748,0.07874,0,0,0.0*
21,1,0.07874,0.15748,0,0,0.0*
1,1,0.07874,0.03937,-0.03937*
1,1,0.07874,-0.03937,-0.03937*
1,1,0.07874,-0.03937,0.03937*
1,1,0.07874,0.03937,0.03937*
%
%ADD66ROUNDEDRECTD66*%
%ADD67O,0.07087X0.06693*%
%ADD68C,0.19685*%
%ADD69C,0.02000*%
G36*
X133465Y151575D02*
Y140551D01*
X137795Y136221D01*
Y133858D01*
X135827Y131890D01*
X125197D01*
Y134252D01*
X124016Y135433D01*
X116142D01*
X115453Y134744D01*
Y133760D01*
Y131884D01*
Y123242D01*
X105020D01*
Y127563D01*
X104720D01*
X98819Y133465D01*
Y153937D01*
X100394Y155512D01*
X137402D01*
X133465Y151575D01*
D02*
G37*
G36*
X55118Y153543D02*
Y133465D01*
X53150Y131496D01*
X46457D01*
X46063Y131890D01*
Y134252D01*
X44882Y135433D01*
X40095D01*
X36546Y131884D01*
Y123242D01*
X26113D01*
Y131884D01*
X16147D01*
X16142Y131890D01*
Y133858D01*
X23228Y140945D01*
Y150787D01*
X18898Y155118D01*
X53543D01*
X55118Y153543D01*
D02*
G37*
G36*
X96850Y153543D02*
Y131137D01*
X93276Y127563D01*
Y123242D01*
X82843D01*
Y127563D01*
Y128180D01*
X79134Y131890D01*
X69986D01*
X69980Y131896D01*
Y133169D01*
X68504Y134646D01*
X59842D01*
X57087Y131890D01*
X57087Y153543D01*
X58661Y155118D01*
X95276D01*
X96850Y153543D01*
D02*
G37*
G36*
X79134Y127165D02*
X79134Y112992D01*
X75984Y109843D01*
X66142D01*
X64961Y111024D01*
Y127644D01*
X66043Y128727D01*
X77573D01*
X79134Y127165D01*
D02*
G37*
G36*
X57874Y113779D02*
X53150Y109055D01*
X44094D01*
X42913Y110236D01*
Y120084D01*
Y128727D01*
X42927Y128740D01*
X57874D01*
Y113779D01*
D02*
G37*
G36*
X32677Y119252D02*
X32609Y119184D01*
X33465Y118329D01*
Y115748D01*
X34646Y114567D01*
Y108016D01*
X30315D01*
Y114173D01*
X29134Y115354D01*
X16535D01*
X15748Y116142D01*
Y118898D01*
X16929Y120079D01*
X32677D01*
Y119252D01*
D02*
G37*
G36*
X138189Y126378D02*
X138189Y107874D01*
X123228D01*
X121949Y109153D01*
Y120084D01*
Y128727D01*
Y128740D01*
X135827D01*
X138189Y126378D01*
D02*
G37*
G36*
X112196Y118504D02*
X112205D01*
Y116535D01*
X114961Y113779D01*
Y110630D01*
X114173Y109843D01*
X110236D01*
X108268Y107874D01*
Y106693D01*
X103543D01*
Y117323D01*
X105405Y119184D01*
X111516D01*
X112196Y118504D01*
D02*
G37*
G36*
X90551Y119291D02*
Y112598D01*
X87402Y109449D01*
Y106299D01*
X83071D01*
Y106693D01*
Y107087D01*
Y111024D01*
X82284Y111811D01*
Y118898D01*
X83465Y120079D01*
X89764D01*
X90551Y119291D01*
D02*
G37*
G36*
X22835Y128740D02*
Y123622D01*
X21260Y122047D01*
Y121260D01*
X15748D01*
X13780Y119291D01*
Y114961D01*
X14961Y113779D01*
Y113386D01*
X20079D01*
X21654Y111811D01*
Y107480D01*
X19685Y105512D01*
Y104724D01*
X8268D01*
X7087Y105905D01*
Y126378D01*
X11024Y130315D01*
X21260D01*
X22835Y128740D01*
D02*
G37*
G36*
X153543Y130709D02*
X153543Y105118D01*
X146850Y98425D01*
X124016D01*
X122441Y100000D01*
Y103937D01*
X124409Y105905D01*
X138583D01*
X140551Y107874D01*
Y131102D01*
X153150D01*
X153543Y130709D01*
D02*
G37*
G36*
X114961Y106299D02*
Y98819D01*
X114173Y98032D01*
X109843D01*
X109055Y98819D01*
Y105905D01*
X109843Y106693D01*
X114567D01*
X114961Y106299D01*
D02*
G37*
G36*
X31550Y91952D02*
Y85053D01*
X31550Y85053D01*
X31634Y84627D01*
X31671Y84572D01*
X31404Y84073D01*
X30411D01*
X30324Y84514D01*
X30041Y84937D01*
X29618Y85220D01*
X29118Y85320D01*
X19079D01*
X18580Y85220D01*
X18156Y84937D01*
X17874Y84514D01*
X17774Y84015D01*
Y82637D01*
X17874Y82138D01*
X18156Y81714D01*
X18580Y81432D01*
X19079Y81332D01*
X29118D01*
X29618Y81432D01*
X30041Y81714D01*
X30324Y82138D01*
X30349Y82266D01*
X31811D01*
X36498Y77579D01*
Y69063D01*
X36053Y68617D01*
X35811Y68033D01*
Y67400D01*
X36053Y66816D01*
X36501Y66368D01*
X37085Y66126D01*
X37718D01*
X38302Y66368D01*
X38750Y66816D01*
X38992Y67400D01*
Y68033D01*
X38750Y68617D01*
X38305Y69063D01*
Y74966D01*
X38767Y75158D01*
X41251Y72673D01*
X40968Y72250D01*
X40867Y72291D01*
X40234D01*
X39649Y72049D01*
X39202Y71602D01*
X38960Y71017D01*
Y70384D01*
X39202Y69800D01*
X39649Y69352D01*
X40234Y69110D01*
X40867D01*
X41451Y69352D01*
X41668Y69569D01*
X42690D01*
X46131Y66129D01*
X45924Y65629D01*
X45205D01*
X44760Y66074D01*
X44175Y66316D01*
X43542D01*
X42958Y66074D01*
X42808Y65925D01*
X42293Y65862D01*
X41846Y66309D01*
X41261Y66551D01*
X40628D01*
X40044Y66309D01*
X39597Y65862D01*
X39354Y65277D01*
Y65029D01*
X39286Y64960D01*
X39249Y64936D01*
X38832Y64518D01*
X38596Y64754D01*
X37961Y65178D01*
X37213Y65327D01*
X36464Y65178D01*
X35829Y64754D01*
X33671Y62596D01*
X33247Y61962D01*
X33098Y61213D01*
X33247Y60464D01*
X33671Y59829D01*
X35550Y57950D01*
X36185Y57526D01*
X36934Y57377D01*
X37683Y57526D01*
X38318Y57950D01*
X40475Y60107D01*
X40900Y60742D01*
X41049Y61491D01*
X40900Y62240D01*
X40475Y62875D01*
X40442Y62908D01*
X40567Y63218D01*
X40687Y63370D01*
X41261D01*
X41846Y63612D01*
X41995Y63762D01*
X42510Y63824D01*
X42958Y63377D01*
X43542Y63135D01*
X44175D01*
X44760Y63377D01*
X45205Y63822D01*
X45970D01*
X47339Y62454D01*
X47268Y62242D01*
X47094Y61992D01*
X46551D01*
X45966Y61750D01*
X45589Y61372D01*
X45178Y61783D01*
X44593Y62025D01*
X43961D01*
X43376Y61783D01*
X42929Y61335D01*
X42686Y60751D01*
Y60118D01*
X42929Y59533D01*
X43376Y59086D01*
X43961Y58844D01*
X44462D01*
X45429Y57877D01*
X45429Y57877D01*
X45722Y57681D01*
X46068Y57612D01*
X47761D01*
X48107Y57681D01*
X48400Y57877D01*
X48592Y58069D01*
X49912D01*
X50257Y58138D01*
X50550Y58334D01*
X52362Y60145D01*
X52492Y60171D01*
X52759Y60350D01*
X54123Y61714D01*
X54736Y61799D01*
X55522Y61013D01*
X55437Y60400D01*
X54073Y59036D01*
X53894Y58769D01*
X53868Y58639D01*
X50555Y55325D01*
X44580D01*
X44580Y55325D01*
X44234Y55257D01*
X43941Y55061D01*
X41652Y52772D01*
X41022D01*
X40438Y52530D01*
X39990Y52082D01*
X39748Y51498D01*
Y50865D01*
X39990Y50280D01*
X40438Y49833D01*
X41022Y49591D01*
X41655D01*
X42240Y49833D01*
X42687Y50280D01*
X42929Y50865D01*
Y51494D01*
X44954Y53519D01*
X49860D01*
X49957Y53019D01*
X49347Y52409D01*
X49097Y52035D01*
X49009Y51593D01*
X49097Y51152D01*
X49347Y50777D01*
X50113Y50012D01*
X50488Y49761D01*
X50929Y49674D01*
X51371Y49761D01*
X51745Y50012D01*
X52140Y50407D01*
X52640Y50200D01*
Y49661D01*
X52709Y49315D01*
X52905Y49022D01*
X52988Y48939D01*
X52943Y48871D01*
X52855Y48430D01*
X52943Y47988D01*
X53193Y47614D01*
X53563Y47243D01*
X53558Y47218D01*
Y45707D01*
X52455Y44604D01*
X44773D01*
X39853Y49524D01*
X39560Y49720D01*
X39215Y49788D01*
X38726D01*
X38380Y49720D01*
X38087Y49524D01*
X35549Y46986D01*
X35546D01*
X34962Y46744D01*
X34638Y46420D01*
X34138Y46595D01*
Y50882D01*
X35131Y51876D01*
X35676Y52016D01*
X36261Y51774D01*
X36893D01*
X37478Y52016D01*
X37925Y52464D01*
X38167Y53048D01*
Y53681D01*
X37925Y54266D01*
X37478Y54713D01*
X36893Y54955D01*
X36261D01*
X35676Y54713D01*
X35228Y54266D01*
X35118Y53998D01*
X35074D01*
X35074Y53998D01*
X34728Y53930D01*
X34435Y53734D01*
X34435Y53734D01*
X33239Y52538D01*
X32777Y52729D01*
Y59858D01*
X32777Y59858D01*
X32709Y60204D01*
X32513Y60497D01*
X31344Y61666D01*
X31332Y61684D01*
X31332Y61684D01*
X30409Y62606D01*
X30391Y62618D01*
X29731Y63278D01*
Y63791D01*
X30041Y63998D01*
X30324Y64421D01*
X30423Y64920D01*
Y66298D01*
X30324Y66798D01*
X30041Y67221D01*
X29618Y67504D01*
X29118Y67603D01*
X19587D01*
X19380Y68103D01*
X20236Y68958D01*
X20432Y69252D01*
X20485Y69521D01*
X29118D01*
X29618Y69621D01*
X30041Y69903D01*
X30324Y70327D01*
X30423Y70826D01*
Y72204D01*
X30324Y72703D01*
X30041Y73126D01*
X29618Y73409D01*
X29118Y73509D01*
X19079D01*
X18580Y73409D01*
X18156Y73126D01*
X17874Y72703D01*
X17774Y72204D01*
Y70826D01*
X17874Y70327D01*
X18156Y69903D01*
X18199Y69476D01*
X9794Y61072D01*
X9599Y60779D01*
X9530Y60433D01*
Y52877D01*
X9030Y52777D01*
X8829Y53263D01*
X8383Y53708D01*
Y64587D01*
X19224Y75427D01*
X29118D01*
X29618Y75526D01*
X30041Y75809D01*
X30324Y76232D01*
X30423Y76731D01*
Y78109D01*
X30324Y78609D01*
X30041Y79032D01*
X29618Y79315D01*
X29118Y79414D01*
X19079D01*
X18580Y79315D01*
X18156Y79032D01*
X17874Y78609D01*
X17774Y78109D01*
Y76731D01*
X17807Y76565D01*
X6842Y65599D01*
X6646Y65306D01*
X6577Y64961D01*
Y53708D01*
X6132Y53263D01*
X5890Y52679D01*
Y52046D01*
X6132Y51461D01*
X6579Y51014D01*
X7164Y50772D01*
X7797D01*
X8199Y50938D01*
X8388Y50842D01*
X8643Y50627D01*
X8646Y50623D01*
Y50077D01*
X8888Y49493D01*
X8971Y49410D01*
X8764Y48910D01*
X6481D01*
X5828Y48780D01*
X5274Y48410D01*
X4904Y47857D01*
X4775Y47204D01*
Y45039D01*
X4904Y44386D01*
X5274Y43832D01*
X5828Y43462D01*
X6481Y43332D01*
X11795D01*
X12448Y43462D01*
X13002Y43832D01*
X13372Y44386D01*
X13501Y45039D01*
Y47204D01*
X13372Y47857D01*
X13002Y48410D01*
X12448Y48780D01*
X11795Y48910D01*
X11709D01*
X11502Y49410D01*
X11585Y49493D01*
X11827Y50077D01*
Y50710D01*
X11585Y51295D01*
X11336Y51543D01*
Y60059D01*
X17274Y65997D01*
X17774Y65790D01*
Y64920D01*
X17874Y64421D01*
X18156Y63998D01*
X18580Y63715D01*
X19079Y63616D01*
X27925D01*
Y62904D01*
X27994Y62559D01*
X28190Y62265D01*
X28296Y62159D01*
X28104Y61698D01*
X19079D01*
X18580Y61598D01*
X18156Y61315D01*
X17874Y60892D01*
X17774Y60393D01*
Y59015D01*
X17874Y58516D01*
X18156Y58092D01*
X18580Y57810D01*
X19079Y57710D01*
X28414D01*
X29571Y56554D01*
X29546Y56142D01*
X29118Y55792D01*
X19079D01*
X18580Y55693D01*
X18156Y55410D01*
X17874Y54987D01*
X17774Y54487D01*
Y54445D01*
X17068D01*
X16879Y54635D01*
X16294Y54877D01*
X15661D01*
X15077Y54635D01*
X14629Y54187D01*
X14387Y53603D01*
Y52970D01*
X14629Y52385D01*
X15077Y51938D01*
X15661Y51696D01*
X16294D01*
X16879Y51938D01*
X17326Y52385D01*
X17382Y52520D01*
X17718Y52582D01*
X17893Y52581D01*
X18156Y52187D01*
X18580Y51904D01*
X19079Y51805D01*
X29118D01*
X29290Y51839D01*
X29790Y51464D01*
Y40381D01*
X29290Y40047D01*
X29135Y40111D01*
X28502D01*
X27918Y39869D01*
X27470Y39422D01*
X27228Y38837D01*
Y38204D01*
X27258Y38131D01*
X24714Y35587D01*
X24214Y35794D01*
Y46953D01*
X25277Y48016D01*
X25907D01*
X26491Y48258D01*
X26939Y48705D01*
X27181Y49290D01*
Y49923D01*
X26939Y50507D01*
X26491Y50955D01*
X25907Y51197D01*
X25274D01*
X24690Y50955D01*
X24242Y50507D01*
X24000Y49923D01*
Y49293D01*
X22672Y47965D01*
X22477Y47672D01*
X22408Y47327D01*
Y44769D01*
X21908Y44435D01*
X21742Y44504D01*
X21109D01*
X21004Y44460D01*
X20588Y44738D01*
Y47473D01*
X21033Y47918D01*
X21276Y48502D01*
Y49135D01*
X21033Y49720D01*
X20586Y50167D01*
X20001Y50409D01*
X19369D01*
X18784Y50167D01*
X18337Y49720D01*
X18094Y49135D01*
Y48502D01*
X18337Y47918D01*
X18782Y47473D01*
Y44155D01*
X18705Y44040D01*
X18636Y43694D01*
Y40762D01*
X18136Y40562D01*
X17830Y40868D01*
X17245Y41110D01*
X16613D01*
X16028Y40868D01*
X15581Y40420D01*
X15339Y39836D01*
Y39203D01*
X15581Y38618D01*
X16026Y38173D01*
Y37599D01*
X15665Y37527D01*
X15209Y37222D01*
X14904Y36767D01*
X14797Y36229D01*
Y34654D01*
X14904Y34117D01*
X15209Y33661D01*
X15665Y33356D01*
X16202Y33249D01*
X18368D01*
X18676Y33311D01*
X19176Y32981D01*
Y31603D01*
X18676Y31274D01*
X18368Y31335D01*
X16202D01*
X15665Y31228D01*
X15209Y30923D01*
X14904Y30468D01*
X14797Y29930D01*
Y28355D01*
X14904Y27817D01*
X15209Y27362D01*
X15239Y27342D01*
Y23705D01*
X15307Y23359D01*
X15503Y23066D01*
X16126Y22443D01*
Y21813D01*
X16368Y21229D01*
X16498Y21099D01*
X16201Y20689D01*
X15422Y21086D01*
X13860Y21594D01*
X12238Y21850D01*
X10596D01*
X8974Y21594D01*
X7412Y21086D01*
X5949Y20340D01*
X4621Y19375D01*
X3459Y18214D01*
X2862Y17392D01*
X2362Y17555D01*
Y96457D01*
X27045D01*
X31550Y91952D01*
D02*
G37*
G36*
X81102Y77165D02*
X81102Y75984D01*
X77953Y72835D01*
X75984Y72835D01*
X74213Y71063D01*
X71850Y73425D01*
X78347Y79921D01*
X81102Y77165D01*
D02*
G37*
G36*
X76264Y44715D02*
X76849Y44472D01*
X76919D01*
X77197Y44057D01*
X77153Y43953D01*
Y43320D01*
X77396Y42735D01*
X77843Y42288D01*
X78428Y42046D01*
X79060D01*
X79182Y42096D01*
X79596Y41831D01*
X79631Y41329D01*
X79360Y41058D01*
X79118Y40474D01*
Y39841D01*
X79360Y39257D01*
X79808Y38809D01*
X80392Y38567D01*
X81025D01*
X81328Y38151D01*
X81349Y37929D01*
X81342Y37921D01*
X81100Y37337D01*
Y36835D01*
X80488D01*
X79903Y36592D01*
X79456Y36145D01*
X79345Y35877D01*
X79035D01*
X79035Y35877D01*
X78689Y35809D01*
X78396Y35613D01*
X78249Y35466D01*
X74643D01*
X74436Y35966D01*
X74577Y36107D01*
X74819Y36691D01*
Y37324D01*
X74768Y37448D01*
X75150Y37831D01*
X75274Y37780D01*
X75907D01*
X76491Y38022D01*
X76939Y38469D01*
X77181Y39054D01*
Y39687D01*
X76939Y40271D01*
X76491Y40718D01*
X75907Y40961D01*
X75274D01*
X74690Y40718D01*
X74244Y40273D01*
X71569D01*
X71240Y40642D01*
X71364Y41265D01*
X71281Y41679D01*
X71706Y42105D01*
X72121Y42022D01*
X72870Y42171D01*
X73505Y42595D01*
X75384Y44475D01*
X75549Y44722D01*
X76193Y44786D01*
X76264Y44715D01*
D02*
G37*
G36*
X66142Y50394D02*
X66218Y50470D01*
X66282Y50428D01*
X66597Y50365D01*
X66901Y50425D01*
X66912Y50427D01*
X67401Y50153D01*
Y48895D01*
X64958Y46452D01*
X64717Y46091D01*
X64632Y45665D01*
X64632Y45665D01*
Y44837D01*
X64632Y44837D01*
X64717Y44411D01*
X64958Y44051D01*
X65034Y43975D01*
X63986Y42927D01*
X63562Y42292D01*
X63413Y41543D01*
X63562Y40794D01*
X63582Y40764D01*
X63194Y40446D01*
X61533Y42106D01*
Y49830D01*
X62105Y50402D01*
X62235Y50428D01*
X62502Y50606D01*
X63866Y51970D01*
X64480Y52056D01*
X66142Y50394D01*
D02*
G37*
G36*
X58546Y44146D02*
Y41243D01*
X58614Y40897D01*
X58810Y40604D01*
X64668Y34747D01*
X64476Y34285D01*
X56927D01*
X56719Y34785D01*
X56860Y34926D01*
X57102Y35510D01*
Y36143D01*
X56860Y36728D01*
X56413Y37175D01*
X55828Y37417D01*
X55195D01*
X54611Y37175D01*
X54163Y36728D01*
X53921Y36143D01*
Y35510D01*
X54163Y34926D01*
X54304Y34785D01*
X54097Y34285D01*
X49446D01*
X49239Y34785D01*
X49380Y34926D01*
X49622Y35510D01*
Y36143D01*
X49380Y36728D01*
X48932Y37175D01*
X48348Y37417D01*
X47715D01*
X47131Y37175D01*
X46683Y36728D01*
X46441Y36143D01*
Y35510D01*
X46683Y34926D01*
X46824Y34785D01*
X46617Y34285D01*
X40614D01*
X34284Y40616D01*
X34317Y41059D01*
X34761Y41341D01*
X34804Y41323D01*
X35434D01*
X36057Y40700D01*
X36350Y40504D01*
X36696Y40435D01*
X36696Y40435D01*
X42597D01*
X42804Y39935D01*
X42746Y39877D01*
X42504Y39293D01*
Y38660D01*
X42746Y38075D01*
X43194Y37628D01*
X43778Y37386D01*
X44411D01*
X44995Y37628D01*
X45443Y38075D01*
X45685Y38660D01*
Y39293D01*
X45443Y39877D01*
X45385Y39935D01*
X45592Y40435D01*
X50077D01*
X50284Y39935D01*
X50226Y39877D01*
X49984Y39293D01*
Y38660D01*
X50226Y38075D01*
X50674Y37628D01*
X51258Y37386D01*
X51891D01*
X52476Y37628D01*
X52923Y38075D01*
X53165Y38660D01*
Y39293D01*
X52923Y39877D01*
X52865Y39935D01*
X53072Y40435D01*
X53808D01*
X54153Y40504D01*
X54447Y40700D01*
X58084Y44337D01*
X58546Y44146D01*
D02*
G37*
G36*
X105905Y61614D02*
X105905Y33071D01*
X103937Y31102D01*
X93701Y31102D01*
X89370Y35433D01*
Y61024D01*
X92126Y63779D01*
X103740D01*
X105905Y61614D01*
D02*
G37*
G36*
X37568Y30840D02*
X37519Y30342D01*
X37448Y30295D01*
X37165Y29872D01*
X37085Y29472D01*
X36811Y29276D01*
X36566Y29183D01*
X36246Y29315D01*
X35614D01*
X35029Y29073D01*
X34581Y28625D01*
X34339Y28041D01*
Y27408D01*
X34581Y26823D01*
X34778Y26627D01*
X34748Y26313D01*
X34238Y26001D01*
X34230Y26004D01*
X33598D01*
X33330Y25892D01*
X32765Y26167D01*
X32749Y26251D01*
X32844Y26347D01*
X33087Y26932D01*
Y27564D01*
X32844Y28149D01*
X32397Y28596D01*
X31812Y28839D01*
X31180D01*
X30595Y28596D01*
X30148Y28149D01*
X29906Y27564D01*
Y26932D01*
X30148Y26347D01*
X30593Y25902D01*
Y18110D01*
X30662Y17765D01*
X30857Y17472D01*
X35400Y12929D01*
Y6894D01*
X35320Y6860D01*
X34872Y6413D01*
X34630Y5828D01*
Y5195D01*
X34872Y4611D01*
X35320Y4163D01*
X35904Y3921D01*
X36537D01*
X37121Y4163D01*
X37569Y4611D01*
X37811Y5195D01*
Y5821D01*
X37812Y5830D01*
X38164Y6284D01*
X38505D01*
X39090Y6526D01*
X39148Y6584D01*
X39648Y6377D01*
Y4890D01*
X39203Y4444D01*
X38961Y3860D01*
Y3227D01*
X39112Y2862D01*
X38830Y2362D01*
X25907D01*
X25808Y2862D01*
X26098Y2982D01*
X26545Y3430D01*
X26787Y4014D01*
Y4647D01*
X26545Y5232D01*
X26100Y5677D01*
Y9955D01*
X26600Y10289D01*
X26766Y10221D01*
X27399D01*
X27984Y10463D01*
X28093Y10572D01*
X28593Y10365D01*
Y6735D01*
X28723Y6082D01*
X29093Y5528D01*
X29646Y5158D01*
X30299Y5029D01*
X32465D01*
X33117Y5158D01*
X33671Y5528D01*
X34041Y6082D01*
X34171Y6735D01*
Y12049D01*
X34041Y12702D01*
X33671Y13256D01*
X33117Y13626D01*
X32465Y13756D01*
X30299D01*
X29646Y13626D01*
X29093Y13256D01*
X28872Y12925D01*
X28811Y12895D01*
X28365Y12865D01*
X27986Y13224D01*
Y31478D01*
X29855Y33347D01*
X30484D01*
X31069Y33589D01*
X31516Y34036D01*
X31758Y34621D01*
Y35253D01*
X31516Y35838D01*
X31069Y36285D01*
X30484Y36528D01*
X29851D01*
X29267Y36285D01*
X28820Y35838D01*
X28577Y35253D01*
Y34624D01*
X26600Y32646D01*
X26100Y32853D01*
Y34419D01*
X28612Y36930D01*
X29135D01*
X29719Y37172D01*
X30167Y37620D01*
X30176Y37643D01*
X30667Y37741D01*
X37568Y30840D01*
D02*
G37*
G36*
X146457Y89764D02*
Y74803D01*
X129134Y57480D01*
Y31496D01*
X126378Y28740D01*
X110236D01*
X108661Y30315D01*
Y68898D01*
X100787Y76772D01*
X91732D01*
X90551Y75591D01*
X88583Y77559D01*
X90551Y79528D01*
X112205D01*
X129528Y96850D01*
X139370D01*
X146457Y89764D01*
D02*
G37*
G36*
X156299Y15294D02*
X155799Y15214D01*
X155732Y15422D01*
X154986Y16885D01*
X154021Y18214D01*
X152860Y19375D01*
X151531Y20340D01*
X150068Y21086D01*
X148506Y21594D01*
X146884Y21850D01*
X145242D01*
X143620Y21594D01*
X142058Y21086D01*
X140595Y20340D01*
X139266Y19375D01*
X138105Y18214D01*
X137140Y16885D01*
X136394Y15422D01*
X135887Y13860D01*
X135655Y12398D01*
X135155Y12437D01*
Y19984D01*
X135628Y20457D01*
X136257D01*
X136842Y20699D01*
X137289Y21146D01*
X137531Y21731D01*
Y22364D01*
X137289Y22948D01*
X136842Y23396D01*
X136257Y23638D01*
X135625D01*
X135040Y23396D01*
X134592Y22948D01*
X134350Y22364D01*
Y21734D01*
X133613Y20997D01*
X133418Y20704D01*
X133349Y20358D01*
Y9823D01*
X130735Y7210D01*
X130350Y7433D01*
X130299Y7480D01*
Y8095D01*
X130057Y8680D01*
X129875Y8862D01*
X129674Y9222D01*
X129875Y9515D01*
X130089Y9729D01*
X130331Y10313D01*
Y10946D01*
X130089Y11531D01*
X129641Y11978D01*
X129337Y12104D01*
X129404Y12618D01*
X129669Y12652D01*
X130627Y13049D01*
X131450Y13680D01*
X132081Y14503D01*
X132477Y15460D01*
X132613Y16488D01*
X132477Y17516D01*
X132081Y18474D01*
X131450Y19296D01*
X130627Y19927D01*
X129669Y20324D01*
X128642Y20459D01*
X128248D01*
X127220Y20324D01*
X126262Y19927D01*
X125440Y19296D01*
X124809Y18474D01*
X124412Y17516D01*
X124277Y16488D01*
X124412Y15460D01*
X124809Y14503D01*
X125440Y13680D01*
X126262Y13049D01*
X127220Y12652D01*
X127934Y12559D01*
X128001Y12045D01*
X127839Y11978D01*
X127392Y11531D01*
X127150Y10946D01*
Y10317D01*
X126398Y9565D01*
X107006D01*
X106672Y10065D01*
X106741Y10231D01*
Y10864D01*
X106499Y11448D01*
X106052Y11896D01*
X105467Y12138D01*
X104834D01*
X104250Y11896D01*
X103802Y11448D01*
X103560Y10864D01*
Y10231D01*
X103629Y10065D01*
X103295Y9565D01*
X83561D01*
X82278Y10848D01*
Y11478D01*
X82035Y12062D01*
X81588Y12510D01*
X81003Y12752D01*
X80371D01*
X79786Y12510D01*
X79523Y12247D01*
X78981Y12407D01*
X78923Y12702D01*
X78553Y13256D01*
X77999Y13626D01*
X77346Y13756D01*
X75181D01*
X74528Y13626D01*
X73975Y13256D01*
X73605Y12702D01*
X73475Y12049D01*
Y6735D01*
X73605Y6082D01*
X73975Y5528D01*
X74528Y5158D01*
X75181Y5029D01*
X77346D01*
X77999Y5158D01*
X78553Y5528D01*
X78923Y6082D01*
X78969Y6316D01*
X79503Y6437D01*
X79808Y6132D01*
X80176Y5979D01*
Y5438D01*
X79808Y5285D01*
X79360Y4838D01*
X79118Y4253D01*
Y3621D01*
X79360Y3036D01*
X79534Y2862D01*
X79327Y2362D01*
X42273D01*
X41991Y2862D01*
X42142Y3227D01*
Y3860D01*
X41900Y4444D01*
X41454Y4890D01*
Y12598D01*
X41386Y12944D01*
X41190Y13237D01*
X36833Y17594D01*
Y18430D01*
X37333Y18582D01*
X37448Y18410D01*
X37871Y18128D01*
X38370Y18028D01*
X39748D01*
X40247Y18128D01*
X40670Y18410D01*
X40953Y18834D01*
X41053Y19333D01*
Y29372D01*
X41004Y29616D01*
X41345Y30117D01*
X48584D01*
X48925Y29616D01*
X48877Y29372D01*
Y19333D01*
X48976Y18834D01*
X49259Y18410D01*
X49682Y18128D01*
X49926Y18079D01*
Y11994D01*
X49886Y11978D01*
X49439Y11531D01*
X49197Y10946D01*
Y10313D01*
X49439Y9729D01*
X49886Y9281D01*
X50471Y9039D01*
X51104D01*
X51688Y9281D01*
X52136Y9729D01*
X52378Y10313D01*
Y10946D01*
X52136Y11531D01*
X51732Y11935D01*
Y18063D01*
X52058Y18128D01*
X52482Y18410D01*
X52764Y18834D01*
X52864Y19333D01*
Y29372D01*
X52815Y29616D01*
X53156Y30117D01*
X54489D01*
X54831Y29616D01*
X54782Y29372D01*
Y19333D01*
X54881Y18834D01*
X55164Y18410D01*
X55587Y18128D01*
X55831Y18079D01*
Y12160D01*
X55792Y12144D01*
X55344Y11696D01*
X55102Y11112D01*
Y10479D01*
X55344Y9894D01*
X55792Y9447D01*
X56376Y9205D01*
X57009D01*
X57594Y9447D01*
X58041Y9894D01*
X58284Y10479D01*
Y11112D01*
X58041Y11696D01*
X57637Y12100D01*
Y18063D01*
X57964Y18128D01*
X58387Y18410D01*
X58670Y18834D01*
X58769Y19333D01*
Y29372D01*
X58721Y29616D01*
X59062Y30117D01*
X60395D01*
X60736Y29616D01*
X60688Y29372D01*
Y19333D01*
X60787Y18834D01*
X61070Y18410D01*
X61338Y18231D01*
X61454Y17746D01*
X61442Y17628D01*
X61250Y17436D01*
X61008Y16852D01*
Y16219D01*
X61250Y15634D01*
X61698Y15187D01*
X62282Y14945D01*
X62915D01*
X63499Y15187D01*
X63947Y15634D01*
X64118Y16049D01*
X64618Y15949D01*
Y15406D01*
X64173Y14961D01*
X63931Y14376D01*
Y13743D01*
X64173Y13159D01*
X64621Y12711D01*
X65205Y12469D01*
X65838D01*
X66423Y12711D01*
X66870Y13159D01*
X67112Y13743D01*
Y14376D01*
X66870Y14961D01*
X66425Y15406D01*
Y17181D01*
X66356Y17527D01*
X66160Y17820D01*
X64670Y19310D01*
X64675Y19333D01*
Y29372D01*
X64626Y29616D01*
X64967Y30117D01*
X66300D01*
X66642Y29616D01*
X66593Y29372D01*
Y19333D01*
X66692Y18834D01*
X66975Y18410D01*
X67398Y18128D01*
X67898Y18028D01*
X67994D01*
Y11582D01*
X67549Y11137D01*
X67307Y10553D01*
Y9920D01*
X67549Y9335D01*
X67997Y8888D01*
X68581Y8646D01*
X69214D01*
X69799Y8888D01*
X70246Y9335D01*
X70488Y9920D01*
Y10553D01*
X70246Y11137D01*
X69801Y11582D01*
Y18145D01*
X70198Y18410D01*
X70481Y18834D01*
X70580Y19333D01*
Y28364D01*
X71042Y28556D01*
X73113Y26485D01*
Y25362D01*
X72667Y24917D01*
X72425Y24332D01*
Y23699D01*
X72667Y23115D01*
X73115Y22667D01*
X73699Y22425D01*
X74332D01*
X74917Y22667D01*
X75364Y23115D01*
X75606Y23699D01*
Y24332D01*
X75364Y24917D01*
X74919Y25362D01*
Y26859D01*
X74850Y27205D01*
X74654Y27498D01*
X74654Y27498D01*
X71317Y30836D01*
X71508Y31298D01*
X74200D01*
X79314Y26184D01*
Y25554D01*
X79557Y24969D01*
X80004Y24522D01*
X80170Y24453D01*
X80288Y23863D01*
X75006Y18582D01*
X74917Y18671D01*
X74332Y18913D01*
X73699D01*
X73115Y18671D01*
X72667Y18224D01*
X72425Y17639D01*
Y17007D01*
X72667Y16422D01*
X73115Y15974D01*
X73699Y15732D01*
X74332D01*
X74917Y15974D01*
X75364Y16422D01*
X75491Y16728D01*
X75640Y16758D01*
X75933Y16954D01*
X85419Y26440D01*
X85615Y26733D01*
X85684Y27079D01*
Y32350D01*
X86184Y32502D01*
X86287Y32348D01*
X86892Y31742D01*
Y29303D01*
X86888Y29301D01*
X86440Y28854D01*
X86198Y28269D01*
Y27636D01*
X86440Y27052D01*
X86888Y26604D01*
X87472Y26362D01*
X88105D01*
X88472Y25975D01*
X88498Y25685D01*
X88109Y25295D01*
X87479D01*
X86894Y25053D01*
X86447Y24606D01*
X86205Y24021D01*
Y23388D01*
X86447Y22804D01*
X86894Y22356D01*
X87479Y22114D01*
X88112D01*
X88696Y22356D01*
X89144Y22804D01*
X89386Y23388D01*
Y24018D01*
X90320Y24952D01*
X90516Y25245D01*
X90584Y25591D01*
X90584Y25591D01*
Y31901D01*
X90516Y32246D01*
X90320Y32539D01*
X89281Y33578D01*
X89317Y33875D01*
X89831Y34068D01*
X93249Y30650D01*
X93701Y30463D01*
X95064D01*
X95271Y29963D01*
X95051Y29743D01*
X94809Y29159D01*
Y28526D01*
X95051Y27941D01*
X95498Y27494D01*
X96083Y27252D01*
X96713D01*
X110430Y13535D01*
X110723Y13339D01*
X111068Y13270D01*
X111068Y13270D01*
X117668D01*
X117975Y12963D01*
X118560Y12721D01*
X119193D01*
X119777Y12963D01*
X120224Y13410D01*
X120467Y13995D01*
Y14627D01*
X120224Y15212D01*
X119777Y15660D01*
X119193Y15902D01*
X118560D01*
X117975Y15660D01*
X117528Y15212D01*
X117472Y15076D01*
X111442D01*
X97990Y28529D01*
Y29159D01*
X97748Y29743D01*
X97528Y29963D01*
X97735Y30463D01*
X103937Y30463D01*
X104389Y30650D01*
X106358Y32619D01*
X106545Y33071D01*
X106545Y61614D01*
X106358Y62066D01*
X104192Y64231D01*
X103740Y64419D01*
X92126D01*
X91674Y64231D01*
X89668Y62226D01*
X89206Y62417D01*
Y64516D01*
X89537Y64847D01*
X89780Y65432D01*
Y66064D01*
X89560Y66593D01*
X89564Y66714D01*
X89743Y67150D01*
X89796Y67163D01*
X90769Y66190D01*
X91273Y65853D01*
X91869Y65734D01*
X92464Y65853D01*
X92968Y66190D01*
X94291Y67512D01*
X94628Y68017D01*
X94746Y68612D01*
X94628Y69208D01*
X94291Y69712D01*
X92829Y71174D01*
X92435Y71437D01*
X92550Y71937D01*
X93930D01*
X95223Y70644D01*
X95727Y70307D01*
X96323Y70189D01*
X96918Y70307D01*
X97423Y70644D01*
X98745Y71967D01*
X99082Y72471D01*
X99200Y73067D01*
X99082Y73662D01*
X98745Y74166D01*
X97283Y75628D01*
X97277Y75633D01*
X97428Y76133D01*
X100523D01*
X108022Y68633D01*
Y30315D01*
X108209Y29863D01*
X109784Y28288D01*
X110236Y28101D01*
X126378D01*
X126830Y28288D01*
X129586Y31044D01*
X129773Y31496D01*
Y57215D01*
X146909Y74351D01*
X147096Y74803D01*
Y79134D01*
X156299D01*
Y15294D01*
D02*
G37*
G36*
X127807Y6430D02*
X128392Y6188D01*
X129007D01*
X129054Y6137D01*
X129277Y5751D01*
X128366Y4840D01*
X82055D01*
X81610Y5285D01*
X81241Y5438D01*
Y5979D01*
X81610Y6132D01*
X82055Y6577D01*
X127660D01*
X127807Y6430D01*
D02*
G37*
G36*
X135887Y8974D02*
X136394Y7412D01*
X137140Y5949D01*
X138105Y4621D01*
X139266Y3459D01*
X140088Y2862D01*
X139926Y2362D01*
X82490D01*
X82232Y2862D01*
X82353Y3034D01*
X128740D01*
X129086Y3103D01*
X129379Y3298D01*
X134891Y8810D01*
X135086Y9103D01*
X135155Y9449D01*
X135155Y9449D01*
Y10398D01*
X135655Y10437D01*
X135887Y8974D01*
D02*
G37*
G36*
X21109Y41323D02*
X21742D01*
X21908Y41392D01*
X22408Y41058D01*
Y30454D01*
X22477Y30109D01*
X22672Y29816D01*
X22947Y29541D01*
Y28727D01*
X22672Y28452D01*
X22477Y28159D01*
X22408Y27813D01*
Y17094D01*
X21963Y16649D01*
X21721Y16064D01*
Y15432D01*
X21963Y14847D01*
X22410Y14400D01*
X22995Y14157D01*
X23627D01*
X23794Y14226D01*
X24294Y13892D01*
Y5677D01*
X23848Y5232D01*
X23606Y4647D01*
Y4014D01*
X23848Y3430D01*
X24296Y2982D01*
X24586Y2862D01*
X24486Y2362D01*
X17555D01*
X17392Y2862D01*
X18214Y3459D01*
X19375Y4621D01*
X20340Y5949D01*
X21086Y7412D01*
X21594Y8974D01*
X21850Y10596D01*
Y12238D01*
X21594Y13860D01*
X21086Y15422D01*
X20340Y16885D01*
X19486Y18061D01*
X19695Y18385D01*
X19794Y18488D01*
X20395D01*
X20980Y18730D01*
X21427Y19178D01*
X21669Y19762D01*
Y20395D01*
X21427Y20980D01*
X20982Y21425D01*
Y36884D01*
X20913Y37230D01*
X20717Y37523D01*
X20443Y37798D01*
Y41058D01*
X20943Y41392D01*
X21109Y41323D01*
D02*
G37*
%LPC*%
G36*
X11795Y93792D02*
X6481D01*
X5828Y93662D01*
X5274Y93292D01*
X4904Y92739D01*
X4775Y92086D01*
Y89920D01*
X4904Y89268D01*
X5274Y88714D01*
X5828Y88344D01*
X6481Y88214D01*
X11795D01*
X12448Y88344D01*
X13002Y88714D01*
X13372Y89268D01*
X13501Y89920D01*
Y92086D01*
X13372Y92739D01*
X13002Y93292D01*
X12448Y93662D01*
X11795Y93792D01*
D02*
G37*
G36*
X6222Y40567D02*
X5589D01*
X5004Y40325D01*
X4557Y39877D01*
X4315Y39293D01*
Y38660D01*
X4557Y38075D01*
X5004Y37628D01*
X5589Y37386D01*
X6034D01*
X6960Y36460D01*
X6908Y36200D01*
Y34625D01*
X7015Y34087D01*
X7319Y33632D01*
X7775Y33327D01*
X8313Y33220D01*
X10478D01*
X11016Y33327D01*
X11471Y33632D01*
X11776Y34087D01*
X11883Y34625D01*
Y36200D01*
X11776Y36737D01*
X11471Y37193D01*
X11016Y37498D01*
X10478Y37605D01*
X8370D01*
X7443Y38532D01*
X7496Y38660D01*
Y39293D01*
X7254Y39877D01*
X6807Y40325D01*
X6222Y40567D01*
D02*
G37*
G36*
X10478Y31306D02*
X8313D01*
X7775Y31199D01*
X7319Y30894D01*
X7015Y30438D01*
X6908Y29901D01*
Y28326D01*
X7015Y27788D01*
X7319Y27332D01*
X7775Y27028D01*
X8313Y26921D01*
X9306D01*
Y25335D01*
X8888Y24917D01*
X8646Y24332D01*
Y23699D01*
X8888Y23115D01*
X9335Y22667D01*
X9920Y22425D01*
X10553D01*
X11137Y22667D01*
X11585Y23115D01*
X11827Y23699D01*
Y24332D01*
X11585Y24917D01*
X11137Y25364D01*
X11113Y25374D01*
Y27093D01*
X11471Y27332D01*
X11776Y27788D01*
X11883Y28326D01*
Y29901D01*
X11776Y30438D01*
X11471Y30894D01*
X11016Y31199D01*
X10478Y31306D01*
D02*
G37*
G36*
X149529Y72457D02*
X148896D01*
X148312Y72215D01*
X147864Y71767D01*
X147622Y71183D01*
Y70550D01*
X147864Y69965D01*
X148312Y69518D01*
X148896Y69276D01*
X149529D01*
X150114Y69518D01*
X150561Y69965D01*
X150803Y70550D01*
Y71183D01*
X150561Y71767D01*
X150114Y72215D01*
X149529Y72457D01*
D02*
G37*
G36*
X104647Y68520D02*
X104014D01*
X103430Y68278D01*
X102982Y67830D01*
X102740Y67246D01*
Y66613D01*
X102982Y66028D01*
X103430Y65581D01*
X104014Y65339D01*
X104647D01*
X105232Y65581D01*
X105679Y66028D01*
X105921Y66613D01*
Y67246D01*
X105679Y67830D01*
X105232Y68278D01*
X104647Y68520D01*
D02*
G37*
G36*
X99529D02*
X98896D01*
X98312Y68278D01*
X97864Y67830D01*
X97622Y67246D01*
Y66613D01*
X97864Y66028D01*
X98312Y65581D01*
X98896Y65339D01*
X99529D01*
X100114Y65581D01*
X100561Y66028D01*
X100803Y66613D01*
Y67246D01*
X100561Y67830D01*
X100114Y68278D01*
X99529Y68520D01*
D02*
G37*
G36*
X147717Y55559D02*
X146771D01*
X145858Y55314D01*
X145039Y54842D01*
X144371Y54173D01*
X143898Y53354D01*
X143811Y53030D01*
X139618D01*
X139553Y53186D01*
X139106Y53633D01*
X138521Y53875D01*
X137888D01*
X137304Y53633D01*
X136856Y53186D01*
X136614Y52601D01*
Y51968D01*
X136856Y51384D01*
X137304Y50937D01*
X137888Y50694D01*
X138521D01*
X139106Y50937D01*
X139393Y51223D01*
X143727D01*
X143898Y50583D01*
X144371Y49764D01*
X145039Y49095D01*
X145858Y48623D01*
X146771Y48378D01*
X147717D01*
X148630Y48623D01*
X149449Y49095D01*
X150117Y49764D01*
X150590Y50583D01*
X150835Y51496D01*
Y52441D01*
X150590Y53354D01*
X150117Y54173D01*
X149449Y54842D01*
X148630Y55314D01*
X147717Y55559D01*
D02*
G37*
G36*
Y47685D02*
X146771D01*
X145858Y47440D01*
X145039Y46968D01*
X144371Y46299D01*
X143898Y45480D01*
X143769Y44998D01*
X136779D01*
X136334Y45443D01*
X135749Y45685D01*
X135117D01*
X134532Y45443D01*
X134085Y44995D01*
X133843Y44411D01*
Y43778D01*
X134085Y43194D01*
X134532Y42746D01*
X135117Y42504D01*
X135749D01*
X136334Y42746D01*
X136779Y43191D01*
X143769D01*
X143898Y42709D01*
X144371Y41890D01*
X145039Y41221D01*
X145858Y40749D01*
X146771Y40504D01*
X147717D01*
X148630Y40749D01*
X149449Y41221D01*
X150117Y41890D01*
X150590Y42709D01*
X150835Y43622D01*
Y44567D01*
X150590Y45480D01*
X150117Y46299D01*
X149449Y46968D01*
X148630Y47440D01*
X147717Y47685D01*
D02*
G37*
G36*
Y39811D02*
X146771D01*
X145858Y39566D01*
X145039Y39094D01*
X144371Y38425D01*
X143898Y37606D01*
X143769Y37124D01*
X134240D01*
X133894Y37055D01*
X133671Y36906D01*
X133387Y37024D01*
X132755D01*
X132170Y36781D01*
X131722Y36334D01*
X131480Y35750D01*
Y35117D01*
X131722Y34532D01*
X132170Y34085D01*
X132755Y33843D01*
X133387D01*
X133972Y34085D01*
X134419Y34532D01*
X134661Y35117D01*
Y35317D01*
X143769D01*
X143898Y34835D01*
X144371Y34016D01*
X145039Y33347D01*
X145858Y32875D01*
X146771Y32630D01*
X147717D01*
X148630Y32875D01*
X149449Y33347D01*
X150117Y34016D01*
X150590Y34835D01*
X150835Y35748D01*
Y36693D01*
X150590Y37606D01*
X150117Y38425D01*
X149449Y39094D01*
X148630Y39566D01*
X147717Y39811D01*
D02*
G37*
G36*
Y31937D02*
X146771D01*
X145858Y31692D01*
X145039Y31220D01*
X144371Y30551D01*
X143898Y29732D01*
X143654Y28819D01*
Y27874D01*
X143898Y26961D01*
X144371Y26142D01*
X145039Y25473D01*
X145858Y25001D01*
X146771Y24756D01*
X147717D01*
X148630Y25001D01*
X149449Y25473D01*
X150117Y26142D01*
X150590Y26961D01*
X150835Y27874D01*
Y28819D01*
X150590Y29732D01*
X150117Y30551D01*
X149449Y31220D01*
X148630Y31692D01*
X147717Y31937D01*
D02*
G37*
G36*
X111322Y22303D02*
X110690D01*
X110105Y22061D01*
X109658Y21614D01*
X109415Y21029D01*
Y20397D01*
X109658Y19812D01*
X110105Y19365D01*
X110690Y19122D01*
X111322D01*
X111907Y19365D01*
X112354Y19812D01*
X112597Y20397D01*
Y21029D01*
X112354Y21614D01*
X111907Y22061D01*
X111322Y22303D01*
D02*
G37*
G36*
X84547Y20656D02*
X84153D01*
X83126Y20521D01*
X82168Y20124D01*
X81346Y19493D01*
X80715Y18670D01*
X80318Y17713D01*
X80183Y16685D01*
X80318Y15657D01*
X80715Y14700D01*
X81346Y13877D01*
X82168Y13246D01*
X83126Y12849D01*
X84153Y12714D01*
X84547D01*
X85575Y12849D01*
X86533Y13246D01*
X87355Y13877D01*
X87986Y14700D01*
X88383Y15657D01*
X88518Y16685D01*
X88383Y17713D01*
X87986Y18670D01*
X87355Y19493D01*
X86533Y20124D01*
X85575Y20521D01*
X84547Y20656D01*
D02*
G37*
%LPD*%
D17*
X48424Y49088D02*
D03*
X52269Y45924D02*
D03*
X50929Y51593D02*
D03*
X54774Y48430D02*
D03*
D18*
X41667Y56758D02*
D03*
X37073Y61352D02*
D03*
D19*
X44965Y24353D02*
D03*
X68587D02*
D03*
X62681D02*
D03*
X50870D02*
D03*
X56776D02*
D03*
X39059D02*
D03*
D20*
X54098Y60375D02*
D03*
X66068Y80697D02*
D03*
X74420Y72345D02*
D03*
X73028Y73737D02*
D03*
X55490Y58983D02*
D03*
X56881Y57591D02*
D03*
X58274Y56199D02*
D03*
X62449Y52023D02*
D03*
X59665Y54807D02*
D03*
X61057Y53415D02*
D03*
X49922Y64551D02*
D03*
X51314Y63159D02*
D03*
X52706Y61767D02*
D03*
X77204Y69561D02*
D03*
X78596Y68169D02*
D03*
X75812Y70953D02*
D03*
X71636Y75129D02*
D03*
X70244Y76521D02*
D03*
X68852Y77913D02*
D03*
X67460Y79305D02*
D03*
D21*
X9138Y91003D02*
D03*
Y46121D02*
D03*
D22*
X24099Y71515D02*
D03*
Y77420D02*
D03*
Y59704D02*
D03*
Y65609D02*
D03*
Y83326D02*
D03*
Y53798D02*
D03*
D23*
X62449Y80697D02*
D03*
X49922Y68169D02*
D03*
X67460Y53415D02*
D03*
X78596Y64551D02*
D03*
X54098Y72345D02*
D03*
X70244Y56199D02*
D03*
X77204Y63159D02*
D03*
X74420Y60375D02*
D03*
X71636Y57591D02*
D03*
X73028Y58983D02*
D03*
X75812Y61767D02*
D03*
X61057Y79305D02*
D03*
X59665Y77913D02*
D03*
X58274Y76521D02*
D03*
X56881Y75129D02*
D03*
X55490Y73737D02*
D03*
X52706Y70953D02*
D03*
X51314Y69561D02*
D03*
X66068Y52023D02*
D03*
X68852Y54807D02*
D03*
D24*
X69291Y103248D02*
D03*
X46850Y102461D02*
D03*
X127559Y101673D02*
D03*
X69291Y113287D02*
D03*
X46850Y112500D02*
D03*
X127559Y111713D02*
D03*
D25*
X25197Y106299D02*
D03*
X92192Y105494D02*
D03*
X98819Y105118D02*
D03*
X32283Y106299D02*
D03*
X105905Y105118D02*
D03*
X85106Y105494D02*
D03*
D26*
X41934Y81002D02*
D03*
X37480Y85456D02*
D03*
D27*
X57480Y90158D02*
D03*
Y83858D02*
D03*
D28*
X107345Y95534D02*
D03*
X102891Y91080D02*
D03*
D29*
X67388Y41404D02*
D03*
X71982Y45998D02*
D03*
D30*
X83479Y81412D02*
D03*
X78608Y76540D02*
D03*
X88834Y76319D02*
D03*
X83963Y71447D02*
D03*
D31*
X46850Y119184D02*
D03*
X49409D02*
D03*
X44291D02*
D03*
X51968D02*
D03*
X69980D02*
D03*
X72539D02*
D03*
X75098D02*
D03*
X67421D02*
D03*
X128445D02*
D03*
X125886D02*
D03*
X131004D02*
D03*
X123327D02*
D03*
X51968Y132784D02*
D03*
X49409D02*
D03*
X46850D02*
D03*
X27491D02*
D03*
X30050D02*
D03*
X32609D02*
D03*
X35168D02*
D03*
X27491Y119184D02*
D03*
X30050D02*
D03*
X32609D02*
D03*
X35168D02*
D03*
X108957D02*
D03*
X111516D02*
D03*
X106398D02*
D03*
X114075D02*
D03*
Y132784D02*
D03*
X111516D02*
D03*
X108957D02*
D03*
X106398D02*
D03*
X125886D02*
D03*
X128445D02*
D03*
X131004D02*
D03*
X44291D02*
D03*
X84221D02*
D03*
X86780D02*
D03*
X89339D02*
D03*
X91898D02*
D03*
Y119184D02*
D03*
X89339D02*
D03*
X86780D02*
D03*
X84221D02*
D03*
X67421Y132784D02*
D03*
X69980D02*
D03*
X72539D02*
D03*
X75098D02*
D03*
X123327D02*
D03*
D32*
X17717Y110728D02*
D03*
X112817Y104698D02*
D03*
X17717Y117618D02*
D03*
X112817Y111588D02*
D03*
D33*
X76870Y113779D02*
D03*
X83760D02*
D03*
D34*
X17285Y29142D02*
D03*
X9395Y29113D02*
D03*
X17285Y35442D02*
D03*
X9395Y35412D02*
D03*
D35*
X31382Y9392D02*
D03*
X76264D02*
D03*
D36*
X91799Y68682D02*
D03*
X96253Y73136D02*
D03*
D59*
X64259Y66360D02*
D03*
D60*
X49606Y57087D02*
X49748Y57228D01*
X49504Y57189D02*
X49606Y57087D01*
X42520Y56693D02*
X42622Y56795D01*
X44882Y9614D02*
X44923Y9656D01*
X48424Y48915D02*
X48938D01*
X51555Y45998D02*
Y46297D01*
X145377Y59449D02*
X145771Y59842D01*
X52269Y45924D02*
X52269D01*
X33940Y54951D02*
Y55204D01*
X40563Y64961D02*
X40945D01*
X39900Y64297D02*
X40563Y64961D01*
X39888Y64297D02*
X39900D01*
X36942Y61352D02*
X39888Y64297D01*
X36942Y61352D02*
X36942D01*
X68545Y28203D02*
X68898Y27851D01*
Y10236D02*
Y27851D01*
X26800Y106664D02*
X27165Y106299D01*
X27683Y109886D02*
Y110754D01*
X26800Y109003D02*
X27683Y109886D01*
X26800Y106664D02*
Y109003D01*
X27683Y110754D02*
X27953Y111024D01*
X107465Y100000D02*
X107495Y99969D01*
X107345Y95534D02*
X107495Y95684D01*
Y99969D01*
X70472Y103150D02*
X71801Y104478D01*
X51775Y104220D02*
X57874Y110319D01*
Y110630D01*
X49003Y104220D02*
X51775D01*
X48573Y103789D02*
X49003Y104220D01*
X92142Y106076D02*
X96302Y110236D01*
X96457D01*
X92142Y105987D02*
Y106076D01*
X98819Y105971D02*
Y105971D01*
X101429Y108581D01*
Y110090D01*
X101575Y110236D01*
X79695Y65522D02*
Y66032D01*
X80792Y67128D01*
Y67510D01*
X78757Y64584D02*
X79695Y65522D01*
X78629Y64584D02*
X78757D01*
X78596Y64551D02*
X78629Y64584D01*
X71183Y39370D02*
X75590D01*
X57394Y89815D02*
Y90024D01*
X96457Y81102D02*
X98425Y83071D01*
X85331Y81102D02*
X96457D01*
X145877Y26979D02*
Y27453D01*
X144984Y28346D02*
X145877Y27453D01*
X68210Y40766D02*
X69787D01*
X71183Y39370D01*
X64779Y41646D02*
X64881Y41748D01*
X22502Y53542D02*
X22552Y53592D01*
X15978Y53286D02*
X16234Y53542D01*
X22502D01*
X25622Y105875D02*
X27165Y104331D01*
X25622Y105875D02*
X26046Y106299D01*
X27165D01*
X71801Y104478D02*
X76510D01*
X81480Y109449D01*
X54600Y87671D02*
X55250D01*
X57394Y89815D01*
X53291Y84252D02*
Y86362D01*
X54600Y87671D01*
X41934Y80354D02*
Y81002D01*
Y80354D02*
X42818Y79470D01*
Y77885D02*
X46273Y74430D01*
X42818Y77885D02*
Y79470D01*
X19539Y37424D02*
Y43694D01*
X19685Y43840D01*
Y48819D01*
X23436Y77025D02*
X28543Y77264D01*
X7480Y52362D02*
Y64961D01*
X19545Y77025D02*
X23436D01*
X7480Y64961D02*
X19545Y77025D01*
X20079Y20079D02*
Y36884D01*
X19539Y37424D02*
X20079Y36884D01*
X10236Y50394D02*
X10433Y50591D01*
Y60433D01*
X19597Y69597D01*
Y70462D02*
X20650Y71515D01*
X24099D01*
X19597Y69597D02*
Y70462D01*
X32185Y83169D02*
X37402Y77953D01*
X23425Y83169D02*
X32185D01*
X82640Y59130D02*
X83071Y58698D01*
X82640Y59130D02*
Y60610D01*
X83071Y51575D02*
Y58698D01*
X82370Y60879D02*
X82640Y60610D01*
X37402Y67716D02*
Y77953D01*
X88834Y76319D02*
X90132D01*
X88724Y76430D02*
X88834Y76319D01*
X78608Y76540D02*
X78719Y76430D01*
X34044Y17233D02*
Y24283D01*
X33914Y24413D02*
X34044Y24283D01*
X83187Y8661D02*
X126772D01*
X128740Y10630D01*
X80687Y11162D02*
X83187Y8661D01*
X34044Y17233D02*
X38189Y13088D01*
Y7874D02*
Y13088D01*
X134240Y36220D02*
X147244D01*
X133452Y35433D02*
X134240Y36220D01*
X133071Y35433D02*
X133452D01*
X31496Y18110D02*
Y27248D01*
X80709Y7480D02*
X128029D01*
X128327Y7779D02*
X128708D01*
X128029Y7480D02*
X128327Y7779D01*
X80709Y7480D02*
X80709Y7480D01*
X36220Y5512D02*
X36303Y5595D01*
X31496Y18110D02*
X36303Y13303D01*
Y5595D02*
Y13303D01*
X135433Y44094D02*
X147244D01*
X35930Y17220D02*
Y27724D01*
Y17220D02*
X40551Y12598D01*
X128740Y3937D02*
X134252Y9449D01*
X80709Y3937D02*
X128740D01*
X40551Y3543D02*
Y12598D01*
X134252Y9449D02*
Y20358D01*
X135928Y22035D01*
X147086Y52127D02*
X147244Y51968D01*
X138363Y52127D02*
X147086D01*
X138205Y52285D02*
X138363Y52127D01*
X43064Y70472D02*
X49357Y64180D01*
X49551D01*
X40779Y70472D02*
X43064D01*
X49551Y64180D02*
X49922Y64551D01*
X30693Y38992D02*
Y56709D01*
X27854Y59547D02*
X30693Y56709D01*
Y61039D02*
X31874Y59858D01*
Y39779D02*
Y59858D01*
X29771Y61968D02*
X30693Y61045D01*
X29765Y61968D02*
X29771D01*
X28828Y62904D02*
X29765Y61968D01*
X30693Y61039D02*
Y61045D01*
X28828Y62904D02*
Y64557D01*
X31874Y39779D02*
X39453Y32201D01*
X28818Y38414D02*
Y38521D01*
X25197Y34793D02*
X28818Y38414D01*
X23425Y65453D02*
X27932D01*
X28828Y64557D01*
X44277Y60307D02*
X46068Y58516D01*
X47761D01*
X48218Y58972D01*
X49912D01*
X52706Y61767D01*
X23311Y30454D02*
X23850Y29915D01*
Y28353D02*
Y29915D01*
X23311Y30454D02*
Y47327D01*
X25591Y49606D01*
X25197Y4331D02*
Y34793D01*
X27083Y31852D02*
X30168Y34937D01*
X27083Y11811D02*
Y31852D01*
X23311Y15748D02*
Y27813D01*
X23850Y28353D01*
X33235Y40387D02*
X40240Y33382D01*
X33235Y40387D02*
Y51256D01*
X35121Y42913D02*
X36696Y41339D01*
X53808D01*
X58268Y45799D01*
X38665Y31020D02*
X69855D01*
X30693Y38992D02*
X38665Y31020D01*
X39453Y32201D02*
X74575D01*
X40240Y33382D02*
X80506D01*
X65522Y14060D02*
Y17181D01*
X62681Y20086D02*
X63521Y19246D01*
Y19182D02*
X65522Y17181D01*
X63521Y19182D02*
Y19246D01*
X62681Y20086D02*
Y24353D01*
X78785Y68169D02*
X80011Y69396D01*
X78596Y68169D02*
X78785D01*
X82534Y69396D02*
X83548Y68382D01*
X80011Y69396D02*
X82534D01*
X44277Y60307D02*
Y60434D01*
X83901Y62375D02*
X84319Y61957D01*
X46345Y64725D02*
X48457Y62613D01*
X43859Y64725D02*
X46345D01*
X83548Y68382D02*
X89691D01*
X80641Y57363D02*
X80709Y57296D01*
X82282Y63468D02*
X82663D01*
X83757Y62375D02*
X83901D01*
X82663Y63468D02*
X83757Y62375D01*
X80709Y49695D02*
Y57296D01*
X48457Y62613D02*
X49850D01*
X39215Y48885D02*
X44399Y43701D01*
X42913Y42520D02*
X53319D01*
X44399Y43701D02*
X52829D01*
X53319Y42520D02*
X56967Y46168D01*
X52829Y43701D02*
X54462Y45333D01*
X38976Y46457D02*
X42913Y42520D01*
X50929Y54422D02*
X55490Y58983D01*
X50929Y51593D02*
Y54422D01*
X44580D02*
X50929D01*
X41339Y51181D02*
X44580Y54422D01*
X16142Y23705D02*
X17717Y22130D01*
X16142Y27999D02*
X17285Y29142D01*
X16142Y23705D02*
Y27999D01*
X56881Y57396D02*
Y57591D01*
X53543Y54058D02*
X56881Y57396D01*
X53543Y49661D02*
Y54058D01*
X54774Y47531D02*
Y48430D01*
X54462Y47218D02*
X54774Y47531D01*
X53543Y49661D02*
X54774Y48430D01*
X54462Y45333D02*
Y47218D01*
X36132Y45665D02*
Y46292D01*
X35863Y45395D02*
X36132Y45665D01*
X38726Y48885D02*
X39215D01*
X36132Y46292D02*
X38726Y48885D01*
X56967Y55100D02*
X57480Y55613D01*
X56967Y46168D02*
Y55100D01*
X76990Y46239D02*
Y49453D01*
Y46239D02*
X77165Y46063D01*
X70244Y56199D02*
X76990Y49453D01*
X77036Y63159D02*
X77204D01*
X76101Y64093D02*
X77036Y63159D01*
X75216Y64093D02*
X76101D01*
X73146Y57087D02*
X75590Y54642D01*
X73203Y62081D02*
X75216Y64093D01*
X73203Y61592D02*
X74420Y60375D01*
X73203Y61592D02*
Y62081D01*
X72714Y61592D02*
X73203D01*
X72339Y57087D02*
X73146D01*
X70514Y59392D02*
X72714Y61592D01*
X70531Y58696D02*
X71636Y57591D01*
X70531Y58696D02*
Y58696D01*
X70514Y58713D02*
X70531Y58696D01*
X70514Y58713D02*
Y59392D01*
X73673Y58217D02*
X74683D01*
X78171Y54729D01*
Y48893D02*
Y54729D01*
Y48893D02*
X79051Y48012D01*
X78744Y43636D02*
X79014Y43906D01*
X79051Y45282D02*
Y48012D01*
X79014Y45244D02*
X79051Y45282D01*
X79014Y43906D02*
Y45244D01*
X60630Y41732D02*
Y50204D01*
X62449Y52023D01*
X80709Y49695D02*
X82595Y47809D01*
X65354Y37008D02*
X73228D01*
X60630Y41732D02*
X65354Y37008D01*
X82595Y37116D02*
X82690Y37020D01*
X82595Y37116D02*
Y47809D01*
X74575Y32201D02*
X80905Y25870D01*
X58268Y53645D02*
X59055Y54432D01*
X58268Y45799D02*
Y53645D01*
X89681Y25591D02*
Y31901D01*
X87795Y23705D02*
X89681Y25591D01*
X88303Y33279D02*
X89681Y31901D01*
X88303Y33279D02*
Y65634D01*
X88189Y65748D02*
X88303Y65634D01*
X76276Y61024D02*
X78513Y58787D01*
Y56056D02*
X79528Y55042D01*
Y49206D02*
Y55042D01*
X78513Y56056D02*
Y58787D01*
X79528Y49206D02*
X80630Y48104D01*
Y40236D02*
X80709Y40157D01*
X80630Y40236D02*
Y48104D01*
X59449Y41243D02*
Y51806D01*
Y41243D02*
X66129Y34563D01*
X59449Y51806D02*
X61057Y53415D01*
X78623Y34563D02*
X79035Y34974D01*
X66129Y34563D02*
X78623D01*
X80535Y34974D02*
X80804Y35244D01*
X79035Y34974D02*
X80535D01*
X23425Y59547D02*
X27854D01*
X69855Y31020D02*
X74016Y26859D01*
Y24016D02*
Y26859D01*
X50787Y10630D02*
X50829Y10671D01*
Y28597D01*
X56693Y10795D02*
X56734Y10837D01*
Y28203D01*
X74285Y17593D02*
X75294D01*
X74016Y17323D02*
X74285Y17593D01*
X84646Y37486D02*
X84781Y37351D01*
X84646Y37486D02*
Y45276D01*
X84781Y27079D02*
Y37351D01*
X75294Y17593D02*
X84781Y27079D01*
X86166Y64130D02*
X86205Y64091D01*
Y54556D02*
Y64091D01*
X10209Y24043D02*
X10236Y24016D01*
X10209Y24043D02*
Y27871D01*
X8747Y29333D02*
X10209Y27871D01*
X8608Y29333D02*
X8747D01*
X80506Y33382D02*
X82284Y31605D01*
Y31496D02*
Y31605D01*
X84319Y52994D02*
Y61957D01*
Y52994D02*
X86925Y50387D01*
Y32986D02*
Y50387D01*
X87789Y27953D02*
X87795Y27959D01*
Y32116D01*
X33235Y51256D02*
X35074Y53095D01*
X40550Y70701D02*
X40779Y70472D01*
X5906Y38792D02*
Y38976D01*
Y38792D02*
X9285Y35412D01*
X16498Y35705D02*
X16929Y36137D01*
Y39520D01*
X35074Y53095D02*
X36307D01*
X36577Y53365D01*
X49866Y62630D02*
X50590D01*
X49850Y62613D02*
X49866Y62630D01*
X50590D02*
X51119Y63159D01*
X51314D01*
X96399Y28842D02*
X111068Y14173D01*
X118898D01*
X89691Y68382D02*
X89991Y68682D01*
X91799D01*
X86925Y32986D02*
X87795Y32116D01*
X9285Y35412D02*
X9395D01*
D61*
X27165Y104331D02*
Y106299D01*
Y97909D02*
Y104331D01*
X32661Y85053D02*
X38787Y78927D01*
X62449Y80559D02*
X78347Y96457D01*
X62449Y80559D02*
Y80697D01*
X32661Y85053D02*
Y92413D01*
X68513Y48434D02*
Y52362D01*
X67460Y53415D02*
Y53415D01*
Y53415D02*
X68513Y52362D01*
X65744Y45665D02*
X68513Y48434D01*
X65744Y44837D02*
Y45665D01*
X67388Y41404D02*
Y43193D01*
X65744Y44837D02*
X67388Y43193D01*
X27165Y97909D02*
X32661Y92413D01*
X92192Y104397D02*
Y105494D01*
X78347Y96457D02*
X84252D01*
X92192Y104397D01*
X46893Y68604D02*
X49393D01*
X38787Y76709D02*
Y78927D01*
Y76709D02*
X46893Y68604D01*
X46850Y112500D02*
X47951D01*
X46470Y71276D02*
X49600D01*
X40378Y77368D02*
Y79586D01*
Y77368D02*
X46470Y71276D01*
X44204Y79455D02*
Y81444D01*
Y79455D02*
X52224Y71435D01*
X45794Y80648D02*
Y82103D01*
X50647Y75796D02*
Y75796D01*
X45794Y80648D02*
X50647Y75796D01*
Y75796D02*
X54098Y72345D01*
X38205Y88742D02*
Y146453D01*
X39665Y83272D02*
X42376D01*
X44204Y81444D01*
X42085Y84862D02*
X43035D01*
X45794Y82103D01*
X38205Y88742D02*
X42085Y84862D01*
X82099Y103559D02*
X83295D01*
X59882Y81343D02*
X82099Y103559D01*
X83295D02*
X85106Y105370D01*
Y105494D01*
X38205Y146453D02*
X40267Y148515D01*
X79997Y71725D02*
X82807D01*
X78267Y69996D02*
X79997Y71725D01*
X77204Y69561D02*
X77638Y69996D01*
X82807Y71725D02*
X83085Y71447D01*
X77638Y69996D02*
X78267D01*
X83085Y71447D02*
X85127D01*
X34252Y85712D02*
X40378Y79586D01*
X35168Y116584D02*
X36614Y115139D01*
Y86755D02*
X37660Y85708D01*
Y85636D02*
Y85708D01*
X36614Y86755D02*
Y115139D01*
X34252Y85712D02*
Y105117D01*
X32509Y106860D02*
X34252Y105117D01*
X49600Y71276D02*
X51314Y69561D01*
X61057Y79305D02*
Y79339D01*
X59882Y80514D02*
Y81343D01*
Y80514D02*
X61057Y79339D01*
X86729Y73049D02*
X96166D01*
X96253Y73136D01*
X37480Y85456D02*
X39665Y83272D01*
X35168Y116584D02*
Y119184D01*
X68852Y54807D02*
X70472Y53187D01*
Y49818D02*
Y53187D01*
Y49818D02*
X73112Y47179D01*
X73163D01*
X75812Y70953D02*
X77204Y69561D01*
X85127Y71447D02*
X86729Y73049D01*
D62*
X66068Y80697D02*
X80647Y95276D01*
X97412Y103711D02*
X98819Y105118D01*
X97412Y102136D02*
Y103711D01*
X80647Y95276D02*
X90551D01*
X97412Y102136D01*
X87503Y76430D02*
X88724D01*
X86162Y77772D02*
X87503Y76430D01*
X81616Y77772D02*
X86162D01*
X80181Y76337D02*
X81616Y77772D01*
X78811Y76337D02*
X80181D01*
X78719Y76430D02*
X78811Y76337D01*
X42781Y86543D02*
X43732D01*
X47476Y82799D01*
X40849Y88475D02*
X42781Y86543D01*
X47476Y81849D02*
Y82799D01*
Y81849D02*
X49339Y79986D01*
X49339D01*
X40849Y88475D02*
Y131985D01*
X49339Y79986D02*
X55490Y73835D01*
X51110Y81123D02*
X56575Y75658D01*
X51110Y81123D02*
Y86937D01*
X55472Y91487D02*
X56406Y92421D01*
X55472Y91299D02*
Y91487D01*
X60630Y96457D02*
Y130315D01*
X51110Y86937D02*
X55472Y91299D01*
X56406Y92421D02*
X56595D01*
X60630Y96457D01*
X62402Y91741D02*
Y128639D01*
X64078Y130315D01*
X64173Y90551D02*
Y106693D01*
X57480Y83858D02*
X64173Y90551D01*
X56783Y86122D02*
X62402Y91741D01*
X64173Y106693D02*
X65354Y107874D01*
X60630Y130315D02*
X62992Y132677D01*
X65354Y107874D02*
X75984D01*
X64078Y130315D02*
X69288D01*
X55490Y73737D02*
Y73835D01*
X109556Y90945D02*
X116535Y97924D01*
X118504Y97387D02*
Y135433D01*
X83121Y86614D02*
X110236D01*
X116535Y97924D02*
Y116724D01*
X82284Y88583D02*
X109699D01*
X110236Y86614D02*
X120768Y97146D01*
Y131791D01*
X109699Y88583D02*
X118504Y97387D01*
X103722Y90945D02*
X109556D01*
X103711Y102924D02*
X104179D01*
X105905Y104650D01*
X93701Y92913D02*
X103711Y102924D01*
X105905Y104650D02*
Y105118D01*
X81069Y92913D02*
X93701D01*
X75984Y107874D02*
X80709Y112598D01*
Y119781D01*
X120768Y131791D02*
X121692Y132716D01*
X123267D02*
X123327Y132775D01*
Y132784D01*
X121692Y132716D02*
X123267D01*
X78740Y139435D02*
Y147539D01*
X73740Y134435D02*
X78740Y139435D01*
Y136876D02*
Y139435D01*
X40849Y131985D02*
X41541Y132677D01*
X44232D01*
X44291Y132737D02*
Y132784D01*
X44232Y132677D02*
X44291Y132737D01*
X67460Y79305D02*
X81069Y92913D01*
X114075Y119184D02*
X116535Y116724D01*
X103406Y91261D02*
X103722Y90945D01*
X103072Y91261D02*
X103406D01*
X102710Y90899D02*
X103072Y91261D01*
X102330Y90945D02*
X102376Y90899D01*
X81884Y90945D02*
X102330D01*
X102376Y90899D02*
X102710D01*
X68852Y77913D02*
X81884Y90945D01*
X75219Y81496D02*
Y81518D01*
X82284Y88583D01*
X70244Y76521D02*
X75219Y81496D01*
X75098Y132784D02*
Y133234D01*
X78740Y136876D01*
X72539Y132784D02*
Y133234D01*
X73740Y134435D01*
Y136994D01*
X69980Y132784D02*
Y133234D01*
X73740Y136994D01*
X62992Y132677D02*
X67362D01*
X67421Y132737D01*
Y132784D01*
X69288Y130315D02*
X69980Y131007D01*
Y132784D01*
X55472Y79322D02*
Y85188D01*
X56406Y86122D01*
X56783D01*
X57480Y80321D02*
Y83858D01*
X55472Y79322D02*
X58274Y76521D01*
X57480Y80321D02*
X59665Y78136D01*
Y77913D02*
Y78136D01*
X71636Y75129D02*
X83121Y86614D01*
X80709Y119781D02*
X82393Y121465D01*
X90288D01*
X91839Y119244D02*
X91898Y119184D01*
X90288Y121465D02*
X91839Y119915D01*
Y119244D02*
Y119915D01*
D63*
X147244Y59842D02*
D03*
D64*
X96457Y55709D02*
D03*
X116142D02*
D03*
D65*
X147244Y28346D02*
D03*
Y36220D02*
D03*
Y44094D02*
D03*
Y51968D02*
D03*
D66*
X78740Y147638D02*
D03*
X39370D02*
D03*
X118110D02*
D03*
D67*
X128445Y16488D02*
D03*
X84350Y16685D02*
D03*
D68*
X146063Y146063D02*
D03*
Y11417D02*
D03*
X11417D02*
D03*
Y146063D02*
D03*
D69*
X28346Y46850D02*
D03*
X49606Y57087D02*
D03*
X21965Y29134D02*
D03*
X11417Y74016D02*
D03*
X10492Y81102D02*
D03*
X13386Y58268D02*
D03*
X53937Y16142D02*
D03*
X44882Y9614D02*
D03*
X33940Y54951D02*
D03*
X62598Y16535D02*
D03*
X40945Y64961D02*
D03*
X51575Y38976D02*
D03*
X44094D02*
D03*
X48031Y35827D02*
D03*
X55512D02*
D03*
X68898Y10236D02*
D03*
X27953Y111024D02*
D03*
X28600Y113639D02*
D03*
X25591Y113386D02*
D03*
Y110630D02*
D03*
X107465Y100000D02*
D03*
X57874Y110630D02*
D03*
X92126Y110236D02*
D03*
X94882Y113386D02*
D03*
X96457Y110236D02*
D03*
X96850Y116142D02*
D03*
X99213Y113386D02*
D03*
X101575Y116142D02*
D03*
Y110236D02*
D03*
X80792Y67510D02*
D03*
X61316Y60975D02*
D03*
X46867Y60401D02*
D03*
X105151Y10547D02*
D03*
X75590Y39370D02*
D03*
X21425Y42913D02*
D03*
X149213Y70866D02*
D03*
X98425Y83071D02*
D03*
X104331Y66929D02*
D03*
Y61417D02*
D03*
Y55512D02*
D03*
X111006Y20713D02*
D03*
X99213Y66929D02*
D03*
X103150Y50000D02*
D03*
X96063Y45276D02*
D03*
X92520Y47244D02*
D03*
X92913Y42520D02*
D03*
X95669Y38189D02*
D03*
X15978Y53286D02*
D03*
X147638Y125984D02*
D03*
X149213Y128740D02*
D03*
Y123622D02*
D03*
X151181Y125984D02*
D03*
X148425Y110630D02*
D03*
X150000Y113386D02*
D03*
Y108268D02*
D03*
X151969Y110630D02*
D03*
X53291Y84252D02*
D03*
X66535Y93701D02*
D03*
X81480Y109449D02*
D03*
X46273Y74430D02*
D03*
X19685Y48819D02*
D03*
X7480Y52362D02*
D03*
X20079Y20079D02*
D03*
X10236Y50394D02*
D03*
X83071Y51575D02*
D03*
X82370Y60879D02*
D03*
X37402Y67716D02*
D03*
X122990Y124469D02*
D03*
X125984Y124409D02*
D03*
X124409Y122047D02*
D03*
Y127165D02*
D03*
X127559D02*
D03*
Y122047D02*
D03*
X129134Y124409D02*
D03*
X130709Y127165D02*
D03*
Y122047D02*
D03*
X132677Y124409D02*
D03*
X66691Y124469D02*
D03*
X69685Y124409D02*
D03*
X68110Y122047D02*
D03*
Y127165D02*
D03*
X71260D02*
D03*
Y122047D02*
D03*
X72835Y124409D02*
D03*
X74409Y127165D02*
D03*
Y122047D02*
D03*
X76378Y124409D02*
D03*
X54331D02*
D03*
X52362Y122047D02*
D03*
Y127165D02*
D03*
X50787Y124409D02*
D03*
X49213Y122047D02*
D03*
Y127165D02*
D03*
X46063D02*
D03*
Y122047D02*
D03*
X47638Y124409D02*
D03*
X115354Y66142D02*
D03*
X121260Y38583D02*
D03*
X124409Y36614D02*
D03*
X121260Y34252D02*
D03*
X124409Y40551D02*
D03*
X44643Y124469D02*
D03*
X112205Y99606D02*
D03*
X124409Y48031D02*
D03*
X121260Y46063D02*
D03*
X124409Y44488D02*
D03*
X121260Y42126D02*
D03*
X135039Y114961D02*
D03*
Y110236D02*
D03*
X8661Y120866D02*
D03*
Y124803D02*
D03*
X12205Y127559D02*
D03*
Y122835D02*
D03*
X132677Y84646D02*
D03*
X130709Y82284D02*
D03*
Y87402D02*
D03*
X129134Y84646D02*
D03*
X127559Y82284D02*
D03*
Y87402D02*
D03*
X124409D02*
D03*
Y82284D02*
D03*
X125984Y84646D02*
D03*
X122990Y84705D02*
D03*
X136614Y87402D02*
D03*
Y82284D02*
D03*
X138189Y84646D02*
D03*
X139764Y87402D02*
D03*
Y82284D02*
D03*
X139764Y90158D02*
D03*
X130709D02*
D03*
X133858D02*
D03*
X33914Y24413D02*
D03*
X128740Y10630D02*
D03*
X38189Y7874D02*
D03*
X80687Y11162D02*
D03*
X133071Y35433D02*
D03*
X31496Y27248D02*
D03*
X128708Y7779D02*
D03*
X80709Y7480D02*
D03*
X36220Y5512D02*
D03*
X135433Y44094D02*
D03*
X35930Y27724D02*
D03*
X80709Y3937D02*
D03*
X40551Y3543D02*
D03*
X135941Y22047D02*
D03*
X138205Y52285D02*
D03*
X28818Y38521D02*
D03*
X30168Y34937D02*
D03*
X65522Y14060D02*
D03*
X40550Y70701D02*
D03*
X44277Y60434D02*
D03*
X43859Y64725D02*
D03*
X80641Y57363D02*
D03*
X82282Y63468D02*
D03*
X41339Y51181D02*
D03*
X25591Y49606D02*
D03*
X23311Y15748D02*
D03*
X17717Y22130D02*
D03*
X35863Y45395D02*
D03*
X38976Y46457D02*
D03*
X77165Y46063D02*
D03*
X75590Y54642D02*
D03*
X27083Y11811D02*
D03*
X78744Y43636D02*
D03*
X73228Y37008D02*
D03*
X82690Y37020D02*
D03*
X80905Y25870D02*
D03*
X35121Y42913D02*
D03*
X87795Y23705D02*
D03*
X88189Y65748D02*
D03*
X80709Y40157D02*
D03*
X80804Y35244D02*
D03*
X74016Y24016D02*
D03*
X25197Y4331D02*
D03*
X50787Y10630D02*
D03*
X56693Y10795D02*
D03*
X84646Y45276D02*
D03*
X74016Y17323D02*
D03*
X86166Y64130D02*
D03*
X86205Y54556D02*
D03*
X10236Y24016D02*
D03*
X82284Y31496D02*
D03*
X87789Y27953D02*
D03*
X5906Y38976D02*
D03*
X16929Y39520D02*
D03*
X118876Y14311D02*
D03*
X96399Y28842D02*
D03*
X36577Y53365D02*
D03*
M02*
