G04*
G04 #@! TF.GenerationSoftware,Altium Limited,Altium Designer,26.6.0 (10)*
G04*
G04 Layer_Color=128*
G04 Board_Origin=0|0*
%FSLAX25Y25*%
%MOIN*%
G70*
G04*
G04 #@! TF.SameCoordinates,F0087062-FDAB-4064-A27D-614F93A241B0*
G04*
G04*
G04 #@! TF.FilePolarity,Positive*
G04*
G01*
G75*
G04:AMPARAMS|DCode=24|XSize=74.8mil|YSize=64.96mil|CornerRadius=16.24mil|HoleSize=0mil|Usage=FLASHONLY|Rotation=0.000|XOffset=0mil|YOffset=0mil|HoleType=Round|Shape=RoundedRectangle|*
%AMROUNDEDRECTD24*
21,1,0.07480,0.03248,0,0,0.0*
21,1,0.04232,0.06496,0,0,0.0*
1,1,0.03248,0.02116,-0.01624*
1,1,0.03248,-0.02116,-0.01624*
1,1,0.03248,-0.02116,0.01624*
1,1,0.03248,0.02116,0.01624*
%
%ADD24ROUNDEDRECTD24*%
G04:AMPARAMS|DCode=32|XSize=39.37mil|YSize=31.5mil|CornerRadius=7.87mil|HoleSize=0mil|Usage=FLASHONLY|Rotation=0.000|XOffset=0mil|YOffset=0mil|HoleType=Round|Shape=RoundedRectangle|*
%AMROUNDEDRECTD32*
21,1,0.03937,0.01575,0,0,0.0*
21,1,0.02362,0.03150,0,0,0.0*
1,1,0.01575,0.01181,-0.00787*
1,1,0.01575,-0.01181,-0.00787*
1,1,0.01575,-0.01181,0.00787*
1,1,0.01575,0.01181,0.00787*
%
%ADD32ROUNDEDRECTD32*%
G04:AMPARAMS|DCode=77|XSize=141.73mil|YSize=81.69mil|CornerRadius=10.21mil|HoleSize=0mil|Usage=FLASHONLY|Rotation=90.000|XOffset=0mil|YOffset=0mil|HoleType=Round|Shape=RoundedRectangle|*
%AMROUNDEDRECTD77*
21,1,0.14173,0.06127,0,0,90.0*
21,1,0.12131,0.08169,0,0,90.0*
1,1,0.02042,0.03064,0.06066*
1,1,0.02042,0.03064,-0.06066*
1,1,0.02042,-0.03064,-0.06066*
1,1,0.02042,-0.03064,0.06066*
%
%ADD77ROUNDEDRECTD77*%
G04:AMPARAMS|DCode=78|XSize=11.81mil|YSize=11.81mil|CornerRadius=2.95mil|HoleSize=0mil|Usage=FLASHONLY|Rotation=270.000|XOffset=0mil|YOffset=0mil|HoleType=Round|Shape=RoundedRectangle|*
%AMROUNDEDRECTD78*
21,1,0.01181,0.00591,0,0,270.0*
21,1,0.00591,0.01181,0,0,270.0*
1,1,0.00591,-0.00295,-0.00295*
1,1,0.00591,-0.00295,0.00295*
1,1,0.00591,0.00295,0.00295*
1,1,0.00591,0.00295,-0.00295*
%
%ADD78ROUNDEDRECTD78*%
G04:AMPARAMS|DCode=79|XSize=21.65mil|YSize=11.81mil|CornerRadius=2.95mil|HoleSize=0mil|Usage=FLASHONLY|Rotation=225.000|XOffset=0mil|YOffset=0mil|HoleType=Round|Shape=RoundedRectangle|*
%AMROUNDEDRECTD79*
21,1,0.02165,0.00591,0,0,225.0*
21,1,0.01575,0.01181,0,0,225.0*
1,1,0.00591,-0.00766,-0.00348*
1,1,0.00591,0.00348,0.00766*
1,1,0.00591,0.00766,0.00348*
1,1,0.00591,-0.00348,-0.00766*
%
%ADD79ROUNDEDRECTD79*%
G04:AMPARAMS|DCode=80|XSize=21.65mil|YSize=11.81mil|CornerRadius=2.95mil|HoleSize=0mil|Usage=FLASHONLY|Rotation=135.000|XOffset=0mil|YOffset=0mil|HoleType=Round|Shape=RoundedRectangle|*
%AMROUNDEDRECTD80*
21,1,0.02165,0.00591,0,0,135.0*
21,1,0.01575,0.01181,0,0,135.0*
1,1,0.00591,-0.00348,0.00766*
1,1,0.00591,0.00766,-0.00348*
1,1,0.00591,0.00348,-0.00766*
1,1,0.00591,-0.00766,0.00348*
%
%ADD80ROUNDEDRECTD80*%
G04:AMPARAMS|DCode=81|XSize=30.32mil|YSize=21.65mil|CornerRadius=5.41mil|HoleSize=0mil|Usage=FLASHONLY|Rotation=90.000|XOffset=0mil|YOffset=0mil|HoleType=Round|Shape=RoundedRectangle|*
%AMROUNDEDRECTD81*
21,1,0.03032,0.01083,0,0,90.0*
21,1,0.01949,0.02165,0,0,90.0*
1,1,0.01083,0.00541,0.00974*
1,1,0.01083,0.00541,-0.00974*
1,1,0.01083,-0.00541,-0.00974*
1,1,0.01083,-0.00541,0.00974*
%
%ADD81ROUNDEDRECTD81*%
G04:AMPARAMS|DCode=82|XSize=59.06mil|YSize=25.59mil|CornerRadius=6.4mil|HoleSize=0mil|Usage=FLASHONLY|Rotation=180.000|XOffset=0mil|YOffset=0mil|HoleType=Round|Shape=RoundedRectangle|*
%AMROUNDEDRECTD82*
21,1,0.05906,0.01280,0,0,180.0*
21,1,0.04626,0.02559,0,0,180.0*
1,1,0.01280,-0.02313,0.00640*
1,1,0.01280,0.02313,0.00640*
1,1,0.01280,0.02313,-0.00640*
1,1,0.01280,-0.02313,-0.00640*
%
%ADD82ROUNDEDRECTD82*%
G04:AMPARAMS|DCode=83|XSize=35.43mil|YSize=33.47mil|CornerRadius=8.37mil|HoleSize=0mil|Usage=FLASHONLY|Rotation=90.000|XOffset=0mil|YOffset=0mil|HoleType=Round|Shape=RoundedRectangle|*
%AMROUNDEDRECTD83*
21,1,0.03543,0.01673,0,0,90.0*
21,1,0.01870,0.03347,0,0,90.0*
1,1,0.01673,0.00837,0.00935*
1,1,0.01673,0.00837,-0.00935*
1,1,0.01673,-0.00837,-0.00935*
1,1,0.01673,-0.00837,0.00935*
%
%ADD83ROUNDEDRECTD83*%
G04:AMPARAMS|DCode=84|XSize=21.65mil|YSize=21.65mil|CornerRadius=5.41mil|HoleSize=0mil|Usage=FLASHONLY|Rotation=180.000|XOffset=0mil|YOffset=0mil|HoleType=Round|Shape=RoundedRectangle|*
%AMROUNDEDRECTD84*
21,1,0.02165,0.01083,0,0,180.0*
21,1,0.01083,0.02165,0,0,180.0*
1,1,0.01083,-0.00541,0.00541*
1,1,0.01083,0.00541,0.00541*
1,1,0.01083,0.00541,-0.00541*
1,1,0.01083,-0.00541,-0.00541*
%
%ADD84ROUNDEDRECTD84*%
G04:AMPARAMS|DCode=85|XSize=25.59mil|YSize=9.84mil|CornerRadius=2.46mil|HoleSize=0mil|Usage=FLASHONLY|Rotation=270.000|XOffset=0mil|YOffset=0mil|HoleType=Round|Shape=RoundedRectangle|*
%AMROUNDEDRECTD85*
21,1,0.02559,0.00492,0,0,270.0*
21,1,0.02067,0.00984,0,0,270.0*
1,1,0.00492,-0.00246,-0.01034*
1,1,0.00492,-0.00246,0.01034*
1,1,0.00492,0.00246,0.01034*
1,1,0.00492,0.00246,-0.01034*
%
%ADD85ROUNDEDRECTD85*%
G04:AMPARAMS|DCode=86|XSize=11.81mil|YSize=11.81mil|CornerRadius=2.95mil|HoleSize=0mil|Usage=FLASHONLY|Rotation=180.000|XOffset=0mil|YOffset=0mil|HoleType=Round|Shape=RoundedRectangle|*
%AMROUNDEDRECTD86*
21,1,0.01181,0.00591,0,0,180.0*
21,1,0.00591,0.01181,0,0,180.0*
1,1,0.00591,-0.00295,0.00295*
1,1,0.00591,0.00295,0.00295*
1,1,0.00591,0.00295,-0.00295*
1,1,0.00591,-0.00295,-0.00295*
%
%ADD86ROUNDEDRECTD86*%
G04:AMPARAMS|DCode=87|XSize=30.32mil|YSize=21.65mil|CornerRadius=5.41mil|HoleSize=0mil|Usage=FLASHONLY|Rotation=0.000|XOffset=0mil|YOffset=0mil|HoleType=Round|Shape=RoundedRectangle|*
%AMROUNDEDRECTD87*
21,1,0.03032,0.01083,0,0,0.0*
21,1,0.01949,0.02165,0,0,0.0*
1,1,0.01083,0.00974,-0.00541*
1,1,0.01083,-0.00974,-0.00541*
1,1,0.01083,-0.00974,0.00541*
1,1,0.01083,0.00974,0.00541*
%
%ADD87ROUNDEDRECTD87*%
G04:AMPARAMS|DCode=88|XSize=57.09mil|YSize=29.53mil|CornerRadius=7.38mil|HoleSize=0mil|Usage=FLASHONLY|Rotation=180.000|XOffset=0mil|YOffset=0mil|HoleType=Round|Shape=RoundedRectangle|*
%AMROUNDEDRECTD88*
21,1,0.05709,0.01476,0,0,180.0*
21,1,0.04232,0.02953,0,0,180.0*
1,1,0.01476,-0.02116,0.00738*
1,1,0.01476,0.02116,0.00738*
1,1,0.01476,0.02116,-0.00738*
1,1,0.01476,-0.02116,-0.00738*
%
%ADD88ROUNDEDRECTD88*%
G04:AMPARAMS|DCode=89|XSize=74.8mil|YSize=64.96mil|CornerRadius=16.24mil|HoleSize=0mil|Usage=FLASHONLY|Rotation=270.000|XOffset=0mil|YOffset=0mil|HoleType=Round|Shape=RoundedRectangle|*
%AMROUNDEDRECTD89*
21,1,0.07480,0.03248,0,0,270.0*
21,1,0.04232,0.06496,0,0,270.0*
1,1,0.03248,-0.01624,-0.02116*
1,1,0.03248,-0.01624,0.02116*
1,1,0.03248,0.01624,0.02116*
1,1,0.03248,0.01624,-0.02116*
%
%ADD89ROUNDEDRECTD89*%
G04:AMPARAMS|DCode=90|XSize=84.65mil|YSize=96.46mil|CornerRadius=21.16mil|HoleSize=0mil|Usage=FLASHONLY|Rotation=180.000|XOffset=0mil|YOffset=0mil|HoleType=Round|Shape=RoundedRectangle|*
%AMROUNDEDRECTD90*
21,1,0.08465,0.05413,0,0,180.0*
21,1,0.04232,0.09646,0,0,180.0*
1,1,0.04232,-0.02116,0.02707*
1,1,0.04232,0.02116,0.02707*
1,1,0.04232,0.02116,-0.02707*
1,1,0.04232,-0.02116,-0.02707*
%
%ADD90ROUNDEDRECTD90*%
G04:AMPARAMS|DCode=91|XSize=57.09mil|YSize=53.15mil|CornerRadius=13.29mil|HoleSize=0mil|Usage=FLASHONLY|Rotation=90.000|XOffset=0mil|YOffset=0mil|HoleType=Round|Shape=RoundedRectangle|*
%AMROUNDEDRECTD91*
21,1,0.05709,0.02657,0,0,90.0*
21,1,0.03051,0.05315,0,0,90.0*
1,1,0.02657,0.01329,0.01526*
1,1,0.02657,0.01329,-0.01526*
1,1,0.02657,-0.01329,-0.01526*
1,1,0.02657,-0.01329,0.01526*
%
%ADD91ROUNDEDRECTD91*%
G04:AMPARAMS|DCode=92|XSize=57.09mil|YSize=53.15mil|CornerRadius=13.29mil|HoleSize=0mil|Usage=FLASHONLY|Rotation=180.000|XOffset=0mil|YOffset=0mil|HoleType=Round|Shape=RoundedRectangle|*
%AMROUNDEDRECTD92*
21,1,0.05709,0.02657,0,0,180.0*
21,1,0.03051,0.05315,0,0,180.0*
1,1,0.02657,-0.01526,0.01329*
1,1,0.02657,0.01526,0.01329*
1,1,0.02657,0.01526,-0.01329*
1,1,0.02657,-0.01526,-0.01329*
%
%ADD92ROUNDEDRECTD92*%
G04:AMPARAMS|DCode=93|XSize=15.75mil|YSize=7.87mil|CornerRadius=1.97mil|HoleSize=0mil|Usage=FLASHONLY|Rotation=180.000|XOffset=0mil|YOffset=0mil|HoleType=Round|Shape=RoundedRectangle|*
%AMROUNDEDRECTD93*
21,1,0.01575,0.00394,0,0,180.0*
21,1,0.01181,0.00787,0,0,180.0*
1,1,0.00394,-0.00591,0.00197*
1,1,0.00394,0.00591,0.00197*
1,1,0.00394,0.00591,-0.00197*
1,1,0.00394,-0.00591,-0.00197*
%
%ADD93ROUNDEDRECTD93*%
%ADD113P,0.07238X4X270.0*%
D24*
X82677Y113878D02*
D03*
X117717Y114272D02*
D03*
X60236Y113878D02*
D03*
X39764D02*
D03*
X99213Y114272D02*
D03*
X22047Y113878D02*
D03*
X82677Y123917D02*
D03*
X117717Y124311D02*
D03*
X60236Y123917D02*
D03*
X39764D02*
D03*
X99213Y124311D02*
D03*
X22047Y123917D02*
D03*
D32*
X21654Y32776D02*
D03*
Y39665D02*
D03*
D77*
X29281Y85827D02*
D03*
X18750D02*
D03*
D78*
X68504Y90945D02*
D03*
X57014Y16557D02*
D03*
X56693Y58661D02*
D03*
X66142Y90945D02*
D03*
X59376Y16557D02*
D03*
X59055Y58661D02*
D03*
D79*
X53508Y53473D02*
D03*
X36108Y33290D02*
D03*
X47244Y22155D02*
D03*
X38892Y30506D02*
D03*
X60467Y46514D02*
D03*
X43068Y26331D02*
D03*
X41676Y27722D02*
D03*
X40284Y29114D02*
D03*
X54899Y52082D02*
D03*
X56291Y50690D02*
D03*
X57683Y49298D02*
D03*
X59075Y47906D02*
D03*
X61859Y45122D02*
D03*
X63251Y43730D02*
D03*
X64643Y42338D02*
D03*
X66035Y40946D02*
D03*
X67427Y39554D02*
D03*
X68819Y38162D02*
D03*
X34716Y34682D02*
D03*
X37500Y31898D02*
D03*
X44460Y24939D02*
D03*
X45852Y23547D02*
D03*
X48636Y20763D02*
D03*
X50028Y19371D02*
D03*
D80*
Y53473D02*
D03*
X54899Y20763D02*
D03*
X57683Y23547D02*
D03*
X59075Y24939D02*
D03*
X34716Y38162D02*
D03*
X36108Y39554D02*
D03*
X37500Y40946D02*
D03*
X38892Y42338D02*
D03*
X40284Y43730D02*
D03*
X41676Y45122D02*
D03*
X43068Y46514D02*
D03*
X44460Y47906D02*
D03*
X45852Y49298D02*
D03*
X47244Y50690D02*
D03*
X48636Y52082D02*
D03*
X68819Y34682D02*
D03*
X63251Y29114D02*
D03*
X64643Y30506D02*
D03*
X66035Y31898D02*
D03*
X67427Y33290D02*
D03*
X53508Y19371D02*
D03*
X61859Y27722D02*
D03*
X60467Y26331D02*
D03*
X56291Y22155D02*
D03*
D81*
X30807Y74016D02*
D03*
X34547D02*
D03*
D82*
X68110Y86240D02*
D03*
X89370Y81240D02*
D03*
Y86240D02*
D03*
Y71240D02*
D03*
X68110Y81240D02*
D03*
Y76240D02*
D03*
Y71240D02*
D03*
X89370Y76240D02*
D03*
D83*
X16634Y58268D02*
D03*
X11713Y28740D02*
D03*
X113878Y17717D02*
D03*
Y9843D02*
D03*
X114272Y25984D02*
D03*
X119980Y9843D02*
D03*
Y17717D02*
D03*
X120374Y25984D02*
D03*
X22736Y58268D02*
D03*
X5610Y28740D02*
D03*
D84*
X61779Y72901D02*
D03*
X61789Y85979D02*
D03*
Y82435D02*
D03*
X61779Y76444D02*
D03*
D85*
X42717Y92224D02*
D03*
X36811Y85039D02*
D03*
X38780D02*
D03*
Y92224D02*
D03*
X36811Y92224D02*
D03*
X40748Y92224D02*
D03*
X42717Y85039D02*
D03*
X40748D02*
D03*
D86*
X46865Y56379D02*
D03*
X65748Y21260D02*
D03*
X62314Y21159D02*
D03*
X46865Y58741D02*
D03*
X62992Y9843D02*
D03*
X65748Y18898D02*
D03*
X62314Y18797D02*
D03*
X62992Y12205D02*
D03*
D87*
X31102Y46752D02*
D03*
Y43012D02*
D03*
D88*
X31496Y108661D02*
D03*
X49606Y110925D02*
D03*
X31496Y100197D02*
D03*
X49606Y102461D02*
D03*
D89*
X143890Y72517D02*
D03*
X102854Y43701D02*
D03*
X133851Y72517D02*
D03*
X112894Y43701D02*
D03*
D90*
X106299Y72933D02*
D03*
Y85335D02*
D03*
D91*
X97783Y8843D02*
D03*
X106672Y18110D02*
D03*
X100176D02*
D03*
X91287Y8843D02*
D03*
D92*
X102138Y33109D02*
D03*
Y26613D02*
D03*
D93*
X47047Y87205D02*
D03*
Y84842D02*
D03*
D113*
X55581Y36450D02*
D03*
X59395Y32636D02*
D03*
X51767Y40264D02*
D03*
X51768Y25008D02*
D03*
X63209Y36450D02*
D03*
X55581Y28822D02*
D03*
X47954Y28822D02*
D03*
X59395Y40264D02*
D03*
X51768Y32636D02*
D03*
X44140Y32636D02*
D03*
X55581Y44078D02*
D03*
X47954Y36450D02*
D03*
X47982Y44050D02*
D03*
X40354Y36422D02*
D03*
X51795Y47864D02*
D03*
X44168Y40236D02*
D03*
M02*
