M48
;Layer_Color=9474304
;FILE_FORMAT=2:5
INCH,TZ
;TYPE=PLATED
T01F00S00C0.01000
T02F00S00C0.03000
T03F00S00C0.05118
T04F00S00C0.07087
T05F00S00C0.07874
T06F00S00C0.10236
%
T01
X25197Y4331
X27083Y11811
X23311Y15748
X20079Y20079
X17717Y22130
X10236Y24016
X21965Y29134
X31496Y27248
X35930Y27724
X33914Y24413
X30168Y34937
X28818Y38521
X28346Y46850
X25591Y49606
X19685Y48819
X21425Y42913
X16929Y39520
X5906Y38976
X7480Y52362
X10236Y50394
X15978Y53286
X13386Y58268
X11417Y74016
X10492Y81102
X37402Y67716
X40550Y70701
X40945Y64961
X43859Y64725
X44277Y60434
X46867Y60401
X49606Y57087
X41339Y51181
X36577Y53365
X33940Y54951
X35863Y45395
X35121Y42913
X38976Y46457
X44094Y38976
X48031Y35827
X51575Y38976
X55512Y35827
X73228Y37008
X75590Y39370
X80709Y40157
X80804Y35244
X82690Y37020
X82284Y31496
X80905Y25870
X74016Y24016
Y17323
X65522Y14060
X62598Y16535
X53937Y16142
X56693Y10795
X50787Y10630
X44882Y9614
X38189Y7874
X36220Y5512
X40551Y3543
X68898Y10236
X80687Y11162
X80709Y7480
Y3937
X87795Y23705
X87789Y27953
X96399Y28842
X95669Y38189
X92913Y42520
X92520Y47244
X96063Y45276
X84646
X78744Y43636
X77165Y46063
X75590Y54642
X80641Y57363
X82370Y60879
X82282Y63468
X86166Y64130
X88189Y65748
X80792Y67510
X83071Y51575
X86205Y54556
X104331Y55512
Y61417
Y66929
X99213
X115354Y66142
X124409Y82284
X127559
X130709
X129134Y84646
X125984
X122990Y84705
X124409Y87402
X127559
X130709
X130709Y90158
X133858
X136614Y87402
X139764
X139764Y90158
X138189Y84646
X136614Y82284
X139764
X132677Y84646
X135039Y110236
Y114961
X130709Y122047
X127559
X124409
X122990Y124469
X125984Y124409
X129134
X132677
X130709Y127165
X127559
X124409
X147638Y125984
X151181
X149213Y123622
Y128740
X150000Y113386
X148425Y110630
X151969
X150000Y108268
X149213Y70866
X138205Y52285
X135433Y44094
X133071Y35433
X124409Y36614
Y40551
Y44488
Y48031
X121260Y46063
Y42126
Y38583
Y34252
X118876Y14311
X128740Y10630
X128708Y7779
X135941Y22047
X111006Y20713
X105151Y10547
X103150Y50000
X98425Y83071
X107465Y100000
X112205Y99606
X101575Y110236
X96457
X92126
X94882Y113386
X99213
X101575Y116142
X96850
X81480Y109449
X74409Y122047
X71260
X68110
X66691Y124469
X69685Y124409
X72835
X76378
X74409Y127165
X71260
X68110
X52362
X49213
X46063
X44643Y124469
X47638Y124409
X50787
X54331
X52362Y122047
X49213
X46063
X57874Y110630
X66535Y93701
X53291Y84252
X46273Y74430
X61316Y60975
X27953Y111024
X25591Y110630
Y113386
X28600Y113639
X12205Y122835
Y127559
X8661Y124803
Y120866
T02
X147244Y28346
Y36220
Y44094
Y51968
Y59842
T03
X84350Y16685
X128445Y16488
T04
X96457Y55709
X116142
T05
X39370Y147638
X78740
X118110
T06
X11417Y11417
X146063
Y146063
X11417
M30
