G04*
G04 #@! TF.GenerationSoftware,Altium Limited,Altium Designer,26.6.0 (10)*
G04*
G04 Layer_Physical_Order=4*
G04 Layer_Color=16711680*
G04 Board_Origin=0|0*
%FSLAX25Y25*%
%MOIN*%
G70*
G04*
G04 #@! TF.SameCoordinates,F0087062-FDAB-4064-A27D-614F93A241B0*
G04*
G04*
G04 #@! TF.FilePolarity,Positive*
G04*
G01*
G75*
G04:AMPARAMS|DCode=24|XSize=74.8mil|YSize=64.96mil|CornerRadius=16.24mil|HoleSize=0mil|Usage=FLASHONLY|Rotation=0.000|XOffset=0mil|YOffset=0mil|HoleType=Round|Shape=RoundedRectangle|*
%AMROUNDEDRECTD24*
21,1,0.07480,0.03248,0,0,0.0*
21,1,0.04232,0.06496,0,0,0.0*
1,1,0.03248,0.02116,-0.01624*
1,1,0.03248,-0.02116,-0.01624*
1,1,0.03248,-0.02116,0.01624*
1,1,0.03248,0.02116,0.01624*
%
%ADD24ROUNDEDRECTD24*%
G04:AMPARAMS|DCode=32|XSize=39.37mil|YSize=31.5mil|CornerRadius=7.87mil|HoleSize=0mil|Usage=FLASHONLY|Rotation=0.000|XOffset=0mil|YOffset=0mil|HoleType=Round|Shape=RoundedRectangle|*
%AMROUNDEDRECTD32*
21,1,0.03937,0.01575,0,0,0.0*
21,1,0.02362,0.03150,0,0,0.0*
1,1,0.01575,0.01181,-0.00787*
1,1,0.01575,-0.01181,-0.00787*
1,1,0.01575,-0.01181,0.00787*
1,1,0.01575,0.01181,0.00787*
%
%ADD32ROUNDEDRECTD32*%
%ADD62C,0.00591*%
G04:AMPARAMS|DCode=63|XSize=60mil|YSize=60mil|CornerRadius=15mil|HoleSize=0mil|Usage=FLASHONLY|Rotation=0.000|XOffset=0mil|YOffset=0mil|HoleType=Round|Shape=RoundedRectangle|*
%AMROUNDEDRECTD63*
21,1,0.06000,0.03000,0,0,0.0*
21,1,0.03000,0.06000,0,0,0.0*
1,1,0.03000,0.01500,-0.01500*
1,1,0.03000,-0.01500,-0.01500*
1,1,0.03000,-0.01500,0.01500*
1,1,0.03000,0.01500,0.01500*
%
%ADD63ROUNDEDRECTD63*%
%ADD64C,0.10630*%
%ADD65C,0.06000*%
G04:AMPARAMS|DCode=66|XSize=157.48mil|YSize=157.48mil|CornerRadius=39.37mil|HoleSize=0mil|Usage=FLASHONLY|Rotation=0.000|XOffset=0mil|YOffset=0mil|HoleType=Round|Shape=RoundedRectangle|*
%AMROUNDEDRECTD66*
21,1,0.15748,0.07874,0,0,0.0*
21,1,0.07874,0.15748,0,0,0.0*
1,1,0.07874,0.03937,-0.03937*
1,1,0.07874,-0.03937,-0.03937*
1,1,0.07874,-0.03937,0.03937*
1,1,0.07874,0.03937,0.03937*
%
%ADD66ROUNDEDRECTD66*%
%ADD67O,0.07087X0.06693*%
%ADD68C,0.19685*%
%ADD69C,0.02000*%
G04:AMPARAMS|DCode=77|XSize=141.73mil|YSize=81.69mil|CornerRadius=10.21mil|HoleSize=0mil|Usage=FLASHONLY|Rotation=90.000|XOffset=0mil|YOffset=0mil|HoleType=Round|Shape=RoundedRectangle|*
%AMROUNDEDRECTD77*
21,1,0.14173,0.06127,0,0,90.0*
21,1,0.12131,0.08169,0,0,90.0*
1,1,0.02042,0.03064,0.06066*
1,1,0.02042,0.03064,-0.06066*
1,1,0.02042,-0.03064,-0.06066*
1,1,0.02042,-0.03064,0.06066*
%
%ADD77ROUNDEDRECTD77*%
G04:AMPARAMS|DCode=78|XSize=11.81mil|YSize=11.81mil|CornerRadius=2.95mil|HoleSize=0mil|Usage=FLASHONLY|Rotation=270.000|XOffset=0mil|YOffset=0mil|HoleType=Round|Shape=RoundedRectangle|*
%AMROUNDEDRECTD78*
21,1,0.01181,0.00591,0,0,270.0*
21,1,0.00591,0.01181,0,0,270.0*
1,1,0.00591,-0.00295,-0.00295*
1,1,0.00591,-0.00295,0.00295*
1,1,0.00591,0.00295,0.00295*
1,1,0.00591,0.00295,-0.00295*
%
%ADD78ROUNDEDRECTD78*%
G04:AMPARAMS|DCode=79|XSize=21.65mil|YSize=11.81mil|CornerRadius=2.95mil|HoleSize=0mil|Usage=FLASHONLY|Rotation=225.000|XOffset=0mil|YOffset=0mil|HoleType=Round|Shape=RoundedRectangle|*
%AMROUNDEDRECTD79*
21,1,0.02165,0.00591,0,0,225.0*
21,1,0.01575,0.01181,0,0,225.0*
1,1,0.00591,-0.00766,-0.00348*
1,1,0.00591,0.00348,0.00766*
1,1,0.00591,0.00766,0.00348*
1,1,0.00591,-0.00348,-0.00766*
%
%ADD79ROUNDEDRECTD79*%
G04:AMPARAMS|DCode=80|XSize=21.65mil|YSize=11.81mil|CornerRadius=2.95mil|HoleSize=0mil|Usage=FLASHONLY|Rotation=135.000|XOffset=0mil|YOffset=0mil|HoleType=Round|Shape=RoundedRectangle|*
%AMROUNDEDRECTD80*
21,1,0.02165,0.00591,0,0,135.0*
21,1,0.01575,0.01181,0,0,135.0*
1,1,0.00591,-0.00348,0.00766*
1,1,0.00591,0.00766,-0.00348*
1,1,0.00591,0.00348,-0.00766*
1,1,0.00591,-0.00766,0.00348*
%
%ADD80ROUNDEDRECTD80*%
G04:AMPARAMS|DCode=81|XSize=30.32mil|YSize=21.65mil|CornerRadius=5.41mil|HoleSize=0mil|Usage=FLASHONLY|Rotation=90.000|XOffset=0mil|YOffset=0mil|HoleType=Round|Shape=RoundedRectangle|*
%AMROUNDEDRECTD81*
21,1,0.03032,0.01083,0,0,90.0*
21,1,0.01949,0.02165,0,0,90.0*
1,1,0.01083,0.00541,0.00974*
1,1,0.01083,0.00541,-0.00974*
1,1,0.01083,-0.00541,-0.00974*
1,1,0.01083,-0.00541,0.00974*
%
%ADD81ROUNDEDRECTD81*%
G04:AMPARAMS|DCode=82|XSize=59.06mil|YSize=25.59mil|CornerRadius=6.4mil|HoleSize=0mil|Usage=FLASHONLY|Rotation=180.000|XOffset=0mil|YOffset=0mil|HoleType=Round|Shape=RoundedRectangle|*
%AMROUNDEDRECTD82*
21,1,0.05906,0.01280,0,0,180.0*
21,1,0.04626,0.02559,0,0,180.0*
1,1,0.01280,-0.02313,0.00640*
1,1,0.01280,0.02313,0.00640*
1,1,0.01280,0.02313,-0.00640*
1,1,0.01280,-0.02313,-0.00640*
%
%ADD82ROUNDEDRECTD82*%
G04:AMPARAMS|DCode=83|XSize=35.43mil|YSize=33.47mil|CornerRadius=8.37mil|HoleSize=0mil|Usage=FLASHONLY|Rotation=90.000|XOffset=0mil|YOffset=0mil|HoleType=Round|Shape=RoundedRectangle|*
%AMROUNDEDRECTD83*
21,1,0.03543,0.01673,0,0,90.0*
21,1,0.01870,0.03347,0,0,90.0*
1,1,0.01673,0.00837,0.00935*
1,1,0.01673,0.00837,-0.00935*
1,1,0.01673,-0.00837,-0.00935*
1,1,0.01673,-0.00837,0.00935*
%
%ADD83ROUNDEDRECTD83*%
G04:AMPARAMS|DCode=84|XSize=21.65mil|YSize=21.65mil|CornerRadius=5.41mil|HoleSize=0mil|Usage=FLASHONLY|Rotation=180.000|XOffset=0mil|YOffset=0mil|HoleType=Round|Shape=RoundedRectangle|*
%AMROUNDEDRECTD84*
21,1,0.02165,0.01083,0,0,180.0*
21,1,0.01083,0.02165,0,0,180.0*
1,1,0.01083,-0.00541,0.00541*
1,1,0.01083,0.00541,0.00541*
1,1,0.01083,0.00541,-0.00541*
1,1,0.01083,-0.00541,-0.00541*
%
%ADD84ROUNDEDRECTD84*%
G04:AMPARAMS|DCode=85|XSize=25.59mil|YSize=9.84mil|CornerRadius=2.46mil|HoleSize=0mil|Usage=FLASHONLY|Rotation=270.000|XOffset=0mil|YOffset=0mil|HoleType=Round|Shape=RoundedRectangle|*
%AMROUNDEDRECTD85*
21,1,0.02559,0.00492,0,0,270.0*
21,1,0.02067,0.00984,0,0,270.0*
1,1,0.00492,-0.00246,-0.01034*
1,1,0.00492,-0.00246,0.01034*
1,1,0.00492,0.00246,0.01034*
1,1,0.00492,0.00246,-0.01034*
%
%ADD85ROUNDEDRECTD85*%
G04:AMPARAMS|DCode=86|XSize=11.81mil|YSize=11.81mil|CornerRadius=2.95mil|HoleSize=0mil|Usage=FLASHONLY|Rotation=180.000|XOffset=0mil|YOffset=0mil|HoleType=Round|Shape=RoundedRectangle|*
%AMROUNDEDRECTD86*
21,1,0.01181,0.00591,0,0,180.0*
21,1,0.00591,0.01181,0,0,180.0*
1,1,0.00591,-0.00295,0.00295*
1,1,0.00591,0.00295,0.00295*
1,1,0.00591,0.00295,-0.00295*
1,1,0.00591,-0.00295,-0.00295*
%
%ADD86ROUNDEDRECTD86*%
G04:AMPARAMS|DCode=87|XSize=30.32mil|YSize=21.65mil|CornerRadius=5.41mil|HoleSize=0mil|Usage=FLASHONLY|Rotation=0.000|XOffset=0mil|YOffset=0mil|HoleType=Round|Shape=RoundedRectangle|*
%AMROUNDEDRECTD87*
21,1,0.03032,0.01083,0,0,0.0*
21,1,0.01949,0.02165,0,0,0.0*
1,1,0.01083,0.00974,-0.00541*
1,1,0.01083,-0.00974,-0.00541*
1,1,0.01083,-0.00974,0.00541*
1,1,0.01083,0.00974,0.00541*
%
%ADD87ROUNDEDRECTD87*%
G04:AMPARAMS|DCode=88|XSize=57.09mil|YSize=29.53mil|CornerRadius=7.38mil|HoleSize=0mil|Usage=FLASHONLY|Rotation=180.000|XOffset=0mil|YOffset=0mil|HoleType=Round|Shape=RoundedRectangle|*
%AMROUNDEDRECTD88*
21,1,0.05709,0.01476,0,0,180.0*
21,1,0.04232,0.02953,0,0,180.0*
1,1,0.01476,-0.02116,0.00738*
1,1,0.01476,0.02116,0.00738*
1,1,0.01476,0.02116,-0.00738*
1,1,0.01476,-0.02116,-0.00738*
%
%ADD88ROUNDEDRECTD88*%
G04:AMPARAMS|DCode=89|XSize=74.8mil|YSize=64.96mil|CornerRadius=16.24mil|HoleSize=0mil|Usage=FLASHONLY|Rotation=270.000|XOffset=0mil|YOffset=0mil|HoleType=Round|Shape=RoundedRectangle|*
%AMROUNDEDRECTD89*
21,1,0.07480,0.03248,0,0,270.0*
21,1,0.04232,0.06496,0,0,270.0*
1,1,0.03248,-0.01624,-0.02116*
1,1,0.03248,-0.01624,0.02116*
1,1,0.03248,0.01624,0.02116*
1,1,0.03248,0.01624,-0.02116*
%
%ADD89ROUNDEDRECTD89*%
G04:AMPARAMS|DCode=90|XSize=84.65mil|YSize=96.46mil|CornerRadius=21.16mil|HoleSize=0mil|Usage=FLASHONLY|Rotation=180.000|XOffset=0mil|YOffset=0mil|HoleType=Round|Shape=RoundedRectangle|*
%AMROUNDEDRECTD90*
21,1,0.08465,0.05413,0,0,180.0*
21,1,0.04232,0.09646,0,0,180.0*
1,1,0.04232,-0.02116,0.02707*
1,1,0.04232,0.02116,0.02707*
1,1,0.04232,0.02116,-0.02707*
1,1,0.04232,-0.02116,-0.02707*
%
%ADD90ROUNDEDRECTD90*%
G04:AMPARAMS|DCode=91|XSize=57.09mil|YSize=53.15mil|CornerRadius=13.29mil|HoleSize=0mil|Usage=FLASHONLY|Rotation=90.000|XOffset=0mil|YOffset=0mil|HoleType=Round|Shape=RoundedRectangle|*
%AMROUNDEDRECTD91*
21,1,0.05709,0.02657,0,0,90.0*
21,1,0.03051,0.05315,0,0,90.0*
1,1,0.02657,0.01329,0.01526*
1,1,0.02657,0.01329,-0.01526*
1,1,0.02657,-0.01329,-0.01526*
1,1,0.02657,-0.01329,0.01526*
%
%ADD91ROUNDEDRECTD91*%
G04:AMPARAMS|DCode=92|XSize=57.09mil|YSize=53.15mil|CornerRadius=13.29mil|HoleSize=0mil|Usage=FLASHONLY|Rotation=180.000|XOffset=0mil|YOffset=0mil|HoleType=Round|Shape=RoundedRectangle|*
%AMROUNDEDRECTD92*
21,1,0.05709,0.02657,0,0,180.0*
21,1,0.03051,0.05315,0,0,180.0*
1,1,0.02657,-0.01526,0.01329*
1,1,0.02657,0.01526,0.01329*
1,1,0.02657,0.01526,-0.01329*
1,1,0.02657,-0.01526,-0.01329*
%
%ADD92ROUNDEDRECTD92*%
G04:AMPARAMS|DCode=93|XSize=15.75mil|YSize=7.87mil|CornerRadius=1.97mil|HoleSize=0mil|Usage=FLASHONLY|Rotation=180.000|XOffset=0mil|YOffset=0mil|HoleType=Round|Shape=RoundedRectangle|*
%AMROUNDEDRECTD93*
21,1,0.01575,0.00394,0,0,180.0*
21,1,0.01181,0.00787,0,0,180.0*
1,1,0.00394,-0.00591,0.00197*
1,1,0.00394,0.00591,0.00197*
1,1,0.00394,0.00591,-0.00197*
1,1,0.00394,-0.00591,-0.00197*
%
%ADD93ROUNDEDRECTD93*%
%ADD94P,0.31736X4X180.0*%
G36*
X142763Y155961D02*
X142058Y155732D01*
X140595Y154986D01*
X139266Y154021D01*
X138105Y152860D01*
X137140Y151531D01*
X136394Y150068D01*
X135887Y148506D01*
X135630Y146884D01*
Y145242D01*
X135887Y143620D01*
X136394Y142058D01*
X137140Y140595D01*
X138105Y139266D01*
X139266Y138105D01*
X140595Y137140D01*
X142058Y136394D01*
X143620Y135887D01*
X145242Y135630D01*
X146884D01*
X148506Y135887D01*
X150068Y136394D01*
X151531Y137140D01*
X152860Y138105D01*
X154021Y139266D01*
X154986Y140595D01*
X155732Y142058D01*
X155961Y142763D01*
X156461Y142684D01*
Y14796D01*
X155961Y14717D01*
X155732Y15422D01*
X154986Y16885D01*
X154021Y18214D01*
X152860Y19375D01*
X151531Y20340D01*
X150068Y21086D01*
X148506Y21594D01*
X146884Y21850D01*
X145242D01*
X143620Y21594D01*
X142058Y21086D01*
X140595Y20340D01*
X139266Y19375D01*
X138105Y18214D01*
X137140Y16885D01*
X136394Y15422D01*
X135887Y13860D01*
X135630Y12238D01*
Y10596D01*
X135887Y8974D01*
X136394Y7412D01*
X137140Y5949D01*
X138105Y4621D01*
X139266Y3459D01*
X140595Y2494D01*
X142058Y1749D01*
X142763Y1519D01*
X142684Y1020D01*
X14796D01*
X14717Y1519D01*
X15422Y1749D01*
X16885Y2494D01*
X18214Y3459D01*
X19375Y4621D01*
X20340Y5949D01*
X21086Y7412D01*
X21594Y8974D01*
X21850Y10596D01*
Y12238D01*
X21594Y13860D01*
X21086Y15422D01*
X20340Y16885D01*
X19486Y18061D01*
X19695Y18385D01*
X19794Y18488D01*
X20395D01*
X20980Y18730D01*
X21425Y19176D01*
X25506D01*
X25698Y18714D01*
X24828Y17844D01*
X24785D01*
X24785Y17844D01*
X24439Y17775D01*
X24146Y17580D01*
X23824Y17257D01*
X23627Y17339D01*
X22995D01*
X22410Y17096D01*
X21963Y16649D01*
X21721Y16064D01*
Y15432D01*
X21963Y14847D01*
X22410Y14400D01*
X22995Y14157D01*
X23627D01*
X24212Y14400D01*
X24659Y14847D01*
X24902Y15432D01*
Y15780D01*
X25159Y16038D01*
X25203D01*
X25548Y16107D01*
X25841Y16302D01*
X27533Y17995D01*
X46780D01*
X47125Y18063D01*
X47418Y18259D01*
X47904Y18745D01*
X48164Y18711D01*
X48474Y18608D01*
X48623Y18384D01*
X49041Y17967D01*
X49334Y17771D01*
X49680Y17702D01*
X50025Y17771D01*
X50318Y17967D01*
X51432Y19080D01*
X51480Y19153D01*
X52055D01*
X52103Y19080D01*
X53217Y17967D01*
X53510Y17771D01*
X53856Y17702D01*
X54201Y17771D01*
X54494Y17967D01*
X54912Y18384D01*
X55107Y18677D01*
X55176Y19023D01*
X55107Y19368D01*
X54912Y19661D01*
X53798Y20775D01*
X53638Y20882D01*
X53520Y21340D01*
X53525Y21477D01*
X54186Y22137D01*
X54322Y22142D01*
X54780Y22024D01*
X54887Y21864D01*
X56001Y20751D01*
X56294Y20555D01*
X56639Y20486D01*
X56985Y20555D01*
X57278Y20751D01*
X57696Y21168D01*
X57891Y21461D01*
X57960Y21807D01*
X57891Y22152D01*
X57696Y22445D01*
X56582Y23559D01*
X56422Y23666D01*
X56304Y24124D01*
X56309Y24261D01*
X58361Y26313D01*
X58498Y26318D01*
X58956Y26200D01*
X59063Y26040D01*
X60176Y24926D01*
X60246Y24880D01*
X61586Y23540D01*
X61586Y23540D01*
X61879Y23344D01*
X62225Y23276D01*
X72601D01*
X72667Y23115D01*
X73115Y22667D01*
X73699Y22425D01*
X74332D01*
X74917Y22667D01*
X75364Y23115D01*
X75606Y23699D01*
Y24332D01*
X75537Y24498D01*
X75871Y24998D01*
X77261D01*
X81080Y21180D01*
X81080Y21180D01*
X81372Y20985D01*
X81718Y20916D01*
X81718Y20916D01*
X82773D01*
X82872Y20416D01*
X82168Y20124D01*
X81346Y19493D01*
X80715Y18670D01*
X80318Y17713D01*
X80183Y16685D01*
X80318Y15657D01*
X80715Y14700D01*
X81346Y13877D01*
X82168Y13246D01*
X83126Y12849D01*
X84153Y12714D01*
X84547D01*
X85575Y12849D01*
X86533Y13246D01*
X87355Y13877D01*
X87986Y14700D01*
X88383Y15657D01*
X88861Y15561D01*
Y11943D01*
X88575Y11752D01*
X88150Y11117D01*
X88002Y10368D01*
Y7317D01*
X88150Y6568D01*
X88575Y5933D01*
X89210Y5509D01*
X89958Y5360D01*
X92616D01*
X93365Y5509D01*
X94000Y5933D01*
X94235Y6285D01*
X94836D01*
X95071Y5933D01*
X95706Y5509D01*
X96454Y5360D01*
X99112D01*
X99861Y5509D01*
X100496Y5933D01*
X100920Y6568D01*
X101069Y7317D01*
Y7939D01*
X103508D01*
X103854Y8008D01*
X104147Y8204D01*
X104900Y8957D01*
X105467D01*
X106052Y9199D01*
X106499Y9646D01*
X106741Y10231D01*
Y10864D01*
X106610Y11180D01*
X106921Y11680D01*
X110764D01*
X111599Y10844D01*
X111586Y10778D01*
Y8907D01*
X111697Y8351D01*
X112012Y7879D01*
X112485Y7563D01*
X113041Y7452D01*
X114715D01*
X115271Y7563D01*
X115744Y7879D01*
X116059Y8351D01*
X116170Y8907D01*
Y10778D01*
X116059Y11334D01*
X115744Y11806D01*
X115271Y12122D01*
X114715Y12233D01*
X113041D01*
X112811Y12187D01*
X111776Y13221D01*
X111574Y13357D01*
X111573Y13358D01*
X111473Y13748D01*
X111467Y13930D01*
X112893Y15356D01*
X113041Y15326D01*
X114715D01*
X115271Y15437D01*
X115744Y15753D01*
X116059Y16225D01*
X116170Y16781D01*
Y18652D01*
X116059Y19208D01*
X115744Y19681D01*
X115271Y19996D01*
X114715Y20107D01*
X113041D01*
X113016Y20102D01*
X112882Y20195D01*
X112597Y20528D01*
Y21029D01*
X112739Y21242D01*
X117244D01*
X118251Y20236D01*
X118201Y19738D01*
X118115Y19681D01*
X117799Y19208D01*
X117689Y18652D01*
Y16781D01*
X117799Y16225D01*
X117850Y16149D01*
X117975Y15660D01*
X117763Y15448D01*
X117528Y15212D01*
X117286Y14627D01*
Y13995D01*
X117528Y13410D01*
X117975Y12963D01*
X118243Y12852D01*
Y11892D01*
X118115Y11806D01*
X117799Y11334D01*
X117689Y10778D01*
Y8907D01*
X117799Y8351D01*
X118115Y7879D01*
X118587Y7563D01*
X119144Y7452D01*
X120817D01*
X121374Y7563D01*
X121846Y7879D01*
X122161Y8351D01*
X122272Y8907D01*
Y10778D01*
X122161Y11334D01*
X121846Y11806D01*
X121374Y12122D01*
X120817Y12233D01*
X120049D01*
Y13235D01*
X120224Y13410D01*
X120467Y13995D01*
Y14627D01*
X120384Y14826D01*
X120718Y15326D01*
X120817D01*
X121374Y15437D01*
X121846Y15753D01*
X122161Y16225D01*
X122272Y16781D01*
Y18652D01*
X122161Y19208D01*
X121846Y19681D01*
X121374Y19996D01*
X120817Y20107D01*
X120623D01*
X120570Y20374D01*
X120374Y20667D01*
X118257Y22784D01*
X117964Y22980D01*
X117618Y23049D01*
X117474D01*
X117283Y23511D01*
X117861Y24089D01*
X118505Y24026D01*
X118509Y24020D01*
X118981Y23705D01*
X119537Y23594D01*
X121211D01*
X121767Y23705D01*
X122240Y24020D01*
X122555Y24492D01*
X122666Y25049D01*
Y26919D01*
X122555Y27476D01*
X122240Y27948D01*
X121767Y28264D01*
X121211Y28374D01*
X119537D01*
X118981Y28264D01*
X118509Y27948D01*
X118193Y27476D01*
X118082Y26919D01*
Y26600D01*
X117815Y26223D01*
X117469Y26154D01*
X117176Y25959D01*
X117025Y25808D01*
X116563Y25999D01*
Y26919D01*
X116453Y27476D01*
X116137Y27948D01*
X115665Y28264D01*
X115108Y28374D01*
X113435D01*
X112878Y28264D01*
X112406Y27948D01*
X112091Y27476D01*
X111997Y27005D01*
X105620D01*
Y27942D01*
X105471Y28691D01*
X105047Y29326D01*
X104695Y29560D01*
X104688Y29589D01*
X104833Y30070D01*
X105263D01*
X105379Y30117D01*
X105504Y30117D01*
X105596Y30207D01*
X105715Y30257D01*
X105763Y30373D01*
X105852Y30461D01*
X106495Y31986D01*
X106495Y32115D01*
X106545Y32234D01*
Y40691D01*
X106564Y40721D01*
X106736Y41585D01*
Y45817D01*
X106564Y46681D01*
X106545Y46711D01*
X106545Y64696D01*
X109662Y67813D01*
X109780Y67862D01*
X110346Y68296D01*
X110780Y68861D01*
X110829Y68980D01*
X111476Y69627D01*
X111663Y70079D01*
Y75590D01*
X111476Y76042D01*
X110968Y76550D01*
X110780Y77005D01*
X110346Y77570D01*
X109780Y78004D01*
X109326Y78192D01*
X108720Y78798D01*
X108268Y78986D01*
X100787Y78986D01*
X100335Y78799D01*
X95611Y74074D01*
X95424Y73622D01*
Y72143D01*
X92885D01*
X92842Y72360D01*
X92570Y72767D01*
X92163Y73039D01*
X91683Y73134D01*
X87057D01*
X86577Y73039D01*
X86170Y72767D01*
X85898Y72360D01*
X85803Y71880D01*
Y70600D01*
X85898Y70120D01*
X86094Y69828D01*
X85705Y69509D01*
X73335Y81879D01*
X73043Y82075D01*
X72697Y82143D01*
X71625D01*
X71582Y82360D01*
X71310Y82767D01*
X70903Y83039D01*
X70423Y83134D01*
X65797D01*
X65317Y83039D01*
X64910Y82767D01*
X64638Y82360D01*
X64595Y82143D01*
X63484D01*
Y82977D01*
X63397Y83418D01*
X63146Y83793D01*
X62772Y84043D01*
X62330Y84131D01*
X61248D01*
X60806Y84043D01*
X60432Y83793D01*
X60181Y83418D01*
X60094Y82977D01*
Y81894D01*
X60181Y81452D01*
X60432Y81078D01*
X60806Y80828D01*
X61248Y80740D01*
X62146D01*
X62284Y80602D01*
X62284Y80602D01*
X62577Y80406D01*
X62922Y80337D01*
X64595D01*
X64638Y80120D01*
X64910Y79713D01*
X65317Y79441D01*
X65797Y79346D01*
X70423D01*
X70903Y79441D01*
X71310Y79713D01*
X71582Y80120D01*
X71625Y80337D01*
X72323D01*
X75076Y77584D01*
X74829Y77123D01*
X74729Y77143D01*
X71625D01*
X71582Y77360D01*
X71310Y77767D01*
X70903Y78039D01*
X70423Y78134D01*
X65797D01*
X65317Y78039D01*
X64910Y77767D01*
X64638Y77360D01*
X64636Y77347D01*
X63403D01*
X63387Y77427D01*
X63137Y77801D01*
X62762Y78052D01*
X62321Y78139D01*
X61238D01*
X60796Y78052D01*
X60422Y77801D01*
X60172Y77427D01*
X60084Y76985D01*
Y75903D01*
X60172Y75461D01*
X60422Y75086D01*
X60796Y74836D01*
X61238Y74748D01*
X62321D01*
X62762Y74836D01*
X63137Y75086D01*
X63387Y75461D01*
X63403Y75541D01*
X64555D01*
X64638Y75120D01*
X64910Y74713D01*
X65317Y74441D01*
X65797Y74346D01*
X70423D01*
X70903Y74441D01*
X71310Y74713D01*
X71582Y75120D01*
X71625Y75337D01*
X74355D01*
X80175Y69517D01*
X80057Y68927D01*
X79891Y68858D01*
X79444Y68411D01*
X79202Y67826D01*
Y67194D01*
X79270Y67027D01*
X78936Y66527D01*
X46001D01*
X42141Y70388D01*
Y71017D01*
X41899Y71602D01*
X41451Y72049D01*
X40867Y72291D01*
X40234D01*
X39649Y72049D01*
X39202Y71602D01*
X38960Y71017D01*
Y70384D01*
X39202Y69800D01*
X39649Y69352D01*
X40234Y69110D01*
X40864D01*
X43241Y66733D01*
X43124Y66143D01*
X42958Y66074D01*
X42808Y65925D01*
X42293Y65862D01*
X41846Y66309D01*
X41261Y66551D01*
X40628D01*
X40044Y66309D01*
X39597Y65862D01*
X39412Y65417D01*
X38892Y65230D01*
X38305Y65817D01*
Y66370D01*
X38750Y66816D01*
X38992Y67400D01*
Y68033D01*
X38750Y68617D01*
X38302Y69065D01*
X37718Y69307D01*
X37085D01*
X36501Y69065D01*
X36053Y68617D01*
X35811Y68033D01*
Y67400D01*
X36053Y66816D01*
X36498Y66370D01*
Y65443D01*
X36567Y65098D01*
X36763Y64805D01*
X39367Y62201D01*
X39660Y62005D01*
X40005Y61936D01*
X42823D01*
X43030Y61436D01*
X42929Y61335D01*
X42686Y60751D01*
Y60488D01*
X42419Y60110D01*
X42074Y60042D01*
X41781Y59846D01*
X41781Y59846D01*
X36890Y54955D01*
X36261D01*
X35676Y54713D01*
X35228Y54266D01*
X34986Y53681D01*
Y53048D01*
X35179Y52584D01*
X34955Y52084D01*
X27165D01*
X26820Y52016D01*
X26527Y51820D01*
X25904Y51197D01*
X25274D01*
X24690Y50955D01*
X24242Y50507D01*
X24121Y50214D01*
X23620Y50313D01*
Y55887D01*
X24130Y55988D01*
X24602Y56304D01*
X24917Y56776D01*
X25028Y57333D01*
Y59203D01*
X24917Y59760D01*
X24602Y60232D01*
X24130Y60547D01*
X23573Y60658D01*
X21900D01*
X21343Y60547D01*
X20871Y60232D01*
X20555Y59760D01*
X20445Y59203D01*
Y57333D01*
X20555Y56776D01*
X20871Y56304D01*
X21343Y55988D01*
X21814Y55895D01*
Y47247D01*
X16560Y41993D01*
X16364Y41700D01*
X16296Y41354D01*
Y40979D01*
X16028Y40868D01*
X15581Y40420D01*
X15339Y39836D01*
Y39203D01*
X15581Y38618D01*
X16028Y38171D01*
X16613Y37929D01*
X17245D01*
X17830Y38171D01*
X18278Y38618D01*
X18520Y39203D01*
Y39836D01*
X18278Y40420D01*
X18102Y40596D01*
Y40980D01*
X19211Y42089D01*
X19763Y41934D01*
X19818Y41707D01*
X19753Y41629D01*
X19479Y41446D01*
X19174Y40990D01*
X19068Y40453D01*
Y38878D01*
X19174Y38340D01*
X19479Y37885D01*
X19935Y37580D01*
X20472Y37473D01*
X22835D01*
X23372Y37580D01*
X23828Y37885D01*
X24133Y38340D01*
X24240Y38878D01*
Y40453D01*
X24133Y40990D01*
X23828Y41446D01*
X23585Y41609D01*
X23737Y42109D01*
X29046D01*
X29062Y42029D01*
X29312Y41654D01*
X29686Y41404D01*
X30128Y41316D01*
X32077D01*
X32518Y41404D01*
X32893Y41654D01*
X33143Y42029D01*
X33169Y42161D01*
X33689Y42213D01*
X33772Y42012D01*
X34220Y41565D01*
X34804Y41323D01*
X34986Y40823D01*
X34704Y40541D01*
X34508Y40248D01*
X34386Y39884D01*
X34023Y39762D01*
X33730Y39566D01*
X33397Y39234D01*
X30168Y39419D01*
X30167Y39422D01*
X29719Y39869D01*
X29135Y40111D01*
X28502D01*
X27918Y39869D01*
X27470Y39422D01*
X27228Y38837D01*
Y38204D01*
X27470Y37620D01*
X27918Y37172D01*
X28502Y36930D01*
X29135D01*
X29719Y37172D01*
X30158Y37611D01*
X33538Y37416D01*
X33958Y37225D01*
X34426Y36758D01*
X34498Y36709D01*
Y36135D01*
X34426Y36086D01*
X33463Y35124D01*
X31643Y35532D01*
X31516Y35838D01*
X31069Y36285D01*
X30484Y36528D01*
X29851D01*
X29267Y36285D01*
X28820Y35838D01*
X28577Y35253D01*
Y34621D01*
X28820Y34036D01*
X29267Y33589D01*
X29851Y33347D01*
X30484D01*
X31069Y33589D01*
X31249Y33769D01*
X33560Y33251D01*
X33675Y33248D01*
X33789Y33230D01*
X33798Y33232D01*
X34023Y33082D01*
X34368Y33013D01*
X34714Y33082D01*
X35007Y33278D01*
X36121Y34391D01*
X36228Y34552D01*
X36685Y34670D01*
X36822Y34664D01*
X37482Y34004D01*
X37488Y33867D01*
X37370Y33410D01*
X37209Y33303D01*
X36096Y32189D01*
X35900Y31896D01*
X35831Y31550D01*
X35900Y31205D01*
X36028Y31013D01*
X35861Y30513D01*
X29610D01*
X29265Y30444D01*
X28971Y30249D01*
X26397Y27675D01*
X19272D01*
X11139Y35807D01*
Y49047D01*
X11585Y49493D01*
X11827Y50077D01*
Y50456D01*
X12327Y50663D01*
X14809Y48180D01*
X15102Y47984D01*
X15448Y47916D01*
X18339D01*
X18784Y47471D01*
X19369Y47228D01*
X20001D01*
X20586Y47471D01*
X21033Y47918D01*
X21276Y48502D01*
Y49135D01*
X21033Y49720D01*
X20586Y50167D01*
X20001Y50409D01*
X19369D01*
X18784Y50167D01*
X18339Y49722D01*
X15822D01*
X12543Y53001D01*
X12250Y53197D01*
X11904Y53265D01*
X8827D01*
X8381Y53711D01*
X7797Y53953D01*
X7164D01*
X6579Y53711D01*
X6132Y53263D01*
X5890Y52679D01*
Y52046D01*
X6132Y51461D01*
X6579Y51014D01*
X7164Y50772D01*
X7797D01*
X8199Y50938D01*
X8388Y50842D01*
X8643Y50627D01*
X8646Y50623D01*
Y50077D01*
X8888Y49493D01*
X9333Y49047D01*
Y35433D01*
X9402Y35087D01*
X9598Y34794D01*
X18259Y26133D01*
X18552Y25937D01*
X18898Y25868D01*
X26772D01*
X27117Y25937D01*
X27410Y26133D01*
X29612Y28334D01*
X29678Y28321D01*
X29983Y27751D01*
X29906Y27564D01*
Y26932D01*
X30148Y26347D01*
X30595Y25900D01*
X31180Y25657D01*
X31812D01*
X32397Y25900D01*
X32594Y26097D01*
X32894Y26058D01*
X32920Y25668D01*
X32566Y25314D01*
X32485Y25120D01*
X31990Y24850D01*
X31644Y24919D01*
X11582D01*
X11137Y25364D01*
X10553Y25606D01*
X9920D01*
X9335Y25364D01*
X8888Y24917D01*
X8646Y24332D01*
Y23699D01*
X8888Y23115D01*
X9335Y22667D01*
X9920Y22425D01*
X10553D01*
X11137Y22667D01*
X11582Y23113D01*
X15861D01*
X16195Y22613D01*
X16126Y22446D01*
Y21813D01*
X16368Y21229D01*
X16498Y21099D01*
X16201Y20689D01*
X15422Y21086D01*
X13860Y21594D01*
X12238Y21850D01*
X10596D01*
X8974Y21594D01*
X7412Y21086D01*
X5949Y20340D01*
X4621Y19375D01*
X3459Y18214D01*
X2494Y16885D01*
X1749Y15422D01*
X1519Y14717D01*
X1020Y14796D01*
Y142684D01*
X1519Y142763D01*
X1749Y142058D01*
X2494Y140595D01*
X3459Y139266D01*
X4621Y138105D01*
X5949Y137140D01*
X7412Y136394D01*
X8974Y135887D01*
X10596Y135630D01*
X12238D01*
X13860Y135887D01*
X15422Y136394D01*
X16885Y137140D01*
X18214Y138105D01*
X19375Y139266D01*
X20340Y140595D01*
X21086Y142058D01*
X21594Y143620D01*
X21850Y145242D01*
Y146884D01*
X21594Y148506D01*
X21086Y150068D01*
X20340Y151531D01*
X19375Y152860D01*
X18214Y154021D01*
X16885Y154986D01*
X15422Y155732D01*
X14717Y155961D01*
X14796Y156461D01*
X34150D01*
X34251Y155986D01*
X33150Y155530D01*
X32204Y154804D01*
X31478Y153858D01*
X31022Y152757D01*
X30866Y151575D01*
Y143701D01*
X31022Y142519D01*
X31478Y141418D01*
X32204Y140472D01*
X33150Y139746D01*
X34251Y139290D01*
X35433Y139134D01*
X43307D01*
X44489Y139290D01*
X45590Y139746D01*
X46536Y140472D01*
X47262Y141418D01*
X47718Y142519D01*
X47874Y143701D01*
Y151575D01*
X47718Y152757D01*
X47262Y153858D01*
X46536Y154804D01*
X45590Y155530D01*
X44489Y155986D01*
X44590Y156461D01*
X73520D01*
X73621Y155986D01*
X72520Y155530D01*
X71574Y154804D01*
X70848Y153858D01*
X70392Y152757D01*
X70236Y151575D01*
Y143701D01*
X70392Y142519D01*
X70848Y141418D01*
X71574Y140472D01*
X72520Y139746D01*
X73621Y139290D01*
X74803Y139134D01*
X82677D01*
X83859Y139290D01*
X84961Y139746D01*
X85906Y140472D01*
X86632Y141418D01*
X87088Y142519D01*
X87244Y143701D01*
Y151575D01*
X87088Y152757D01*
X86632Y153858D01*
X85906Y154804D01*
X84961Y155530D01*
X83859Y155986D01*
X83960Y156461D01*
X112890D01*
X112991Y155986D01*
X111890Y155530D01*
X110944Y154804D01*
X110218Y153858D01*
X109762Y152757D01*
X109607Y151575D01*
Y143701D01*
X109762Y142519D01*
X110218Y141418D01*
X110944Y140472D01*
X111890Y139746D01*
X112991Y139290D01*
X114173Y139134D01*
X122047D01*
X123229Y139290D01*
X124331Y139746D01*
X125276Y140472D01*
X126002Y141418D01*
X126458Y142519D01*
X126614Y143701D01*
Y151575D01*
X126458Y152757D01*
X126002Y153858D01*
X125276Y154804D01*
X124331Y155530D01*
X123229Y155986D01*
X123330Y156461D01*
X142684D01*
X142763Y155961D01*
D02*
G37*
G36*
X59794Y61458D02*
X59726Y61292D01*
Y60659D01*
X59740Y60624D01*
X58976Y59860D01*
X58760D01*
X58414Y59791D01*
X58121Y59595D01*
X57925Y59302D01*
X57857Y58957D01*
Y58366D01*
X57925Y58021D01*
X58121Y57727D01*
X58390Y57548D01*
X58416Y57522D01*
X58545Y56996D01*
X55291Y53742D01*
X55247Y53750D01*
X54902Y53681D01*
X54609Y53486D01*
X53495Y52372D01*
X53388Y52212D01*
X52930Y52094D01*
X52794Y52099D01*
X51768Y53125D01*
X50741Y52099D01*
X50605Y52094D01*
X50147Y52212D01*
X50040Y52372D01*
X48926Y53486D01*
X48633Y53681D01*
X48288Y53750D01*
X47942Y53681D01*
X47649Y53486D01*
X47232Y53068D01*
X47036Y52775D01*
X46914Y52412D01*
X46550Y52289D01*
X46257Y52094D01*
X45840Y51676D01*
X45644Y51383D01*
X45522Y51020D01*
X45158Y50898D01*
X44865Y50702D01*
X44448Y50284D01*
X44252Y49991D01*
X44130Y49628D01*
X43766Y49506D01*
X43473Y49310D01*
X43056Y48892D01*
X42903Y48663D01*
X42669Y48572D01*
X42335Y48524D01*
X41934Y48925D01*
X41674Y49099D01*
X41659Y49374D01*
X41716Y49616D01*
X42240Y49833D01*
X42687Y50280D01*
X42929Y50865D01*
Y51498D01*
X42687Y52082D01*
X42240Y52530D01*
X41655Y52772D01*
X41022D01*
X40438Y52530D01*
X39992Y52084D01*
X38199D01*
X37975Y52584D01*
X38167Y53048D01*
Y53678D01*
X42793Y58304D01*
X42837D01*
X43183Y58373D01*
X43476Y58569D01*
X43812Y58905D01*
X43961Y58844D01*
X44593D01*
X45178Y59086D01*
X45185Y59092D01*
X45222Y59088D01*
X45667Y58868D01*
Y58446D01*
X45736Y58100D01*
X45931Y57807D01*
X46224Y57611D01*
X46570Y57542D01*
X47161D01*
X47506Y57611D01*
X47799Y57807D01*
X47995Y58100D01*
X48064Y58446D01*
Y59036D01*
X48012Y59297D01*
X48216Y59500D01*
X48458Y60085D01*
Y60718D01*
X48216Y61302D01*
X48082Y61436D01*
X48289Y61936D01*
X52177D01*
X52285Y61958D01*
X59461D01*
X59794Y61458D01*
D02*
G37*
G36*
X40438Y49833D02*
X40795Y49685D01*
X40802Y49384D01*
X40723Y49173D01*
X40460Y49121D01*
X40167Y48925D01*
X40167Y48925D01*
X39290Y48047D01*
X38660D01*
X38075Y47805D01*
X37628Y47358D01*
X37402Y46812D01*
X37206Y46719D01*
X36886Y46622D01*
X36764Y46744D01*
X36179Y46986D01*
X35546D01*
X34962Y46744D01*
X34514Y46296D01*
X34272Y45712D01*
Y45079D01*
X34514Y44495D01*
X34250Y44275D01*
X34220Y44262D01*
X33772Y43814D01*
X33716Y43678D01*
X33196Y43729D01*
X33143Y43995D01*
X32893Y44369D01*
X32518Y44619D01*
X32077Y44707D01*
X30128D01*
X29686Y44619D01*
X29312Y44369D01*
X29062Y43995D01*
X29046Y43915D01*
X22673D01*
X22326Y44262D01*
X22160Y44331D01*
X22043Y44921D01*
X23356Y46234D01*
X23552Y46527D01*
X23620Y46872D01*
Y48900D01*
X24121Y48999D01*
X24242Y48705D01*
X24690Y48258D01*
X25274Y48016D01*
X25907D01*
X26491Y48258D01*
X26939Y48705D01*
X27181Y49290D01*
Y49920D01*
X27540Y50278D01*
X39992D01*
X40438Y49833D01*
D02*
G37*
G36*
X108268Y78347D02*
X111024Y75590D01*
Y70079D01*
X105905Y64961D01*
X105905Y32234D01*
X105263Y30709D01*
X95669D01*
X90158Y36220D01*
Y60236D01*
X96063Y66142D01*
Y73622D01*
X100787Y78347D01*
X108268Y78347D01*
D02*
G37*
%LPC*%
G36*
X149529Y130331D02*
X148896D01*
X148312Y130089D01*
X147864Y129641D01*
X147622Y129057D01*
Y128424D01*
X147767Y128075D01*
X147476Y127577D01*
X147474Y127575D01*
X147321D01*
X146737Y127333D01*
X146289Y126885D01*
X146047Y126301D01*
Y125668D01*
X146289Y125083D01*
X146737Y124636D01*
X147321Y124394D01*
X147361D01*
X147638Y123978D01*
X147622Y123938D01*
Y123306D01*
X147864Y122721D01*
X148312Y122274D01*
X148896Y122031D01*
X149529D01*
X150114Y122274D01*
X150561Y122721D01*
X150803Y123306D01*
Y123932D01*
X150804Y123940D01*
X151156Y124394D01*
X151497D01*
X152082Y124636D01*
X152530Y125083D01*
X152772Y125668D01*
Y126301D01*
X152530Y126885D01*
X152082Y127333D01*
X151497Y127575D01*
X150952D01*
X150948Y127577D01*
X150733Y127832D01*
X150636Y128022D01*
X150803Y128424D01*
Y129057D01*
X150561Y129641D01*
X150114Y130089D01*
X149529Y130331D01*
D02*
G37*
G36*
X150316Y114976D02*
X149684D01*
X149099Y114734D01*
X148652Y114287D01*
X148409Y113702D01*
Y113069D01*
X148554Y112721D01*
X148264Y112222D01*
X148261Y112221D01*
X148109D01*
X147524Y111978D01*
X147077Y111531D01*
X146835Y110946D01*
Y110313D01*
X147077Y109729D01*
X147524Y109282D01*
X148109Y109039D01*
X148148D01*
X148426Y108624D01*
X148409Y108584D01*
Y107951D01*
X148652Y107367D01*
X149099Y106919D01*
X149684Y106677D01*
X150316D01*
X150901Y106919D01*
X151348Y107367D01*
X151591Y107951D01*
Y108577D01*
X151592Y108586D01*
X151943Y109039D01*
X152285D01*
X152869Y109282D01*
X153317Y109729D01*
X153559Y110313D01*
Y110946D01*
X153317Y111531D01*
X152869Y111978D01*
X152285Y112221D01*
X151739D01*
X151735Y112223D01*
X151521Y112478D01*
X151424Y112667D01*
X151591Y113069D01*
Y113702D01*
X151348Y114287D01*
X150901Y114734D01*
X150316Y114976D01*
D02*
G37*
G36*
X107781Y101591D02*
X107148D01*
X106564Y101348D01*
X106116Y100901D01*
X105874Y100316D01*
Y99684D01*
X106116Y99099D01*
X106564Y98652D01*
X107148Y98409D01*
X107781D01*
X108365Y98652D01*
X108813Y99099D01*
X109055Y99684D01*
Y100316D01*
X108813Y100901D01*
X108365Y101348D01*
X107781Y101591D01*
D02*
G37*
G36*
X66852Y95291D02*
X66219D01*
X65635Y95049D01*
X65187Y94602D01*
X64945Y94017D01*
Y93388D01*
X64567Y93009D01*
X64371Y92716D01*
X64302Y92371D01*
Y91881D01*
X64371Y91536D01*
X64567Y91243D01*
X64943Y90866D01*
Y90650D01*
X65012Y90304D01*
X65208Y90011D01*
X65501Y89815D01*
X65847Y89746D01*
X66437D01*
X66783Y89815D01*
X67076Y90011D01*
X67271Y90304D01*
X67340Y90650D01*
Y91240D01*
X67271Y91586D01*
X67189Y91709D01*
X67277Y92216D01*
X67332Y92309D01*
X67436Y92352D01*
X67884Y92800D01*
X68126Y93384D01*
Y94017D01*
X67884Y94602D01*
X67436Y95049D01*
X66852Y95291D01*
D02*
G37*
G36*
X98742Y84661D02*
X98109D01*
X97524Y84419D01*
X97077Y83972D01*
X96835Y83387D01*
Y82754D01*
X97077Y82170D01*
X97524Y81722D01*
X98109Y81480D01*
X98742D01*
X99326Y81722D01*
X99774Y82170D01*
X100016Y82754D01*
Y83387D01*
X99774Y83972D01*
X99326Y84419D01*
X98742Y84661D01*
D02*
G37*
G36*
X91683Y78134D02*
X87057D01*
X86577Y78039D01*
X86170Y77767D01*
X85898Y77360D01*
X85803Y76880D01*
Y75600D01*
X85898Y75120D01*
X86170Y74713D01*
X86577Y74441D01*
X87057Y74346D01*
X91683D01*
X92163Y74441D01*
X92570Y74713D01*
X92842Y75120D01*
X92937Y75600D01*
Y76880D01*
X92842Y77360D01*
X92570Y77767D01*
X92163Y78039D01*
X91683Y78134D01*
D02*
G37*
G36*
X35089Y76144D02*
X34006D01*
X33564Y76056D01*
X33190Y75806D01*
X32940Y75432D01*
X32852Y74990D01*
Y73041D01*
X32940Y72600D01*
X33190Y72225D01*
X33564Y71975D01*
X34006Y71887D01*
X35089D01*
X35530Y71975D01*
X35905Y72225D01*
X36155Y72600D01*
X36243Y73041D01*
Y73113D01*
X44092D01*
X44438Y73181D01*
X44730Y73377D01*
X44761Y73408D01*
X45045D01*
X45372Y73081D01*
X45957Y72839D01*
X46589D01*
X47174Y73081D01*
X47621Y73529D01*
X47864Y74113D01*
Y74746D01*
X47621Y75331D01*
X47174Y75778D01*
X46589Y76020D01*
X45957D01*
X45372Y75778D01*
X44925Y75331D01*
X44876Y75214D01*
X44387D01*
X44387Y75214D01*
X44042Y75146D01*
X43749Y74950D01*
X43718Y74919D01*
X36243D01*
Y74990D01*
X36155Y75432D01*
X35905Y75806D01*
X35530Y76056D01*
X35089Y76144D01*
D02*
G37*
G36*
X70423Y73134D02*
X65797D01*
X65317Y73039D01*
X64910Y72767D01*
X64638Y72360D01*
X64543Y71880D01*
Y70600D01*
X64638Y70120D01*
X64910Y69713D01*
X65317Y69441D01*
X65797Y69346D01*
X70423D01*
X70903Y69441D01*
X71310Y69713D01*
X71582Y70120D01*
X71678Y70600D01*
Y71880D01*
X71582Y72360D01*
X71310Y72767D01*
X70903Y73039D01*
X70423Y73134D01*
D02*
G37*
G36*
X145514Y76891D02*
X142266D01*
X141402Y76719D01*
X140669Y76230D01*
X140180Y75498D01*
X140008Y74634D01*
Y70401D01*
X140180Y69537D01*
X140669Y68805D01*
X141402Y68315D01*
X142266Y68143D01*
X145514D01*
X146378Y68315D01*
X147111Y68805D01*
X147594Y69528D01*
X147600Y69537D01*
X148140Y69689D01*
X148312Y69518D01*
X148896Y69276D01*
X149529D01*
X150114Y69518D01*
X150561Y69965D01*
X150803Y70550D01*
Y71183D01*
X150561Y71767D01*
X150114Y72215D01*
X149529Y72457D01*
X148896D01*
X148312Y72215D01*
X148272Y72175D01*
X147772Y72382D01*
Y74634D01*
X147600Y75498D01*
X147111Y76230D01*
X146378Y76719D01*
X145514Y76891D01*
D02*
G37*
G36*
X16294Y54877D02*
X15661D01*
X15077Y54635D01*
X14629Y54187D01*
X14387Y53603D01*
Y52970D01*
X14629Y52385D01*
X15077Y51938D01*
X15661Y51696D01*
X16294D01*
X16879Y51938D01*
X17326Y52385D01*
X17568Y52970D01*
Y53603D01*
X17326Y54187D01*
X16879Y54635D01*
X16294Y54877D01*
D02*
G37*
G36*
X147717Y55559D02*
X146771D01*
X145858Y55314D01*
X145039Y54842D01*
X144371Y54173D01*
X143898Y53354D01*
X143654Y52441D01*
Y51496D01*
X143898Y50583D01*
X144371Y49764D01*
X145039Y49095D01*
X145858Y48623D01*
X146771Y48378D01*
X147717D01*
X148630Y48623D01*
X149449Y49095D01*
X150117Y49764D01*
X150590Y50583D01*
X150835Y51496D01*
Y52441D01*
X150590Y53354D01*
X150117Y54173D01*
X149449Y54842D01*
X148630Y55314D01*
X147717Y55559D01*
D02*
G37*
G36*
X138521Y53875D02*
X137888D01*
X137304Y53633D01*
X136856Y53186D01*
X136614Y52601D01*
Y51968D01*
X136856Y51384D01*
X137302Y50939D01*
Y45046D01*
X136802Y44947D01*
X136782Y44995D01*
X136334Y45443D01*
X135749Y45685D01*
X135117D01*
X134532Y45443D01*
X134085Y44995D01*
X133843Y44411D01*
Y43778D01*
X134085Y43194D01*
X134530Y42748D01*
Y36931D01*
X134030Y36723D01*
X133972Y36781D01*
X133387Y37024D01*
X132755D01*
X132170Y36781D01*
X131722Y36334D01*
X131480Y35750D01*
Y35117D01*
X131722Y34532D01*
X131971Y34284D01*
Y19395D01*
X131497Y19234D01*
X131450Y19296D01*
X130627Y19927D01*
X129669Y20324D01*
X128642Y20459D01*
X128248D01*
X127220Y20324D01*
X126262Y19927D01*
X125440Y19296D01*
X124809Y18474D01*
X124412Y17516D01*
X124277Y16488D01*
X124412Y15460D01*
X124809Y14503D01*
X125440Y13680D01*
X126262Y13049D01*
X127220Y12652D01*
X127934Y12559D01*
X128001Y12045D01*
X127839Y11978D01*
X127392Y11531D01*
X127150Y10946D01*
Y10313D01*
X127392Y9729D01*
X127574Y9547D01*
X127774Y9187D01*
X127574Y8894D01*
X127360Y8680D01*
X127118Y8095D01*
Y7462D01*
X127360Y6878D01*
X127807Y6430D01*
X128392Y6188D01*
X129025D01*
X129609Y6430D01*
X130057Y6878D01*
X130299Y7462D01*
Y8060D01*
X134694Y12455D01*
X134889Y12748D01*
X134958Y13093D01*
Y20191D01*
X135458Y20526D01*
X135625Y20457D01*
X136257D01*
X136842Y20699D01*
X137289Y21146D01*
X137531Y21731D01*
Y22364D01*
X137289Y22948D01*
X136844Y23393D01*
Y25352D01*
X138843Y27352D01*
X139039Y27645D01*
X139108Y27990D01*
Y50939D01*
X139553Y51384D01*
X139795Y51968D01*
Y52601D01*
X139553Y53186D01*
X139106Y53633D01*
X138521Y53875D01*
D02*
G37*
G36*
X147717Y47685D02*
X146771D01*
X145858Y47440D01*
X145039Y46968D01*
X144371Y46299D01*
X143898Y45480D01*
X143654Y44567D01*
Y43622D01*
X143898Y42709D01*
X144371Y41890D01*
X145039Y41221D01*
X145858Y40749D01*
X146771Y40504D01*
X147717D01*
X148630Y40749D01*
X149449Y41221D01*
X150117Y41890D01*
X150590Y42709D01*
X150835Y43622D01*
Y44567D01*
X150590Y45480D01*
X150117Y46299D01*
X149449Y46968D01*
X148630Y47440D01*
X147717Y47685D01*
D02*
G37*
G36*
Y39811D02*
X146771D01*
X145858Y39566D01*
X145039Y39094D01*
X144371Y38425D01*
X143898Y37606D01*
X143654Y36693D01*
Y35748D01*
X143898Y34835D01*
X144371Y34016D01*
X145039Y33347D01*
X145858Y32875D01*
X146771Y32630D01*
X147717D01*
X148630Y32875D01*
X149449Y33347D01*
X150117Y34016D01*
X150590Y34835D01*
X150835Y35748D01*
Y36693D01*
X150590Y37606D01*
X150117Y38425D01*
X149449Y39094D01*
X148630Y39566D01*
X147717Y39811D01*
D02*
G37*
G36*
X135433Y130561D02*
X9843D01*
X9391Y130373D01*
X9391Y130373D01*
X5060Y126042D01*
X4873Y125591D01*
Y121260D01*
Y118898D01*
Y100394D01*
X5060Y99942D01*
X9391Y95611D01*
X9843Y95424D01*
X31625Y95424D01*
X32070Y94979D01*
X31878Y94517D01*
X25069D01*
X24617Y94330D01*
X24430Y93878D01*
Y79941D01*
X24617Y79489D01*
X24632Y79474D01*
X24700Y79132D01*
X25056Y78599D01*
X25589Y78243D01*
X25931Y78175D01*
X25995Y78111D01*
X26447Y77924D01*
X32766D01*
X33218Y78111D01*
X37265Y82158D01*
X37888Y82074D01*
X38131Y81832D01*
X38583Y81644D01*
X39370D01*
X39822Y81832D01*
X40009Y82284D01*
Y82773D01*
X40502Y83153D01*
X40509Y83153D01*
X40994D01*
X41320Y83218D01*
X41597Y83403D01*
X41867D01*
X42144Y83218D01*
X42470Y83153D01*
X42963D01*
X43289Y83218D01*
X43566Y83403D01*
X43751Y83679D01*
X43802Y83939D01*
X46097D01*
X46150Y83904D01*
X46457Y83843D01*
X47638D01*
X47945Y83904D01*
X48073Y83990D01*
X48510Y83821D01*
X48573Y83768D01*
Y79528D01*
X48761Y79076D01*
X50148Y77688D01*
Y77559D01*
X50335Y77107D01*
X50787Y76920D01*
X53937D01*
X54389Y77107D01*
X55570Y78288D01*
X55757Y78740D01*
Y87402D01*
X55570Y87854D01*
X52814Y90610D01*
X52362Y90797D01*
X42279D01*
X41847Y91191D01*
Y93258D01*
X41820Y93397D01*
X48260Y99837D01*
X48456Y100130D01*
X48503Y100368D01*
X51722D01*
X52241Y100471D01*
X52680Y100765D01*
X52974Y101204D01*
X53077Y101722D01*
Y103199D01*
X52974Y103717D01*
X52680Y104157D01*
X52241Y104451D01*
X51722Y104554D01*
X47490D01*
X46972Y104451D01*
X46532Y104157D01*
X46238Y103717D01*
X46135Y103199D01*
Y101722D01*
X46238Y101204D01*
X46532Y100765D01*
X46541Y100673D01*
X40509Y94641D01*
X40009Y94848D01*
Y103543D01*
X39822Y103995D01*
X37870Y105947D01*
X38077Y106447D01*
X112007Y106447D01*
X112126Y106035D01*
X112130Y105947D01*
X110572Y104389D01*
X110384Y103937D01*
Y98296D01*
X109184Y97096D01*
X104724D01*
X104272Y96909D01*
X100729Y93365D01*
X100542Y92913D01*
Y81890D01*
X100729Y81438D01*
X101910Y80257D01*
X102362Y80069D01*
X103287D01*
X103477Y79991D01*
X104183Y79898D01*
X108415D01*
X109122Y79991D01*
X109311Y80069D01*
X111940D01*
X114715Y77294D01*
Y70737D01*
X108209Y64231D01*
X108022Y63779D01*
X108022Y34646D01*
X108209Y34194D01*
X110965Y31438D01*
X111417Y31251D01*
X123228D01*
X123680Y31438D01*
X128011Y35768D01*
X128198Y36220D01*
X128198Y56034D01*
X138641Y66477D01*
X138828Y66929D01*
Y76901D01*
X142972Y81044D01*
X143159Y81496D01*
X143159Y122835D01*
X142972Y123287D01*
X135885Y130373D01*
X135433Y130561D01*
D02*
G37*
G36*
X6222Y40567D02*
X5589D01*
X5004Y40325D01*
X4557Y39877D01*
X4315Y39293D01*
Y38660D01*
X4557Y38075D01*
X5002Y37630D01*
Y31130D01*
X4774D01*
X4217Y31019D01*
X3745Y30704D01*
X3429Y30232D01*
X3319Y29675D01*
Y27805D01*
X3429Y27248D01*
X3745Y26776D01*
X4217Y26461D01*
X4774Y26350D01*
X6447D01*
X7004Y26461D01*
X7476Y26776D01*
X7791Y27248D01*
X7902Y27805D01*
Y29675D01*
X7791Y30232D01*
X7476Y30704D01*
X7004Y31019D01*
X6809Y31058D01*
Y37630D01*
X7254Y38075D01*
X7496Y38660D01*
Y39293D01*
X7254Y39877D01*
X6807Y40325D01*
X6222Y40567D01*
D02*
G37*
G36*
X147717Y31937D02*
X146771D01*
X145858Y31692D01*
X145039Y31220D01*
X144371Y30551D01*
X143898Y29732D01*
X143654Y28819D01*
Y27874D01*
X143898Y26961D01*
X144371Y26142D01*
X145039Y25473D01*
X145858Y25001D01*
X146771Y24756D01*
X147717D01*
X148630Y25001D01*
X149449Y25473D01*
X150117Y26142D01*
X150590Y26961D01*
X150835Y27874D01*
Y28819D01*
X150590Y29732D01*
X150117Y30551D01*
X149449Y31220D01*
X148630Y31692D01*
X147717Y31937D01*
D02*
G37*
G36*
X66043Y20096D02*
X65453D01*
X65107Y20027D01*
X64814Y19831D01*
X64618Y19538D01*
X64550Y19193D01*
Y18977D01*
X63999Y18426D01*
X63881Y18444D01*
X63513Y18647D01*
Y19092D01*
X63444Y19438D01*
X63248Y19731D01*
X62955Y19927D01*
X62609Y19995D01*
X62019D01*
X61673Y19927D01*
X61380Y19731D01*
X61185Y19438D01*
X61116Y19092D01*
Y18502D01*
X61185Y18156D01*
X61346Y17915D01*
X61255Y17677D01*
X61101Y17449D01*
X60338D01*
X60310Y17491D01*
X60017Y17686D01*
X59671Y17755D01*
X59081D01*
X58735Y17686D01*
X58442Y17491D01*
X58246Y17198D01*
X58178Y16852D01*
Y16261D01*
X58246Y15916D01*
X58442Y15623D01*
X58735Y15427D01*
X59081Y15358D01*
X59671D01*
X60017Y15427D01*
X60310Y15623D01*
X60324Y15643D01*
X61247D01*
X61250Y15634D01*
X61582Y15302D01*
X61467Y14874D01*
X61428Y14798D01*
X61102Y14734D01*
X60809Y14538D01*
X59856Y13584D01*
X29264D01*
X28918Y13516D01*
X28625Y13320D01*
X28625Y13320D01*
X28289Y12984D01*
X28159D01*
X27984Y13159D01*
X27399Y13402D01*
X26766D01*
X26182Y13159D01*
X25734Y12712D01*
X25492Y12127D01*
Y11495D01*
X25734Y10910D01*
X26182Y10463D01*
X26766Y10221D01*
X27399D01*
X27984Y10463D01*
X28431Y10910D01*
X28542Y11178D01*
X28663D01*
X29009Y11246D01*
X29302Y11442D01*
X29638Y11778D01*
X30713D01*
X30905Y11316D01*
X25510Y5921D01*
X24881D01*
X24296Y5679D01*
X23848Y5232D01*
X23606Y4647D01*
Y4014D01*
X23848Y3430D01*
X24296Y2982D01*
X24881Y2740D01*
X25513D01*
X26098Y2982D01*
X26545Y3430D01*
X26787Y4014D01*
Y4644D01*
X32740Y10597D01*
X45289D01*
X45895Y9991D01*
X46187Y9796D01*
X46533Y9727D01*
X49441D01*
X49886Y9281D01*
X50249Y9132D01*
X50149Y8631D01*
X39597D01*
X39537Y8775D01*
X39090Y9222D01*
X38505Y9465D01*
X37873D01*
X37288Y9222D01*
X36841Y8775D01*
X36598Y8190D01*
Y7564D01*
X36597Y7556D01*
X36246Y7102D01*
X35904D01*
X35320Y6860D01*
X34872Y6413D01*
X34630Y5828D01*
Y5195D01*
X34872Y4611D01*
X35320Y4163D01*
X35904Y3921D01*
X36537D01*
X37121Y4163D01*
X37567Y4609D01*
X38730D01*
X39064Y4109D01*
X38961Y3860D01*
Y3227D01*
X39203Y2642D01*
X39650Y2195D01*
X40235Y1953D01*
X40868D01*
X41452Y2195D01*
X41900Y2642D01*
X41980Y2837D01*
X79559D01*
X79808Y2589D01*
X80392Y2347D01*
X81025D01*
X81610Y2589D01*
X82057Y3036D01*
X82299Y3621D01*
Y4253D01*
X82057Y4838D01*
X81610Y5285D01*
X81241Y5438D01*
Y5979D01*
X81610Y6132D01*
X82057Y6579D01*
X82299Y7164D01*
Y7797D01*
X82057Y8381D01*
X81610Y8829D01*
X81255Y8976D01*
X81007Y9484D01*
X81003Y9571D01*
X81003Y9571D01*
X81588Y9813D01*
X82035Y10261D01*
X82278Y10845D01*
Y11478D01*
X82035Y12062D01*
X81588Y12510D01*
X81003Y12752D01*
X80371D01*
X79786Y12510D01*
X79339Y12062D01*
X79097Y11478D01*
Y10845D01*
X79142Y10735D01*
X77039Y8631D01*
X70249D01*
X70042Y9132D01*
X70246Y9335D01*
X70488Y9920D01*
Y10553D01*
X70398Y10771D01*
X70732Y11271D01*
X72804D01*
X73149Y11339D01*
X73442Y11535D01*
X74654Y12747D01*
X74850Y13040D01*
X74919Y13386D01*
X74919Y13386D01*
Y15977D01*
X75364Y16422D01*
X75606Y17007D01*
Y17639D01*
X75364Y18224D01*
X74917Y18671D01*
X74332Y18913D01*
X73699D01*
X73115Y18671D01*
X72667Y18224D01*
X72425Y17639D01*
Y17007D01*
X72667Y16422D01*
X73113Y15977D01*
Y13760D01*
X72430Y13077D01*
X67377D01*
X67043Y13577D01*
X67112Y13743D01*
Y14376D01*
X66870Y14961D01*
X66423Y15408D01*
X65838Y15650D01*
X65205D01*
X64621Y15408D01*
X64233Y15020D01*
X64044Y15024D01*
X63894Y15281D01*
X63869Y15556D01*
X63947Y15634D01*
X64175Y16186D01*
X64227Y16197D01*
X64520Y16393D01*
X65827Y17699D01*
X66043D01*
X66389Y17768D01*
X66682Y17964D01*
X66878Y18257D01*
X66947Y18602D01*
Y19193D01*
X66878Y19538D01*
X66682Y19831D01*
X66389Y20027D01*
X66043Y20096D01*
D02*
G37*
%LPD*%
G36*
X121260Y107087D02*
X18110Y107087D01*
Y118110D01*
X121260D01*
Y107087D01*
D02*
G37*
G36*
X34124Y92648D02*
X34124Y88189D01*
X35699Y86614D01*
X37402D01*
Y83199D01*
X32766Y78563D01*
X26447D01*
X25069Y79941D01*
Y93878D01*
X32894D01*
X34124Y92648D01*
D02*
G37*
G36*
X55118Y87402D02*
Y78740D01*
X53937Y77559D01*
X50787D01*
Y77953D01*
X49213Y79528D01*
Y86221D01*
X48425Y87008D01*
X40157D01*
X39370Y86221D01*
X39370Y82284D01*
X38583D01*
X38189Y82677D01*
Y88189D01*
X40157Y90158D01*
X52362D01*
X55118Y87402D01*
D02*
G37*
G36*
X142520Y122835D02*
X142520Y81496D01*
X138189Y77165D01*
X138189D01*
Y66929D01*
X127559Y56299D01*
X127559Y36220D01*
X123228Y31890D01*
X111417D01*
X108661Y34646D01*
X108661Y63779D01*
X115354Y70473D01*
Y77559D01*
X112205Y80709D01*
X102362D01*
X101181Y81890D01*
Y92913D01*
X104724Y96457D01*
X109449D01*
X111024Y98032D01*
Y103937D01*
X112598Y105512D01*
X122835D01*
X123622Y106299D01*
X123622Y118898D01*
X16535Y118898D01*
Y106693D01*
X17323Y105905D01*
X37008D01*
X39370Y103543D01*
Y90945D01*
X38976Y90551D01*
X37402Y90551D01*
X31890Y96063D01*
X9843Y96063D01*
X5512Y100394D01*
Y118898D01*
Y121260D01*
D01*
Y125591D01*
X9843Y129921D01*
X135433D01*
X142520Y122835D01*
D02*
G37*
D24*
X82677Y113878D02*
D03*
X117717Y114272D02*
D03*
X60236Y113878D02*
D03*
X39764D02*
D03*
X99213Y114272D02*
D03*
X22047Y113878D02*
D03*
X82677Y123917D02*
D03*
X117717Y124311D02*
D03*
X60236Y123917D02*
D03*
X39764D02*
D03*
X99213Y124311D02*
D03*
X22047Y123917D02*
D03*
D32*
X21654Y32776D02*
D03*
Y39665D02*
D03*
D62*
X131328Y13217D02*
X131672Y13534D01*
X28346Y46850D02*
X28396Y46801D01*
X22835Y32776D02*
X23047Y32988D01*
X21654Y32776D02*
X21965Y32465D01*
X68396Y91053D02*
X68504Y90945D01*
X16043Y58268D02*
X16388Y58612D01*
X54551Y20716D02*
X54707Y20561D01*
X91633Y85953D02*
X92001Y85585D01*
X91633Y85953D02*
Y86292D01*
X68441Y86240D02*
X69399Y87198D01*
X68110Y86240D02*
X68441D01*
X89370Y81240D02*
Y86240D01*
X67979Y86109D02*
X68110Y86240D01*
X61789Y86109D02*
X62424Y86745D01*
X65453Y20967D02*
X65487Y21001D01*
X62080Y21159D02*
Y21393D01*
X62314Y21159D02*
X62609Y21454D01*
X56693Y58661D02*
X56837Y58518D01*
X49835Y53272D02*
Y53409D01*
X49856Y53091D02*
Y53293D01*
X11614Y28614D02*
X11740Y28740D01*
X35498Y33089D02*
X35915D01*
X31053Y46801D02*
X31102Y46752D01*
X62980Y16535D02*
X63476Y17031D01*
X62314Y18797D02*
X62456Y18655D01*
X59387Y16546D02*
X62588D01*
X62456Y16678D02*
X62598Y16535D01*
X62980D01*
X62456Y16678D02*
Y18655D01*
X63881Y17031D02*
X65748Y18898D01*
X63476Y17031D02*
X63881D01*
X62906Y10236D02*
X68898D01*
X145541Y70866D02*
X149213D01*
X21900Y43012D02*
X31102D01*
X59055Y58661D02*
X61316Y60922D01*
Y60975D01*
X46866Y58680D02*
Y60400D01*
X46857Y58671D02*
X46866Y58680D01*
Y60400D02*
X46867Y60401D01*
X105151Y10485D02*
Y10547D01*
X103508Y8843D02*
X105151Y10485D01*
X97783Y8843D02*
X103508D01*
X21425Y42913D02*
X21654D01*
X21801Y42766D01*
Y40699D02*
Y42766D01*
X21654Y42913D02*
X21703Y42963D01*
X109744Y114665D02*
X110236D01*
X88189D02*
X88681D01*
X110625Y20713D02*
X111006D01*
X109943Y20031D02*
X110625Y20713D01*
X108593Y20031D02*
X109943D01*
X106672Y18110D02*
X108593Y20031D01*
X96476Y71240D02*
X98943Y68774D01*
Y67199D02*
Y68774D01*
X87008Y71653D02*
X87421Y71240D01*
X96476D01*
X98943Y67199D02*
X99213Y66929D01*
X58366Y115059D02*
X64567Y108858D01*
X57874Y115059D02*
X58366D01*
X66034Y90960D02*
Y91053D01*
X30266Y42963D02*
X30315Y43012D01*
X65205Y91881D02*
Y92371D01*
Y91881D02*
X66034Y91053D01*
X65205Y92371D02*
X66535Y93701D01*
X44387Y74311D02*
X46154D01*
X34547Y74016D02*
X44092D01*
X44387Y74311D01*
X46154D02*
X46273Y74430D01*
X45177Y20079D02*
X47051Y21953D01*
X20079Y20079D02*
X45177D01*
X11904Y52362D02*
X15448Y48819D01*
X19685D01*
X7480Y52362D02*
X11904D01*
X18898Y26772D02*
X26772D01*
X10236Y35433D02*
X18898Y26772D01*
X10236Y35433D02*
Y50394D01*
X26772Y26772D02*
X29610Y29610D01*
X38475Y30305D02*
X38699D01*
X29610Y29610D02*
X37781D01*
X38475Y30305D01*
X65564Y51575D02*
X83071D01*
X60695Y46706D02*
X65564Y51575D01*
X82226Y61024D02*
X82370Y60879D01*
X64387Y61024D02*
X82226D01*
X37402Y65443D02*
Y67716D01*
X62550Y62861D02*
X64387Y61024D01*
X40005Y62840D02*
X52177D01*
X52199Y62861D01*
X37402Y65443D02*
X40005Y62840D01*
X52199Y62861D02*
X62550D01*
X30168Y34937D02*
X33758Y34133D01*
X34523Y34481D01*
X41150Y24413D02*
X43068Y26331D01*
X33914Y24413D02*
X41150D01*
X38189Y7874D02*
X38335Y7728D01*
X77413D02*
X80709Y11024D01*
X38335Y7728D02*
X77413D01*
X128740Y10630D02*
X131328Y13217D01*
X132874Y35236D02*
X133071Y35433D01*
X131672Y13534D02*
X132706Y14592D01*
X132874Y14764D02*
Y35236D01*
X132706Y14592D02*
X132874Y14764D01*
X31558Y27310D02*
X33677D01*
X31496Y27248D02*
X31558Y27310D01*
X33677D02*
X35149Y25839D01*
X39801D01*
X41483Y27521D01*
X41483D01*
X128708Y7779D02*
X128740D01*
X36220Y5512D02*
X78740D01*
X80709Y7480D01*
X128740Y7779D02*
X134055Y13093D01*
Y25511D01*
X135433Y26889D02*
Y44094D01*
X134055Y25511D02*
X135433Y26889D01*
X80512Y3740D02*
X80709Y3937D01*
X40748Y3740D02*
X80512D01*
X40551Y3543D02*
X40748Y3740D01*
X38903Y27724D02*
X40091Y28913D01*
X35930Y27724D02*
X38903D01*
X135941Y22047D02*
Y25727D01*
X138205Y27990D01*
Y52285D01*
X43242Y21346D02*
X45241Y23345D01*
X31114Y21346D02*
X43242D01*
X10236Y24016D02*
X31644D01*
X30331Y22130D02*
X31114Y21346D01*
X33133Y22527D02*
X42048D01*
X31644Y24016D02*
X33133Y22527D01*
X42048D02*
X44258Y24737D01*
X17717Y22130D02*
X30331D01*
X44258Y24737D02*
X44267D01*
X28880Y38583D02*
X28987D01*
X28818Y38521D02*
X28880Y38583D01*
X5906Y28740D02*
Y38976D01*
X25591Y49606D02*
X27165Y51181D01*
X41339D01*
X65361Y13899D02*
X65522Y14060D01*
X60230Y12681D02*
X61448Y13899D01*
X65361D01*
X62992Y12205D02*
X64710D01*
X72804Y12174D02*
X74016Y13386D01*
X64741Y12174D02*
X72804D01*
X64710Y12205D02*
X64741Y12174D01*
X47621Y100476D02*
Y101313D01*
X40909Y93763D02*
X47621Y100476D01*
Y101313D02*
X48769Y102461D01*
X40748Y92224D02*
X40909Y92385D01*
Y93763D01*
X48769Y102461D02*
X49606D01*
X42717Y85039D02*
X42913Y84842D01*
X47441D01*
X68314Y76240D02*
X74729D01*
X82678Y68291D01*
Y67782D02*
X86166Y64294D01*
X83166Y65624D02*
X84169Y64621D01*
X45627Y65624D02*
X83166D01*
X43859Y64725D02*
X44128Y64456D01*
X44909Y64443D02*
X80961D01*
X82678Y67782D02*
Y68291D01*
X40550Y70701D02*
X45627Y65624D01*
X44128Y64456D02*
X44897D01*
X44909Y64443D01*
X80961D02*
X81936Y63468D01*
X82282D01*
X62076Y59249D02*
X81333D01*
X54707Y51880D02*
X62076Y59249D01*
X42837Y59207D02*
X44064Y60434D01*
X44277D01*
X36577Y53365D02*
X42419Y59207D01*
X42837D01*
X84707Y58994D02*
X88090Y55610D01*
X63091Y57480D02*
X80524D01*
X81589Y58994D02*
X84707D01*
X80524Y57480D02*
X80641Y57363D01*
X81333Y59249D02*
X81589Y58994D01*
X67234Y33089D02*
X69468Y30854D01*
X94980Y23228D02*
X99902Y18307D01*
Y17913D02*
Y18110D01*
Y18307D01*
X113878Y17618D02*
Y17717D01*
X91186Y23228D02*
X94980D01*
X88824Y25591D02*
X91186Y23228D01*
X103445Y14370D02*
X110630D01*
X113878Y17618D01*
X99902Y17913D02*
X103445Y14370D01*
X69468Y30854D02*
X80258D01*
X85522Y25591D01*
X88824D01*
X27159Y18898D02*
X46780D01*
X25203Y16941D02*
X27159Y18898D01*
X24785Y16941D02*
X25203D01*
X23592Y15748D02*
X24785Y16941D01*
X23311Y15748D02*
X23592D01*
X46780Y18898D02*
X48443Y20561D01*
X45241Y23345D02*
X45659D01*
X38699Y42467D02*
Y42545D01*
X35863Y45381D02*
X38699Y42545D01*
X35863Y45381D02*
Y45395D01*
X89764Y10366D02*
X91287Y8843D01*
X61666Y27521D02*
X63286Y25902D01*
X89764Y10366D02*
Y20472D01*
X63286Y25902D02*
X77636D01*
X88417Y21819D02*
X89764Y20472D01*
X77636Y25902D02*
X81718Y21819D01*
X88417D01*
X95027Y12583D02*
X111138D01*
X91287Y8843D02*
X95027Y12583D01*
X111138D02*
X113878Y9843D01*
X41295Y48286D02*
X43068Y46514D01*
X40806Y48286D02*
X41295D01*
X38976Y46457D02*
X40806Y48286D01*
X76239Y46333D02*
X76896D01*
X76115Y46457D02*
X76239Y46333D01*
X66168Y46457D02*
X76115D01*
X63633Y43922D02*
X66168Y46457D01*
X63478Y43922D02*
X63633D01*
X76896Y46333D02*
X77165Y46063D01*
X63036Y54642D02*
X75590D01*
X57490Y49096D02*
X63036Y54642D01*
X29264Y12681D02*
X60230D01*
X27083Y11811D02*
X27352Y12081D01*
X28663D01*
X29264Y12681D01*
X64916Y42602D02*
X66288Y43974D01*
X64916Y42484D02*
Y42602D01*
X78474Y43906D02*
X78744Y43636D01*
X77761Y43906D02*
X78474D01*
X66288Y43974D02*
X77693D01*
X77761Y43906D01*
X56099Y50488D02*
X63091Y57480D01*
X82581Y37130D02*
X82690Y37020D01*
X73350Y37130D02*
X82581D01*
X73228Y37008D02*
X73350Y37130D01*
X63058Y28913D02*
X64888Y27083D01*
X79450D02*
X80663Y25870D01*
X80905D01*
X64888Y27083D02*
X79450D01*
X37299Y40744D02*
X37307D01*
X35121Y42913D02*
X35129D01*
X37299Y40744D01*
X64450Y30305D02*
X65842Y28913D01*
X61789Y82373D02*
Y82435D01*
Y82373D02*
X62922Y81240D01*
X68221D02*
X72697D01*
X62922D02*
X68110D01*
X87573Y23926D02*
X87795Y23705D01*
X72697Y81240D02*
X88189Y65748D01*
X65842Y28913D02*
X80529D01*
X85516Y23926D01*
X87573D01*
X66262Y41138D02*
X66645D01*
X67257Y41750D01*
X79116D01*
X80709Y40157D01*
X88090Y37303D02*
Y55610D01*
X80804Y35244D02*
X80914Y35134D01*
X85922D01*
X88090Y37303D01*
X60274Y26129D02*
X62225Y24179D01*
X73853D02*
X74016Y24016D01*
X62225Y24179D02*
X73853D01*
X46533Y10630D02*
X50787D01*
X28987Y38583D02*
X33758Y38308D01*
X34523Y37960D01*
X32366Y11500D02*
X45663D01*
X46533Y10630D01*
X25197Y4331D02*
X32366Y11500D01*
X62086Y45314D02*
X64804Y48031D01*
X56693Y10795D02*
X56921Y11024D01*
X60243D01*
X61424Y12205D01*
X62992D01*
X74016Y13386D02*
Y17323D01*
X82284Y45276D02*
X84646D01*
X79528Y48031D02*
X82284Y45276D01*
X64804Y48031D02*
X79528D01*
X58882Y47704D02*
X63934Y52756D01*
X61779Y76444D02*
X68110D01*
X68314Y76240D01*
X86166Y64130D02*
Y64294D01*
X81721Y54556D02*
X86205D01*
X63934Y52756D02*
X79921D01*
X81721Y54556D01*
X67652Y39352D02*
X68851Y40551D01*
X67234Y39352D02*
X67652D01*
X68851Y40551D02*
X70269D01*
X102138Y26613D02*
X102649Y26102D01*
X114154D01*
X114272Y25984D01*
X101979Y26772D02*
X102138Y26613D01*
X93307Y26772D02*
X101979D01*
X71342Y34957D02*
Y39477D01*
X70269Y40551D02*
X71342Y39477D01*
X72941Y33358D02*
X81479D01*
X81502Y33382D01*
X71342Y34957D02*
X72941Y33358D01*
X81502Y33382D02*
X86697D01*
X93307Y26772D01*
X82284Y31496D02*
X86912D01*
X92818Y25591D01*
X84169Y62681D02*
Y64621D01*
Y62681D02*
X89272Y57579D01*
X92818Y25591D02*
X97174D01*
X88132Y27953D02*
X91675Y24409D01*
X96685D01*
X87789Y27953D02*
X88132D01*
X22717Y46872D02*
Y58249D01*
X17199Y41354D02*
X22717Y46872D01*
X17199Y39789D02*
Y41354D01*
X16929Y39520D02*
X17199Y39789D01*
X119146Y10677D02*
X119980Y9843D01*
X119146Y10677D02*
Y14041D01*
X118876Y14311D02*
X119146Y14041D01*
X105175Y21889D02*
X105885Y22599D01*
X99205Y21889D02*
X105175D01*
X97174Y25591D02*
X99695Y23070D01*
X96685Y24409D02*
X99205Y21889D01*
X89272Y35853D02*
X96421Y28704D01*
X119736Y17961D02*
X119980Y17717D01*
X119736Y17961D02*
Y20028D01*
X112268Y23780D02*
X112722Y23327D01*
X111779Y22599D02*
X112232Y22146D01*
X112722Y23327D02*
X115822D01*
X112232Y22146D02*
X117618D01*
X119736Y20028D01*
X117815Y25320D02*
X119710D01*
X120374Y25984D01*
X105885Y22599D02*
X111779D01*
X105396Y23780D02*
X112268D01*
X104686Y23070D02*
X105396Y23780D01*
X99695Y23070D02*
X104686D01*
X115822Y23327D02*
X117815Y25320D01*
X22717Y58249D02*
X22736Y58268D01*
X89272Y35853D02*
Y57579D01*
D63*
X147244Y59842D02*
D03*
D64*
X96457Y55709D02*
D03*
X116142D02*
D03*
D65*
X147244Y28346D02*
D03*
Y36220D02*
D03*
Y44094D02*
D03*
Y51968D02*
D03*
D66*
X78740Y147638D02*
D03*
X39370D02*
D03*
X118110D02*
D03*
D67*
X128445Y16488D02*
D03*
X84350Y16685D02*
D03*
D68*
X146063Y146063D02*
D03*
Y11417D02*
D03*
X11417D02*
D03*
Y146063D02*
D03*
D69*
X28346Y46850D02*
D03*
X49606Y57087D02*
D03*
X21965Y29134D02*
D03*
X11417Y74016D02*
D03*
X10492Y81102D02*
D03*
X13386Y58268D02*
D03*
X53937Y16142D02*
D03*
X44882Y9614D02*
D03*
X33940Y54951D02*
D03*
X62598Y16535D02*
D03*
X40945Y64961D02*
D03*
X51575Y38976D02*
D03*
X44094D02*
D03*
X48031Y35827D02*
D03*
X55512D02*
D03*
X68898Y10236D02*
D03*
X27953Y111024D02*
D03*
X28600Y113639D02*
D03*
X25591Y113386D02*
D03*
Y110630D02*
D03*
X107465Y100000D02*
D03*
X57874Y110630D02*
D03*
X92126Y110236D02*
D03*
X94882Y113386D02*
D03*
X96457Y110236D02*
D03*
X96850Y116142D02*
D03*
X99213Y113386D02*
D03*
X101575Y116142D02*
D03*
Y110236D02*
D03*
X80792Y67510D02*
D03*
X61316Y60975D02*
D03*
X46867Y60401D02*
D03*
X105151Y10547D02*
D03*
X75590Y39370D02*
D03*
X21425Y42913D02*
D03*
X149213Y70866D02*
D03*
X98425Y83071D02*
D03*
X104331Y66929D02*
D03*
Y61417D02*
D03*
Y55512D02*
D03*
X111006Y20713D02*
D03*
X99213Y66929D02*
D03*
X103150Y50000D02*
D03*
X96063Y45276D02*
D03*
X92520Y47244D02*
D03*
X92913Y42520D02*
D03*
X95669Y38189D02*
D03*
X15978Y53286D02*
D03*
X147638Y125984D02*
D03*
X149213Y128740D02*
D03*
Y123622D02*
D03*
X151181Y125984D02*
D03*
X148425Y110630D02*
D03*
X150000Y113386D02*
D03*
Y108268D02*
D03*
X151969Y110630D02*
D03*
X53291Y84252D02*
D03*
X66535Y93701D02*
D03*
X81480Y109449D02*
D03*
X46273Y74430D02*
D03*
X19685Y48819D02*
D03*
X7480Y52362D02*
D03*
X20079Y20079D02*
D03*
X10236Y50394D02*
D03*
X83071Y51575D02*
D03*
X82370Y60879D02*
D03*
X37402Y67716D02*
D03*
X122990Y124469D02*
D03*
X125984Y124409D02*
D03*
X124409Y122047D02*
D03*
Y127165D02*
D03*
X127559D02*
D03*
Y122047D02*
D03*
X129134Y124409D02*
D03*
X130709Y127165D02*
D03*
Y122047D02*
D03*
X132677Y124409D02*
D03*
X66691Y124469D02*
D03*
X69685Y124409D02*
D03*
X68110Y122047D02*
D03*
Y127165D02*
D03*
X71260D02*
D03*
Y122047D02*
D03*
X72835Y124409D02*
D03*
X74409Y127165D02*
D03*
Y122047D02*
D03*
X76378Y124409D02*
D03*
X54331D02*
D03*
X52362Y122047D02*
D03*
Y127165D02*
D03*
X50787Y124409D02*
D03*
X49213Y122047D02*
D03*
Y127165D02*
D03*
X46063D02*
D03*
Y122047D02*
D03*
X47638Y124409D02*
D03*
X115354Y66142D02*
D03*
X121260Y38583D02*
D03*
X124409Y36614D02*
D03*
X121260Y34252D02*
D03*
X124409Y40551D02*
D03*
X44643Y124469D02*
D03*
X112205Y99606D02*
D03*
X124409Y48031D02*
D03*
X121260Y46063D02*
D03*
X124409Y44488D02*
D03*
X121260Y42126D02*
D03*
X135039Y114961D02*
D03*
Y110236D02*
D03*
X8661Y120866D02*
D03*
Y124803D02*
D03*
X12205Y127559D02*
D03*
Y122835D02*
D03*
X132677Y84646D02*
D03*
X130709Y82284D02*
D03*
Y87402D02*
D03*
X129134Y84646D02*
D03*
X127559Y82284D02*
D03*
Y87402D02*
D03*
X124409D02*
D03*
Y82284D02*
D03*
X125984Y84646D02*
D03*
X122990Y84705D02*
D03*
X136614Y87402D02*
D03*
Y82284D02*
D03*
X138189Y84646D02*
D03*
X139764Y87402D02*
D03*
Y82284D02*
D03*
X139764Y90158D02*
D03*
X130709D02*
D03*
X133858D02*
D03*
X33914Y24413D02*
D03*
X128740Y10630D02*
D03*
X38189Y7874D02*
D03*
X80687Y11162D02*
D03*
X133071Y35433D02*
D03*
X31496Y27248D02*
D03*
X128708Y7779D02*
D03*
X80709Y7480D02*
D03*
X36220Y5512D02*
D03*
X135433Y44094D02*
D03*
X35930Y27724D02*
D03*
X80709Y3937D02*
D03*
X40551Y3543D02*
D03*
X135941Y22047D02*
D03*
X138205Y52285D02*
D03*
X28818Y38521D02*
D03*
X30168Y34937D02*
D03*
X65522Y14060D02*
D03*
X40550Y70701D02*
D03*
X44277Y60434D02*
D03*
X43859Y64725D02*
D03*
X80641Y57363D02*
D03*
X82282Y63468D02*
D03*
X41339Y51181D02*
D03*
X25591Y49606D02*
D03*
X23311Y15748D02*
D03*
X17717Y22130D02*
D03*
X35863Y45395D02*
D03*
X38976Y46457D02*
D03*
X77165Y46063D02*
D03*
X75590Y54642D02*
D03*
X27083Y11811D02*
D03*
X78744Y43636D02*
D03*
X73228Y37008D02*
D03*
X82690Y37020D02*
D03*
X80905Y25870D02*
D03*
X35121Y42913D02*
D03*
X87795Y23705D02*
D03*
X88189Y65748D02*
D03*
X80709Y40157D02*
D03*
X80804Y35244D02*
D03*
X74016Y24016D02*
D03*
X25197Y4331D02*
D03*
X50787Y10630D02*
D03*
X56693Y10795D02*
D03*
X84646Y45276D02*
D03*
X74016Y17323D02*
D03*
X86166Y64130D02*
D03*
X86205Y54556D02*
D03*
X10236Y24016D02*
D03*
X82284Y31496D02*
D03*
X87789Y27953D02*
D03*
X5906Y38976D02*
D03*
X16929Y39520D02*
D03*
X118876Y14311D02*
D03*
X96399Y28842D02*
D03*
X36577Y53365D02*
D03*
D77*
X29281Y85827D02*
D03*
X18750D02*
D03*
D78*
X68504Y90945D02*
D03*
X57014Y16557D02*
D03*
X56693Y58661D02*
D03*
X66142Y90945D02*
D03*
X59376Y16557D02*
D03*
X59055Y58661D02*
D03*
D79*
X53508Y53473D02*
D03*
X36108Y33290D02*
D03*
X47244Y22155D02*
D03*
X38892Y30506D02*
D03*
X60467Y46514D02*
D03*
X43068Y26331D02*
D03*
X41676Y27722D02*
D03*
X40284Y29114D02*
D03*
X54899Y52082D02*
D03*
X56291Y50690D02*
D03*
X57683Y49298D02*
D03*
X59075Y47906D02*
D03*
X61859Y45122D02*
D03*
X63251Y43730D02*
D03*
X64643Y42338D02*
D03*
X66035Y40946D02*
D03*
X67427Y39554D02*
D03*
X68819Y38162D02*
D03*
X34716Y34682D02*
D03*
X37500Y31898D02*
D03*
X44460Y24939D02*
D03*
X45852Y23547D02*
D03*
X48636Y20763D02*
D03*
X50028Y19371D02*
D03*
D80*
Y53473D02*
D03*
X54899Y20763D02*
D03*
X57683Y23547D02*
D03*
X59075Y24939D02*
D03*
X34716Y38162D02*
D03*
X36108Y39554D02*
D03*
X37500Y40946D02*
D03*
X38892Y42338D02*
D03*
X40284Y43730D02*
D03*
X41676Y45122D02*
D03*
X43068Y46514D02*
D03*
X44460Y47906D02*
D03*
X45852Y49298D02*
D03*
X47244Y50690D02*
D03*
X48636Y52082D02*
D03*
X68819Y34682D02*
D03*
X63251Y29114D02*
D03*
X64643Y30506D02*
D03*
X66035Y31898D02*
D03*
X67427Y33290D02*
D03*
X53508Y19371D02*
D03*
X61859Y27722D02*
D03*
X60467Y26331D02*
D03*
X56291Y22155D02*
D03*
D81*
X30807Y74016D02*
D03*
X34547D02*
D03*
D82*
X68110Y86240D02*
D03*
X89370Y81240D02*
D03*
Y86240D02*
D03*
Y71240D02*
D03*
X68110Y81240D02*
D03*
Y76240D02*
D03*
Y71240D02*
D03*
X89370Y76240D02*
D03*
D83*
X16634Y58268D02*
D03*
X11713Y28740D02*
D03*
X113878Y17717D02*
D03*
Y9843D02*
D03*
X114272Y25984D02*
D03*
X119980Y9843D02*
D03*
Y17717D02*
D03*
X120374Y25984D02*
D03*
X22736Y58268D02*
D03*
X5610Y28740D02*
D03*
D84*
X61779Y72901D02*
D03*
X61789Y85979D02*
D03*
Y82435D02*
D03*
X61779Y76444D02*
D03*
D85*
X42717Y92224D02*
D03*
X36811Y85039D02*
D03*
X38780D02*
D03*
Y92224D02*
D03*
X36811Y92224D02*
D03*
X40748Y92224D02*
D03*
X42717Y85039D02*
D03*
X40748D02*
D03*
D86*
X46865Y56379D02*
D03*
X65748Y21260D02*
D03*
X62314Y21159D02*
D03*
X46865Y58741D02*
D03*
X62992Y9843D02*
D03*
X65748Y18898D02*
D03*
X62314Y18797D02*
D03*
X62992Y12205D02*
D03*
D87*
X31102Y46752D02*
D03*
Y43012D02*
D03*
D88*
X31496Y108661D02*
D03*
X49606Y110925D02*
D03*
X31496Y100197D02*
D03*
X49606Y102461D02*
D03*
D89*
X143890Y72517D02*
D03*
X102854Y43701D02*
D03*
X133851Y72517D02*
D03*
X112894Y43701D02*
D03*
D90*
X106299Y72933D02*
D03*
Y85335D02*
D03*
D91*
X97783Y8843D02*
D03*
X106672Y18110D02*
D03*
X100176D02*
D03*
X91287Y8843D02*
D03*
D92*
X102138Y33109D02*
D03*
Y26613D02*
D03*
D93*
X47047Y87205D02*
D03*
Y84842D02*
D03*
D94*
X51768Y36422D02*
D03*
M02*
