G04*
G04 #@! TF.GenerationSoftware,Altium Limited,Altium Designer,26.6.0 (10)*
G04*
G04 Layer_Color=16711935*
G04 Board_Origin=0|0*
%FSLAX25Y25*%
%MOIN*%
G70*
G04*
G04 #@! TF.SameCoordinates,0E061EC5-0034-4C87-9B6E-AF0799176EB5*
G04*
G04*
G04 #@! TF.FilePolarity,Positive*
G04*
G01*
G75*
%ADD61C,0.01000*%
D61*
X0Y10039D02*
X48Y9055D01*
X193Y8081D01*
X432Y7125D01*
X764Y6197D01*
X1185Y5307D01*
X1692Y4462D01*
X2279Y3670D01*
X2940Y2940D01*
X3670Y2279D01*
X4462Y1692D01*
X5307Y1185D01*
X6197Y764D01*
X7125Y432D01*
X8081Y193D01*
X9055Y48D01*
X10039Y0D01*
Y157480D02*
X9055Y157432D01*
X8081Y157287D01*
X7125Y157048D01*
X6197Y156716D01*
X5307Y156295D01*
X4462Y155788D01*
X3670Y155201D01*
X2940Y154540D01*
X2279Y153810D01*
X1692Y153018D01*
X1185Y152173D01*
X764Y151283D01*
X432Y150355D01*
X193Y149399D01*
X48Y148425D01*
X0Y147441D01*
X147441Y0D02*
X148425Y48D01*
X149399Y193D01*
X150355Y432D01*
X151283Y764D01*
X152173Y1185D01*
X153018Y1692D01*
X153810Y2279D01*
X154540Y2940D01*
X155201Y3670D01*
X155788Y4462D01*
X156295Y5307D01*
X156716Y6197D01*
X157048Y7125D01*
X157287Y8081D01*
X157432Y9055D01*
X157480Y10039D01*
Y147441D02*
X157432Y148425D01*
X157287Y149399D01*
X157048Y150355D01*
X156716Y151283D01*
X156295Y152173D01*
X155788Y153018D01*
X155201Y153810D01*
X154540Y154540D01*
X153810Y155201D01*
X153018Y155788D01*
X152173Y156295D01*
X151283Y156716D01*
X150355Y157048D01*
X149399Y157287D01*
X148425Y157432D01*
X147441Y157480D01*
X10039D02*
X147441D01*
X0Y10039D02*
Y147441D01*
X157480Y10039D02*
Y147441D01*
X10039Y0D02*
X147441D01*
M02*
