G04*
G04 #@! TF.GenerationSoftware,Altium Limited,Altium Designer,26.6.0 (10)*
G04*
G04 Layer_Color=8421504*
G04 Board_Origin=0|0*
%FSLAX25Y25*%
%MOIN*%
G70*
G04*
G04 #@! TF.SameCoordinates,0E061EC5-0034-4C87-9B6E-AF0799176EB5*
G04*
G04*
G04 #@! TF.FilePolarity,Positive*
G04*
G01*
G75*
%ADD16P,0.06960X4X270.0*%
G04:AMPARAMS|DCode=17|XSize=21.65mil|YSize=21.65mil|CornerRadius=5.41mil|HoleSize=0mil|Usage=FLASHONLY|Rotation=315.000|XOffset=0mil|YOffset=0mil|HoleType=Round|Shape=RoundedRectangle|*
%AMROUNDEDRECTD17*
21,1,0.02165,0.01083,0,0,315.0*
21,1,0.01083,0.02165,0,0,315.0*
1,1,0.01083,0.00000,-0.00766*
1,1,0.01083,-0.00766,0.00000*
1,1,0.01083,0.00000,0.00766*
1,1,0.01083,0.00766,0.00000*
%
%ADD17ROUNDEDRECTD17*%
G04:AMPARAMS|DCode=18|XSize=57.09mil|YSize=53.15mil|CornerRadius=13.29mil|HoleSize=0mil|Usage=FLASHONLY|Rotation=45.000|XOffset=0mil|YOffset=0mil|HoleType=Round|Shape=RoundedRectangle|*
%AMROUNDEDRECTD18*
21,1,0.05709,0.02657,0,0,45.0*
21,1,0.03051,0.05315,0,0,45.0*
1,1,0.02657,0.02018,0.00139*
1,1,0.02657,-0.00139,-0.02018*
1,1,0.02657,-0.02018,-0.00139*
1,1,0.02657,0.00139,0.02018*
%
%ADD18ROUNDEDRECTD18*%
G04:AMPARAMS|DCode=19|XSize=27.56mil|YSize=114.17mil|CornerRadius=6.89mil|HoleSize=0mil|Usage=FLASHONLY|Rotation=180.000|XOffset=0mil|YOffset=0mil|HoleType=Round|Shape=RoundedRectangle|*
%AMROUNDEDRECTD19*
21,1,0.02756,0.10039,0,0,180.0*
21,1,0.01378,0.11417,0,0,180.0*
1,1,0.01378,-0.00689,0.05020*
1,1,0.01378,0.00689,0.05020*
1,1,0.01378,0.00689,-0.05020*
1,1,0.01378,-0.00689,-0.05020*
%
%ADD19ROUNDEDRECTD19*%
G04:AMPARAMS|DCode=20|XSize=23.62mil|YSize=8.66mil|CornerRadius=2.17mil|HoleSize=0mil|Usage=FLASHONLY|Rotation=225.000|XOffset=0mil|YOffset=0mil|HoleType=Round|Shape=RoundedRectangle|*
%AMROUNDEDRECTD20*
21,1,0.02362,0.00433,0,0,225.0*
21,1,0.01929,0.00866,0,0,225.0*
1,1,0.00433,-0.00835,-0.00529*
1,1,0.00433,0.00529,0.00835*
1,1,0.00433,0.00835,0.00529*
1,1,0.00433,-0.00529,-0.00835*
%
%ADD20ROUNDEDRECTD20*%
G04:AMPARAMS|DCode=21|XSize=43.31mil|YSize=74.8mil|CornerRadius=10.83mil|HoleSize=0mil|Usage=FLASHONLY|Rotation=90.000|XOffset=0mil|YOffset=0mil|HoleType=Round|Shape=RoundedRectangle|*
%AMROUNDEDRECTD21*
21,1,0.04331,0.05315,0,0,90.0*
21,1,0.02165,0.07480,0,0,90.0*
1,1,0.02165,0.02657,0.01083*
1,1,0.02165,0.02657,-0.01083*
1,1,0.02165,-0.02657,-0.01083*
1,1,0.02165,-0.02657,0.01083*
%
%ADD21ROUNDEDRECTD21*%
G04:AMPARAMS|DCode=22|XSize=27.56mil|YSize=114.17mil|CornerRadius=6.89mil|HoleSize=0mil|Usage=FLASHONLY|Rotation=90.000|XOffset=0mil|YOffset=0mil|HoleType=Round|Shape=RoundedRectangle|*
%AMROUNDEDRECTD22*
21,1,0.02756,0.10039,0,0,90.0*
21,1,0.01378,0.11417,0,0,90.0*
1,1,0.01378,0.05020,0.00689*
1,1,0.01378,0.05020,-0.00689*
1,1,0.01378,-0.05020,-0.00689*
1,1,0.01378,-0.05020,0.00689*
%
%ADD22ROUNDEDRECTD22*%
G04:AMPARAMS|DCode=23|XSize=23.62mil|YSize=8.66mil|CornerRadius=2.17mil|HoleSize=0mil|Usage=FLASHONLY|Rotation=315.000|XOffset=0mil|YOffset=0mil|HoleType=Round|Shape=RoundedRectangle|*
%AMROUNDEDRECTD23*
21,1,0.02362,0.00433,0,0,315.0*
21,1,0.01929,0.00866,0,0,315.0*
1,1,0.00433,0.00529,-0.00835*
1,1,0.00433,-0.00835,0.00529*
1,1,0.00433,-0.00529,0.00835*
1,1,0.00433,0.00835,-0.00529*
%
%ADD23ROUNDEDRECTD23*%
G04:AMPARAMS|DCode=24|XSize=74.8mil|YSize=64.96mil|CornerRadius=16.24mil|HoleSize=0mil|Usage=FLASHONLY|Rotation=0.000|XOffset=0mil|YOffset=0mil|HoleType=Round|Shape=RoundedRectangle|*
%AMROUNDEDRECTD24*
21,1,0.07480,0.03248,0,0,0.0*
21,1,0.04232,0.06496,0,0,0.0*
1,1,0.03248,0.02116,-0.01624*
1,1,0.03248,-0.02116,-0.01624*
1,1,0.03248,-0.02116,0.01624*
1,1,0.03248,0.02116,0.01624*
%
%ADD24ROUNDEDRECTD24*%
G04:AMPARAMS|DCode=25|XSize=62.99mil|YSize=47.24mil|CornerRadius=11.81mil|HoleSize=0mil|Usage=FLASHONLY|Rotation=90.000|XOffset=0mil|YOffset=0mil|HoleType=Round|Shape=RoundedRectangle|*
%AMROUNDEDRECTD25*
21,1,0.06299,0.02362,0,0,90.0*
21,1,0.03937,0.04724,0,0,90.0*
1,1,0.02362,0.01181,0.01968*
1,1,0.02362,0.01181,-0.01968*
1,1,0.02362,-0.01181,-0.01968*
1,1,0.02362,-0.01181,0.01968*
%
%ADD25ROUNDEDRECTD25*%
G04:AMPARAMS|DCode=26|XSize=21.65mil|YSize=16.54mil|CornerRadius=4.13mil|HoleSize=0mil|Usage=FLASHONLY|Rotation=315.000|XOffset=0mil|YOffset=0mil|HoleType=Round|Shape=RoundedRectangle|*
%AMROUNDEDRECTD26*
21,1,0.02165,0.00827,0,0,315.0*
21,1,0.01339,0.01654,0,0,315.0*
1,1,0.00827,0.00181,-0.00766*
1,1,0.00827,-0.00766,0.00181*
1,1,0.00827,-0.00181,0.00766*
1,1,0.00827,0.00766,-0.00181*
%
%ADD26ROUNDEDRECTD26*%
G04:AMPARAMS|DCode=27|XSize=21.65mil|YSize=16.54mil|CornerRadius=4.13mil|HoleSize=0mil|Usage=FLASHONLY|Rotation=90.000|XOffset=0mil|YOffset=0mil|HoleType=Round|Shape=RoundedRectangle|*
%AMROUNDEDRECTD27*
21,1,0.02165,0.00827,0,0,90.0*
21,1,0.01339,0.01654,0,0,90.0*
1,1,0.00827,0.00413,0.00669*
1,1,0.00827,0.00413,-0.00669*
1,1,0.00827,-0.00413,-0.00669*
1,1,0.00827,-0.00413,0.00669*
%
%ADD27ROUNDEDRECTD27*%
G04:AMPARAMS|DCode=28|XSize=21.65mil|YSize=16.54mil|CornerRadius=4.13mil|HoleSize=0mil|Usage=FLASHONLY|Rotation=45.000|XOffset=0mil|YOffset=0mil|HoleType=Round|Shape=RoundedRectangle|*
%AMROUNDEDRECTD28*
21,1,0.02165,0.00827,0,0,45.0*
21,1,0.01339,0.01654,0,0,45.0*
1,1,0.00827,0.00766,0.00181*
1,1,0.00827,-0.00181,-0.00766*
1,1,0.00827,-0.00766,-0.00181*
1,1,0.00827,0.00181,0.00766*
%
%ADD28ROUNDEDRECTD28*%
G04:AMPARAMS|DCode=29|XSize=57.09mil|YSize=53.15mil|CornerRadius=13.29mil|HoleSize=0mil|Usage=FLASHONLY|Rotation=135.000|XOffset=0mil|YOffset=0mil|HoleType=Round|Shape=RoundedRectangle|*
%AMROUNDEDRECTD29*
21,1,0.05709,0.02657,0,0,135.0*
21,1,0.03051,0.05315,0,0,135.0*
1,1,0.02657,-0.00139,0.02018*
1,1,0.02657,0.02018,-0.00139*
1,1,0.02657,0.00139,-0.02018*
1,1,0.02657,-0.02018,0.00139*
%
%ADD29ROUNDEDRECTD29*%
G04:AMPARAMS|DCode=30|XSize=39.37mil|YSize=31.5mil|CornerRadius=7.87mil|HoleSize=0mil|Usage=FLASHONLY|Rotation=315.000|XOffset=0mil|YOffset=0mil|HoleType=Round|Shape=RoundedRectangle|*
%AMROUNDEDRECTD30*
21,1,0.03937,0.01575,0,0,315.0*
21,1,0.02362,0.03150,0,0,315.0*
1,1,0.01575,0.00278,-0.01392*
1,1,0.01575,-0.01392,0.00278*
1,1,0.01575,-0.00278,0.01392*
1,1,0.01575,0.01392,-0.00278*
%
%ADD30ROUNDEDRECTD30*%
G04:AMPARAMS|DCode=31|XSize=22mil|YSize=13mil|CornerRadius=3.25mil|HoleSize=0mil|Usage=FLASHONLY|Rotation=270.000|XOffset=0mil|YOffset=0mil|HoleType=Round|Shape=RoundedRectangle|*
%AMROUNDEDRECTD31*
21,1,0.02200,0.00650,0,0,270.0*
21,1,0.01550,0.01300,0,0,270.0*
1,1,0.00650,-0.00325,-0.00775*
1,1,0.00650,-0.00325,0.00775*
1,1,0.00650,0.00325,0.00775*
1,1,0.00650,0.00325,-0.00775*
%
%ADD31ROUNDEDRECTD31*%
G04:AMPARAMS|DCode=32|XSize=39.37mil|YSize=31.5mil|CornerRadius=7.87mil|HoleSize=0mil|Usage=FLASHONLY|Rotation=0.000|XOffset=0mil|YOffset=0mil|HoleType=Round|Shape=RoundedRectangle|*
%AMROUNDEDRECTD32*
21,1,0.03937,0.01575,0,0,0.0*
21,1,0.02362,0.03150,0,0,0.0*
1,1,0.01575,0.01181,-0.00787*
1,1,0.01575,-0.01181,-0.00787*
1,1,0.01575,-0.01181,0.00787*
1,1,0.01575,0.01181,0.00787*
%
%ADD32ROUNDEDRECTD32*%
G04:AMPARAMS|DCode=33|XSize=39.37mil|YSize=31.5mil|CornerRadius=7.87mil|HoleSize=0mil|Usage=FLASHONLY|Rotation=270.000|XOffset=0mil|YOffset=0mil|HoleType=Round|Shape=RoundedRectangle|*
%AMROUNDEDRECTD33*
21,1,0.03937,0.01575,0,0,270.0*
21,1,0.02362,0.03150,0,0,270.0*
1,1,0.01575,-0.00787,-0.01181*
1,1,0.01575,-0.00787,0.01181*
1,1,0.01575,0.00787,0.01181*
1,1,0.01575,0.00787,-0.01181*
%
%ADD33ROUNDEDRECTD33*%
G04:AMPARAMS|DCode=34|XSize=37.4mil|YSize=31.5mil|CornerRadius=7.87mil|HoleSize=0mil|Usage=FLASHONLY|Rotation=180.000|XOffset=0mil|YOffset=0mil|HoleType=Round|Shape=RoundedRectangle|*
%AMROUNDEDRECTD34*
21,1,0.03740,0.01575,0,0,180.0*
21,1,0.02165,0.03150,0,0,180.0*
1,1,0.01575,-0.01083,0.00787*
1,1,0.01575,0.01083,0.00787*
1,1,0.01575,0.01083,-0.00787*
1,1,0.01575,-0.01083,-0.00787*
%
%ADD34ROUNDEDRECTD34*%
G04:AMPARAMS|DCode=35|XSize=43.31mil|YSize=74.8mil|CornerRadius=10.83mil|HoleSize=0mil|Usage=FLASHONLY|Rotation=180.000|XOffset=0mil|YOffset=0mil|HoleType=Round|Shape=RoundedRectangle|*
%AMROUNDEDRECTD35*
21,1,0.04331,0.05315,0,0,180.0*
21,1,0.02165,0.07480,0,0,180.0*
1,1,0.02165,-0.01083,0.02657*
1,1,0.02165,0.01083,0.02657*
1,1,0.02165,0.01083,-0.02657*
1,1,0.02165,-0.01083,-0.02657*
%
%ADD35ROUNDEDRECTD35*%
G04:AMPARAMS|DCode=36|XSize=39.37mil|YSize=37.4mil|CornerRadius=9.35mil|HoleSize=0mil|Usage=FLASHONLY|Rotation=135.000|XOffset=0mil|YOffset=0mil|HoleType=Round|Shape=RoundedRectangle|*
%AMROUNDEDRECTD36*
21,1,0.03937,0.01870,0,0,135.0*
21,1,0.02067,0.03740,0,0,135.0*
1,1,0.01870,-0.00070,0.01392*
1,1,0.01870,0.01392,-0.00070*
1,1,0.01870,0.00070,-0.01392*
1,1,0.01870,-0.01392,0.00070*
%
%ADD36ROUNDEDRECTD36*%
G36*
X36546Y131884D02*
X26113D01*
Y123242D01*
X36546D01*
Y131884D01*
D02*
G37*
G36*
X42913Y120084D02*
X53347D01*
Y128727D01*
X42913D01*
Y120084D01*
D02*
G37*
G36*
X66043D02*
X76476D01*
Y128727D01*
X66043D01*
Y120084D01*
D02*
G37*
G36*
X93276Y131884D02*
X82843D01*
Y123242D01*
X93276D01*
Y131884D01*
D02*
G37*
G36*
X115453D02*
X105020D01*
Y123242D01*
X115453D01*
Y131884D01*
D02*
G37*
G36*
X121949Y120084D02*
X132382D01*
Y128727D01*
X121949D01*
Y120084D01*
D02*
G37*
D16*
X56868Y66374D02*
D03*
X60570Y62671D02*
D03*
X64287Y58955D02*
D03*
X64273Y73779D02*
D03*
X71692Y66360D02*
D03*
X67975Y70076D02*
D03*
X67975Y62643D02*
D03*
X60556Y70063D02*
D03*
X64259Y66360D02*
D03*
D17*
X48424Y49088D02*
D03*
X52269Y45924D02*
D03*
X50929Y51593D02*
D03*
X54774Y48430D02*
D03*
D18*
X41667Y56758D02*
D03*
X37073Y61352D02*
D03*
D19*
X44965Y24353D02*
D03*
X68587D02*
D03*
X62681D02*
D03*
X50870D02*
D03*
X56776D02*
D03*
X39059D02*
D03*
D20*
X54098Y60375D02*
D03*
X66068Y80697D02*
D03*
X74420Y72345D02*
D03*
X73028Y73737D02*
D03*
X55490Y58983D02*
D03*
X56881Y57591D02*
D03*
X58274Y56199D02*
D03*
X62449Y52023D02*
D03*
X59665Y54807D02*
D03*
X61057Y53415D02*
D03*
X49922Y64551D02*
D03*
X51314Y63159D02*
D03*
X52706Y61767D02*
D03*
X77204Y69561D02*
D03*
X78596Y68169D02*
D03*
X75812Y70953D02*
D03*
X71636Y75129D02*
D03*
X70244Y76521D02*
D03*
X68852Y77913D02*
D03*
X67460Y79305D02*
D03*
D21*
X9138Y91003D02*
D03*
Y46121D02*
D03*
D22*
X24099Y71515D02*
D03*
Y77420D02*
D03*
Y59704D02*
D03*
Y65609D02*
D03*
Y83326D02*
D03*
Y53798D02*
D03*
D23*
X62449Y80697D02*
D03*
X49922Y68169D02*
D03*
X67460Y53415D02*
D03*
X78596Y64551D02*
D03*
X54098Y72345D02*
D03*
X70244Y56199D02*
D03*
X77204Y63159D02*
D03*
X74420Y60375D02*
D03*
X71636Y57591D02*
D03*
X73028Y58983D02*
D03*
X75812Y61767D02*
D03*
X61057Y79305D02*
D03*
X59665Y77913D02*
D03*
X58274Y76521D02*
D03*
X56881Y75129D02*
D03*
X55490Y73737D02*
D03*
X52706Y70953D02*
D03*
X51314Y69561D02*
D03*
X66068Y52023D02*
D03*
X68852Y54807D02*
D03*
D24*
X69291Y103248D02*
D03*
X46850Y102461D02*
D03*
X127559Y101673D02*
D03*
X69291Y113287D02*
D03*
X46850Y112500D02*
D03*
X127559Y111713D02*
D03*
D25*
X25197Y106299D02*
D03*
X92192Y105494D02*
D03*
X98819Y105118D02*
D03*
X32283Y106299D02*
D03*
X105905Y105118D02*
D03*
X85106Y105494D02*
D03*
D26*
X41934Y81002D02*
D03*
X37480Y85456D02*
D03*
D27*
X57480Y90158D02*
D03*
Y83858D02*
D03*
D28*
X107345Y95534D02*
D03*
X102891Y91080D02*
D03*
D29*
X67388Y41404D02*
D03*
X71982Y45998D02*
D03*
D30*
X83479Y81412D02*
D03*
X78608Y76540D02*
D03*
X88834Y76319D02*
D03*
X83963Y71447D02*
D03*
D31*
X46850Y119184D02*
D03*
X49409D02*
D03*
X44291D02*
D03*
X51968D02*
D03*
X69980D02*
D03*
X72539D02*
D03*
X75098D02*
D03*
X67421D02*
D03*
X128445D02*
D03*
X125886D02*
D03*
X131004D02*
D03*
X123327D02*
D03*
X51968Y132784D02*
D03*
X49409D02*
D03*
X46850D02*
D03*
X27491D02*
D03*
X30050D02*
D03*
X32609D02*
D03*
X35168D02*
D03*
X27491Y119184D02*
D03*
X30050D02*
D03*
X32609D02*
D03*
X35168D02*
D03*
X108957D02*
D03*
X111516D02*
D03*
X106398D02*
D03*
X114075D02*
D03*
Y132784D02*
D03*
X111516D02*
D03*
X108957D02*
D03*
X106398D02*
D03*
X125886D02*
D03*
X128445D02*
D03*
X131004D02*
D03*
X44291D02*
D03*
X84221D02*
D03*
X86780D02*
D03*
X89339D02*
D03*
X91898D02*
D03*
Y119184D02*
D03*
X89339D02*
D03*
X86780D02*
D03*
X84221D02*
D03*
X67421Y132784D02*
D03*
X69980D02*
D03*
X72539D02*
D03*
X75098D02*
D03*
X123327D02*
D03*
D32*
X17717Y110728D02*
D03*
X112817Y104698D02*
D03*
X17717Y117618D02*
D03*
X112817Y111588D02*
D03*
D33*
X76870Y113779D02*
D03*
X83760D02*
D03*
D34*
X17285Y29142D02*
D03*
X9395Y29113D02*
D03*
X17285Y35442D02*
D03*
X9395Y35412D02*
D03*
D35*
X31382Y9392D02*
D03*
X76264D02*
D03*
D36*
X91799Y68682D02*
D03*
X96253Y73136D02*
D03*
M02*
